Roboto-BoldItalic-flat.ufo
<glyph name="quotedbl" format="1">
  <advance width="632.4399999999999"/>
  <unicode hex="0022"/>
  <outline>
    <contour>
      <point x="374.36889748077976" y="1380.2851092659696" type="line"/>
      <point x="399.12514264562094" y="1536.9282796109817" type="line"/>
      <point x="182.46128375430999" y="1536.9574422770097" type="line"/>
      <point x="93.263894723916437" y="969.04603018882233" type="line"/>
      <point x="270.91357668537455" y="969.09370222940254" type="line"/>
    </contour>
    <contour>
      <point x="707.07384212324314" y="1380.2579733571163" type="line"/>
      <point x="731.83482118487359" y="1536.9284212208461" type="line"/>
      <point x="516.14111325481895" y="1536.9574684686399" type="line"/>
      <point x="426.94384475377922" y="969.04606940478072" type="line"/>
      <point x="603.62268067114985" y="969.0933272947708" type="line"/>
    </contour>
  </outline>
</glyph>
<glyph name="numbersign" format="1">
  <advance width="1164.0"/>
  <unicode hex="0023"/>
  <outline>
    <contour>
      <point x="435.67596960279582" y="0.0" type="line"/>
      <point x="632.75524520370561" y="0.0" type="line"/>
      <point x="771.27150171618769" y="409.79773917790794" type="line"/>
      <point x="1016.0690144668094" y="410.20824068463503" type="line"/>
      <point x="1050.0865423897924" y="592.50067277380811" type="line"/>
      <point x="829.0413769498424" y="594.6400087044633" type="line"/>
      <point x="923.93049794703006" y="855.94241310224106" type="line"/>
      <point x="1168.0635480926194" y="857.06529373205399" type="line"/>
      <point x="1200.2234287255942" y="1039.819581141782" type="line"/>
      <point x="982.86984046830821" y="1040.1938935761514" type="line"/>
      <point x="1123.4015633568199" y="1455.8166351618361" type="line"/>
      <point x="926.33931856691061" y="1455.8501927379293" type="line"/>
      <point x="785.56692861489182" y="1040.1803822120894" type="line"/>
      <point x="627.88303621673799" y="1040.153176688814" type="line"/>
      <point x="768.38073200091981" y="1455.8149467423418" type="line"/>
      <point x="572.28413987325155" y="1455.8530397247653" type="line"/>
      <point x="431.70932162837789" y="1040.2019539490932" type="line"/>
      <point x="188.13402025352531" y="1039.9121250419503" type="line"/>
      <point x="155.94747367804024" y="857.11918199888055" type="line"/>
      <point x="370.57095009567365" y="856.8132224819459" type="line"/>
      <point x="281.33940311902819" y="593.19176238765215" type="line"/>
      <point x="37.937143089276546" y="592.93561946293403" type="line"/>
      <point x="5.7458142777619656" y="410.11701829032131" type="line"/>
      <point x="220.15018026241836" y="409.84078633255899" type="line"/>
      <point x="81.633707200899991" y="0.0" type="line"/>
      <point x="278.6863319845848" y="0.0" type="line"/>
      <point x="417.15632158220944" y="409.81948046459814" type="line"/>
      <point x="574.42066621664935" y="409.84546527911897" type="line"/>
    </contour>
    <contour>
      <point x="477.66656663618778" y="593.20698381482191" type="line"/>
      <point x="567.39374735879539" y="856.784624902735" type="line"/>
      <point x="724.95664133084586" y="856.80779191531997" type="line"/>
      <point x="635.04452972343927" y="593.21615078768741" type="line"/>
    </contour>
  </outline>
</glyph>
<glyph name="dollar" format="1">
  <advance width="1147.51"/>
  <unicode hex="0024"/>
  <outline>
    <contour>
      <point x="1026.387844754943" y="395.39727726925076" type="curve" smooth="yes"/>
      <point x="1041.0913010261449" y="650.4548859050276"/>
      <point x="856.6965553309949" y="764.48122059072273"/>
      <point x="653.78744684431229" y="867.17481269551456" type="curve" smooth="yes"/>
      <point x="570.71062298825473" y="909.22052235371632"/>
      <point x="503.77775334584902" y="956.99787465669692"/>
      <point x="518.70651450170078" y="1058.9119761680352" type="curve" smooth="yes"/>
      <point x="532.2190310261459" y="1151.1578073103024"/>
      <point x="596.79668599663398" y="1222.6616838350817"/>
      <point x="694.06410973256777" y="1221.4342810864898" type="curve" smooth="yes"/>
      <point x="812.90085117679394" y="1219.93469841554"/>
      <point x="823.3902712204233" y="1098.4054265863281"/>
      <point x="819.26847233861315" y="1005.7390548094667" type="curve"/>
      <point x="1134.201126477986" y="1004.9136731083419" type="line"/>
      <point x="1138.2392880797156" y="1223.2700777637981"/>
      <point x="1046.9423349322544" y="1420.5423257276152"/>
      <point x="817.68816149351539" y="1467.5346075177231" type="curve"/>
      <point x="859.85292106984195" y="1684.7886862217215" type="line"/>
      <point x="703.4008278390412" y="1685.1672436087354" type="line"/>
      <point x="662.18933048514225" y="1473.137038975234" type="line"/>
      <point x="426.28762486188594" y="1451.5604594925508"/>
      <point x="223.28467960743492" y="1313.5420489574419"/>
      <point x="208.38709807755225" y="1060.6738337587283" type="curve" smooth="yes"/>
      <point x="193.25721583560824" y="803.86259825631566"/>
      <point x="377.03641440459717" y="692.66058815052577"/>
      <point x="583.48925560253622" y="593.70314749074407" type="curve" smooth="yes"/>
      <point x="673.20495827214233" y="550.70041489736582"/>
      <point x="732.4853811387419" y="500.58648880324347"/>
      <point x="716.1782206976942" y="393.55795265026086" type="curve" smooth="yes"/>
      <point x="701.57890204255011" y="297.73846831147716"/>
      <point x="627.6229681984405" y="234.90440489682902"/>
      <point x="530.69494966150694" y="235.10194423972521" type="curve" smooth="yes"/>
      <point x="394.90526094996807" y="235.3786836829228"/>
      <point x="366.22357130622953" y="353.22827819066833"/>
      <point x="371.05841038551733" y="467.35528504846866" type="curve"/>
      <point x="56.895013332234853" y="467.98596102715231" type="line"/>
      <point x="51.050631819672432" y="219.68609719541791"/>
      <point x="168.57301519740633" y="21.95315901259017"/>
      <point x="426.13524903816312" y="-14.280593559681705" type="curve"/>
      <point x="386.05774628294517" y="-217.8698445612435" type="line"/>
      <point x="542.50603045181197" y="-218.17861556384841" type="line"/>
      <point x="582.08369406710176" y="-16.159913459840698" type="line"/>
      <point x="818.9982426996163" y="7.6193993963310191"/>
      <point x="1011.8074198597149" y="142.47386674065655"/>
    </contour>
  </outline>
</glyph>
<glyph name="percent" format="1">
  <advance width="1472.46"/>
  <unicode hex="0025"/>
  <outline>
    <contour>
      <point x="178.58103700432866" y="1099.1798631056336" type="line" smooth="yes"/>
      <point x="169.72142957625363" y="922.07370133255552"/>
      <point x="291.36467609343254" y="803.25519523483194"/>
      <point x="466.49487467189522" y="799.76989235572967" type="curve" smooth="yes"/>
      <point x="651.63418168003784" y="796.08539610672096"/>
      <point x="787.76953247331085" y="914.85158467519136"/>
      <point x="804.47052041268421" y="1098.8946607368439" type="curve" smooth="yes"/>
      <point x="810.3870050937295" y="1175.8552457743365" type="line" smooth="yes"/>
      <point x="819.99361753912706" y="1354.7739909885377"/>
      <point x="701.35420720303932" y="1474.0922178456083"/>
      <point x="523.53667174663462" y="1477.4335876543664" type="curve" smooth="yes"/>
      <point x="338.17144207873366" y="1480.9167862062757"/>
      <point x="200.45335385001198" y="1360.035958193173"/>
      <point x="184.19634706963808" y="1175.6174234174946" type="curve" smooth="yes"/>
    </contour>
    <contour>
      <point x="1267.7706560453462" y="1235.7542815826755" type="line"/>
      <point x="1117.8123680551394" y="1323.1538503596259" type="line"/>
      <point x="241.21345019898189" y="199.57915481639316" type="line"/>
      <point x="391.13874179073747" y="111.69776255414182" type="line"/>
    </contour>
    <contour>
      <point x="392.85360008341905" y="1175.7190580254824" type="line" smooth="yes"/>
      <point x="405.45911013382016" y="1241.2790714055202"/>
      <point x="453.66685783923572" y="1297.5344279662579"/>
      <point x="525.10909366576141" y="1295.6328233412144" type="curve" smooth="yes"/>
      <point x="593.71216725603051" y="1293.8067897558683"/>
      <point x="614.32135776309974" y="1237.5083499961161"/>
      <point x="608.08177975286151" y="1177.5685706935033" type="curve" smooth="yes"/>
      <point x="596.48080035770931" y="1099.1787260109124" type="line" smooth="yes"/>
      <point x="583.78005202648023" y="1034.1971540584445"/>
      <point x="536.1753794631984" y="979.3578506159547"/>
      <point x="465.44382748227008" y="981.2499347907974" type="curve" smooth="yes"/>
      <point x="398.31553043005272" y="983.04563112403901"/>
      <point x="375.93604794561128" y="1036.9969634635736"/>
      <point x="381.64170745746139" y="1096.4367709825924" type="curve" smooth="yes"/>
    </contour>
    <contour>
      <point x="708.94358275468528" y="280.18211019113318" type="line" smooth="yes"/>
      <point x="700.15792335031256" y="102.43306932116033"/>
      <point x="821.89848688948621" y="-17.260592856178302"/>
      <point x="997.81513538393961" y="-20.794816718125936" type="curve" smooth="yes"/>
      <point x="1183.9512965316665" y="-24.53435398153832"/>
      <point x="1319.2717599809341" y="95.176923085757608"/>
      <point x="1335.838731170561" y="279.83875903759031" type="curve" smooth="yes"/>
      <point x="1341.7149930727353" y="356.84870791293412" type="line" smooth="yes"/>
      <point x="1351.2344684754137" y="535.58310103969029"/>
      <point x="1231.7854715561489" y="654.32153726600575"/>
      <point x="1054.4931958048094" y="657.65088390294466" type="curve" smooth="yes"/>
      <point x="869.69675129887491" y="661.12115026636491"/>
      <point x="730.69874674136963" y="540.89853969723663"/>
      <point x="714.51396792370986" y="356.59456044873457" type="curve" smooth="yes"/>
    </contour>
    <contour>
      <point x="923.14446855447181" y="356.77098901859142" type="line" smooth="yes"/>
      <point x="935.94870439975921" y="422.45496229988254"/>
      <point x="984.99948897189438" y="477.81567699567881"/>
      <point x="1056.2817950158528" y="475.87256623423986" type="curve" smooth="yes"/>
      <point x="1124.0641786874094" y="474.02486115204226"/>
      <point x="1145.7079564823807" y="418.18155287791222"/>
      <point x="1139.6854638155382" y="358.64906690646177" type="curve" smooth="yes"/>
      <point x="1128.3216596467321" y="280.33365454440286" type="line" smooth="yes"/>
      <point x="1116.2569333744993" y="209.9528384782478"/>
      <point x="1073.9920460805142" y="157.81674447720161"/>
      <point x="996.72232024713958" y="161.21225677043927" type="curve" smooth="yes"/>
      <point x="933.18717054473473" y="164.00422192290304"/>
      <point x="906.79615754101758" y="220.50401059110979"/>
      <point x="911.70327380896015" y="277.39409642217879" type="curve"/>
    </contour>
  </outline>
</glyph>
<glyph name="ampersand" format="1">
  <advance width="1327.93"/>
  <unicode hex="0026"/>
  <outline>
    <contour>
      <point x="865.7201095696978" y="0.0" type="line"/>
      <point x="1198.9034551751704" y="0.0" type="line"/>
      <point x="1027.9136138000442" y="249.7614503597637" type="line"/>
      <point x="1154.406983397932" y="381.85230956843742"/>
      <point x="1213.1972037670701" y="548.20578610296229"/>
      <point x="1224.2473469398162" y="729.15156009463442" type="curve"/>
      <point x="961.77183752192525" y="728.77554493204343" type="line"/>
      <point x="950.51580312889405" y="634.93237407909407"/>
      <point x="916.43645268565581" y="554.62959423219297"/>
      <point x="862.21151256933149" y="477.65123544395271" type="curve"/>
      <point x="691.35590441472004" y="730.71475988049303" type="line"/>
      <point x="804.62230214035992" y="804.31549689069902" type="line" smooth="yes"/>
      <point x="919.5316141912416" y="880.42578962206437"/>
      <point x="1020.4807781613841" y="990.23349852474962"/>
      <point x="1027.1242733249364" y="1134.8197293142412" type="curve" smooth="yes"/>
      <point x="1036.1802526256481" y="1331.9102488318977"/>
      <point x="883.18016789751414" y="1473.1629288559186"/>
      <point x="691.4296139174952" y="1477.4082306859866" type="curve" smooth="yes"/>
      <point x="453.65511496013903" y="1482.6724893523387"/>
      <point x="272.70747499994735" y="1312.2980819169231"/>
      <point x="257.06156272145199" y="1076.4305837879774" type="curve" smooth="yes"/>
      <point x="249.75142722963446" y="966.22778201153631"/>
      <point x="292.36247832344537" y="866.86648733889911"/>
      <point x="335.20693105065754" y="768.04525935035167" type="curve"/>
      <point x="187.00055788732615" y="678.44587478848882"/>
      <point x="36.331069610258311" y="572.48563588779496"/>
      <point x="25.773845664769269" y="383.85470118737874" type="curve" smooth="yes"/>
      <point x="11.650488832879553" y="131.50597636514931"/>
      <point x="206.81913841062925" y="-15.568676366251365"/>
      <point x="444.46233644952281" y="-19.933769330099558" type="curve" smooth="yes"/>
      <point x="577.86738953359827" y="-22.384188544133984"/>
      <point x="699.24858939830631" y="12.779654848811248"/>
      <point x="815.02569569725074" y="77.549062298164827" type="curve"/>
    </contour>
    <contour>
      <point x="524.58957884877759" y="1081.3168477154165" type="curve" smooth="yes"/>
      <point x="536.56648904007204" y="1155.4232132260345"/>
      <point x="595.3197876578671" y="1219.8166101297707"/>
      <point x="674.19146109848884" y="1218.0599189966506" type="curve" smooth="yes"/>
      <point x="734.46660888483302" y="1216.717424118011"/>
      <point x="769.73660903477355" y="1170.0024787331747"/>
      <point x="762.47512858875609" y="1111.7598425975573" type="curve" smooth="yes"/>
      <point x="753.66988154849128" y="1041.1350157095869"/>
      <point x="697.80436441523523" y="995.25725201967043"/>
      <point x="641.45772447390289" y="959.41666404504247" type="curve" smooth="yes"/>
      <point x="567.15338777435193" y="914.7613061461002" type="line"/>
      <point x="541.04896766351999" y="966.18644960573295"/>
      <point x="515.00370033003082" y="1022.0048376974262"/>
    </contour>
    <contour>
      <point x="348.69917622869923" y="404.88686896012996" type="curve" smooth="yes"/>
      <point x="357.45989425508736" y="469.43080722470734"/>
      <point x="392.98691849039125" y="530.66409664462469"/>
      <point x="444.75035713563432" y="570.5005260536866" type="curve"/>
      <point x="462.45086709160239" y="581.5648657036329" type="line"/>
      <point x="657.09783848817381" y="284.40554741329311" type="line"/>
      <point x="599.07485725836932" y="260.55892815330145"/>
      <point x="537.72138089275597" y="237.93806232887209"/>
      <point x="473.82747375742463" y="240.37139859400142" type="curve" smooth="yes"/>
      <point x="381.68486228599556" y="243.88055882710864"/>
      <point x="336.87981030167413" y="317.80856985011121"/>
    </contour>
  </outline>
</glyph>
<glyph name="parenright" format="1">
  <advance width="700.34"/>
  <unicode hex="0029"/>
  <outline>
    <contour>
      <point x="601.61009258857064" y="596.80022710204094" type="line" smooth="yes"/>
      <point x="643.73165236302577" y="937.05606551602136"/>
      <point x="586.16807959861785" y="1428.9257558974718"/>
      <point x="240.89849784399127" y="1605.8669698283043" type="curve"/>
      <point x="171.40522010284411" y="1440.0813055402464" type="line"/>
      <point x="400.56452287464373" y="1263.3116518535339"/>
      <point x="358.96887223778731" y="841.19748031007714"/>
      <point x="326.10459273220982" y="595.18288249606667" type="curve" smooth="yes"/>
      <point x="321.74133574557521" y="563.52954428717192" type="line" smooth="yes"/>
      <point x="275.77336105933625" y="240.60271867847945"/>
      <point x="162.3725438768451" y="-76.960399557754101"/>
      <point x="-102.29191504071775" y="-282.10355639515643" type="curve"/>
      <point x="-51.706356924873234" y="-452.2441851683547" type="line"/>
      <point x="341.34233258212078" y="-301.21969389136746"/>
      <point x="545.92326617252672" y="181.81012443813677"/>
      <point x="597.95545097462093" y="568.71137149997514" type="curve" smooth="yes"/>
    </contour>
  </outline>
</glyph>
<glyph name="asterisk" format="1">
  <advance width="916.65"/>
  <unicode hex="002A"/>
  <outline>
    <contour>
      <point x="134.28078598449463" y="698.04366809684973" type="line"/>
      <point x="292.63403503146606" y="573.39221650489128" type="line"/>
      <point x="516.86186083779205" y="853.09790914718008" type="line"/>
      <point x="643.74764154441175" y="557.58393685943338" type="line"/>
      <point x="812.84990872146102" y="665.63217635925241" type="line"/>
      <point x="645.21305700283608" y="936.85839038630081" type="line"/>
      <point x="981.03793458748396" y="1027.4363141231172" type="line"/>
      <point x="951.62984029881295" y="1229.9457680309317" type="line"/>
      <point x="640.75923945755721" y="1106.7054432806276" type="line"/>
      <point x="724.58284400180696" y="1455.8988459512175" type="line"/>
      <point x="520.5128284038916" y="1455.9709783000765" type="line"/>
      <point x="480.5902574267584" y="1096.1571813729338" type="line"/>
      <point x="188.78703586591809" y="1230.5477040527958" type="line"/>
      <point x="98.927746237808591" y="1053.1741938513358" type="line"/>
      <point x="398.97975792792045" y="960.03431506250774" type="line"/>
    </contour>
  </outline>
</glyph>
<glyph name="comma" format="1">
  <advance width="519.92"/>
  <unicode hex="002C"/>
  <outline>
    <contour>
      <point x="327.03522665850176" y="264" type="move" name="_bottom"/>
    </contour>
    <contour>
      <point x="70.188134113254463" y="35" type="move" name="_right"/>
    </contour>
    <contour>
      <point x="338.14497668828528" y="253.91212621775421" type="line"/>
      <point x="81.986229746731723" y="253.97347114636906" type="line"/>
      <point x="41.292721398184696" y="21.287627969346772" type="line" smooth="yes"/>
      <point x="17.27435002300513" y="-107.58512862149675"/>
      <point x="-56.453667269581906" y="-198.78124270488263"/>
      <point x="-115.41849535581335" y="-311.46580862446615" type="curve"/>
      <point x="46.464570534832589" y="-391.42515327724846" type="line"/>
      <point x="181.08114988325508" y="-283.77242795078877"/>
      <point x="276.24077388618616" y="-130.54807458449147"/>
      <point x="302.66241789901039" y="40.747563872248733" type="curve" smooth="yes"/>
    </contour>
  </outline>
</glyph>
<glyph name="slash" format="1">
  <advance width="711.98"/>
  <unicode hex="002F"/>
  <outline>
    <contour>
      <point x="852.55681535501321" y="1455.7451011000067" type="line"/>
      <point x="612.94010487380626" y="1455.7948825496235" type="line"/>
      <point x="-156.01193031108625" y="-124.72026153604195" type="line"/>
      <point x="83.356907304566889" y="-124.80167133973102" type="line"/>
    </contour>
  </outline>
</glyph>
<glyph name="one" format="1">
  <advance width="1147.51"/>
  <unicode hex="0031"/>
  <outline>
    <contour>
      <point x="940.75613924413324" y="1456.7897292933367" type="line"/>
      <point x="903.14414914235022" y="1456.1522337082245" type="line"/>
      <point x="272.49363991404283" y="1241.5433811369458" type="line"/>
      <point x="225.30852697877191" y="973.27080024829786" type="line"/>
      <point x="568.69140074500308" y="1069.6188109446555" type="line"/>
      <point x="382.88648925282274" y="0.0" type="line"/>
      <point x="697.53593985391501" y="0.0" type="line"/>
    </contour>
  </outline>
</glyph>
<glyph name="three" format="1">
  <advance width="1147.51"/>
  <unicode hex="0033"/>
  <outline>
    <contour>
      <point x="560.80847808623218" y="617.03812969490616" type="line" smooth="yes"/>
      <point x="681.63206325344663" y="612.79273156641727"/>
      <point x="741.08074549689422" y="546.61725291713117"/>
      <point x="723.45290730619627" y="423.75826507498454" type="curve" smooth="yes"/>
      <point x="707.08040015453696" y="309.64843292593412"/>
      <point x="602.36738626201088" y="238.47390871831436"/>
      <point x="490.9744127925718" y="240.82379448490221" type="curve" smooth="yes"/>
      <point x="391.82394384415642" y="242.91541901448991"/>
      <point x="328.08061730300784" y="308.50896265901639"/>
      <point x="327.72100234146416" y="405.67991044129468" type="curve"/>
      <point x="15.559943406966781" y="406.30844752303079" type="line"/>
      <point x="14.805598031932519" y="139.96256517861519"/>
      <point x="211.45512110518968" y="-15.805114926331665"/>
      <point x="468.58556275506078" y="-20.144507100086127" type="curve" smooth="yes"/>
      <point x="737.75808042762048" y="-24.687124104449193"/>
      <point x="1018.4203980493754" y="120.43155682318354"/>
      <point x="1033.3303309771452" y="416.62624874544753" type="curve" smooth="yes"/>
      <point x="1040.4237542637093" y="557.54132430054074"/>
      <point x="978.52318405989763" y="678.41947528670198"/>
      <point x="850.9839569205692" y="741.82016698237715" type="curve"/>
      <point x="987.58535643005723" y="806.31873593429168"/>
      <point x="1105.4356745358136" y="906.90485814562021"/>
      <point x="1114.7424724856014" y="1068.1213502783887" type="curve" smooth="yes"/>
      <point x="1130.5433664433901" y="1341.8314609072195"/>
      <point x="908.97295225064431" y="1473.8163283975614"/>
      <point x="660.08916218195725" y="1477.5489051171678" type="curve" smooth="yes"/>
      <point x="417.79830357287972" y="1481.1826058815611"/>
      <point x="164.85016426469119" y="1344.1612363439058"/>
      <point x="153.35736005106759" y="1080.2045379070457" type="curve"/>
      <point x="469.48630634139693" y="1081.6475400358647" type="line"/>
      <point x="489.07713268590709" y="1169.7225663800236"/>
      <point x="568.39485722053178" y="1220.6440615650415"/>
      <point x="657.6382605608859" y="1219.002599973368" type="curve" smooth="yes"/>
      <point x="751.24543575087205" y="1217.2808751508237"/>
      <point x="807.97866363517437" y="1155.3086193687363"/>
      <point x="795.89740218317002" y="1061.9437957540383" type="curve" smooth="yes"/>
      <point x="779.79806359047871" y="937.52699424772368"/>
      <point x="687.07727943534758" y="870.15063911087259"/>
      <point x="565.81676144143796" y="867.88798038346272" type="curve" smooth="yes"/>
      <point x="425.41907584879641" y="868.90740663572899" type="line"/>
      <point x="385.67979860023075" y="618.28999279969673" type="line"/>
    </contour>
  </outline>
</glyph>
<glyph name="five" format="1">
  <advance width="1147.51"/>
  <unicode hex="0035"/>
  <outline>
    <contour>
      <point x="389.60693059846994" y="650.28035555702684" type="line"/>
      <point x="439.31587648601322" y="699.64979451199429"/>
      <point x="501.13937815944882" y="725.42085527636402"/>
      <point x="571.7878689080012" y="724.83607802848928" type="curve" smooth="yes"/>
      <point x="707.45166315942629" y="723.71315099355866"/>
      <point x="745.52979937653515" y="619.57984713168889"/>
      <point x="732.59233781685396" y="499.57877943230972" type="curve" smooth="yes"/>
      <point x="719.25059354756888" y="375.82779861581258"/>
      <point x="659.89976597875295" y="237.41658425539489"/>
      <point x="514.73579853735248" y="241.05166899777356" type="curve" smooth="yes"/>
      <point x="410.94497769454227" y="243.65071913324854"/>
      <point x="368.21140326877139" y="320.83437581631057"/>
      <point x="363.45791345532086" y="415.02812258287753" type="curve"/>
      <point x="51.536178700365312" y="415.36973641720698" type="line"/>
      <point x="52.171871133870511" y="158.87101812091743"/>
      <point x="249.98228432772007" y="-16.321215993515107"/>
      <point x="502.23210455542539" y="-21.187518240226172" type="curve" smooth="yes"/>
      <point x="795.36545443273826" y="-26.842529125095119"/>
      <point x="1022.9243325437394" y="184.43908760433737"/>
      <point x="1045.4737479939035" y="475.77801869511006" type="curve" smooth="yes"/>
      <point x="1065.3140868262517" y="732.11562179927364"/>
      <point x="944.78503696739426" y="957.95430217124726"/>
      <point x="664.13908218962752" y="956.58217804903575" type="curve" smooth="yes"/>
      <point x="595.22673448374917" y="956.24525427373908"/>
      <point x="520.02852508056606" y="939.91281869785826"/>
      <point x="461.4131231726285" y="902.33414827026979" type="curve"/>
      <point x="552.82403369860731" y="1193.9763891740208" type="line"/>
      <point x="1109.4358520080436" y="1194.0577183333346" type="line"/>
      <point x="1150.8672420138644" y="1455.9250670145216" type="line"/>
      <point x="331.40405698312998" y="1455.8699479310146" type="line"/>
      <point x="131.96293007769862" y="716.81304021532037" type="line"/>
    </contour>
  </outline>
</glyph>
<glyph name="six" format="1">
  <advance width="1147.51"/>
  <unicode hex="0036"/>
  <outline>
    <contour>
      <point x="1070.9864818933218" y="488.77794615498505" type="curve" smooth="yes"/>
      <point x="1089.6035482448672" y="722.38979391973805"/>
      <point x="993.24398694382148" y="977.21152811615843"/>
      <point x="724.58379891303093" y="981.45143815095594" type="curve" smooth="yes"/>
      <point x="613.54283383717438" y="983.20385150832601"/>
      <point x="514.62209926544051" y="940.02862554137016"/>
      <point x="436.22270504203129" y="862.84283607990369" type="curve"/>
      <point x="536.0463367192375" y="1086.0563213278585"/>
      <point x="712.69003839998163" y="1216.6836481760658"/>
      <point x="962.93823234135368" y="1212.0731896010575" type="curve" smooth="yes"/>
      <point x="975.32139652448507" y="1211.6058879163434" type="line"/>
      <point x="999.5933882896735" y="1478.1117616279937" type="line"/>
      <point x="943.26695027440371" y="1477.8558685135863" type="line" smooth="yes"/>
      <point x="479.89030240830465" y="1473.9241918029709"/>
      <point x="155.81992225793624" y="1137.9764873023069"/>
      <point x="97.827715697817538" y="688.69550730213939" type="curve" smooth="yes"/>
      <point x="82.875873735712261" y="565.75144776510353" type="line" smooth="yes"/>
      <point x="51.897129732132044" y="267.11451034947243"/>
      <point x="197.10828379454006" y="-14.673864145354987"/>
      <point x="524.5323327581599" y="-20.671653244943016" type="curve" smooth="yes"/>
      <point x="817.10020551796174" y="-26.030943143417666"/>
      <point x="1048.0744349853176" y="201.27155211953544"/>
    </contour>
    <contour>
      <point x="391.25294446091982" y="514.98036058549599" type="curve" smooth="yes"/>
      <point x="405.50224776761866" y="612.88018973854082" type="line"/>
      <point x="454.42332477531897" y="680.04929301949073"/>
      <point x="523.09255854553453" y="727.18184438250012"/>
      <point x="609.32546943151362" y="725.08134784324329" type="curve" smooth="yes"/>
      <point x="735.81823983012544" y="722.0001851672597"/>
      <point x="767.79337530346061" y="595.66479638279429"/>
      <point x="755.8001346445086" y="489.99853278775453" type="curve" smooth="yes"/>
      <point x="742.57899276118894" y="373.51386421508573"/>
      <point x="665.32374154097067" y="236.78841702123117"/>
      <point x="532.25575642326396" y="239.67884100310732" type="curve" smooth="yes"/>
      <point x="384.25718580503633" y="242.89357832268064"/>
      <point x="377.78569450886249" y="402.03874608655104"/>
    </contour>
  </outline>
</glyph>
<glyph name="seven" format="1">
  <advance width="1147.51"/>
  <unicode hex="0037"/>
  <outline>
    <contour>
      <point x="1200.2108776300011" y="1455.8980553234205" type="line"/>
      <point x="186.31043326157248" y="1455.940507728046" type="line"/>
      <point x="145.20713934406155" y="1196.0656598582723" type="line"/>
      <point x="825.66008264028744" y="1193.9634919109349" type="line"/>
      <point x="99.469477748017127" y="0.0" type="line"/>
      <point x="445.9969193527121" y="0.0" type="line"/>
      <point x="1169.4261609680686" y="1259.3051988125401" type="line"/>
    </contour>
  </outline>
</glyph>
<glyph name="nine" format="1">
  <advance width="1147.51"/>
  <unicode hex="0039"/>
  <outline>
    <contour>
      <point x="1082.7028690881277" y="765.27948424143915" type="curve" smooth="yes"/>
      <point x="1096.8634859979404" y="881.24542469282108" type="line" smooth="yes"/>
      <point x="1126.6644146241854" y="1166.9853495422799"/>
      <point x="1006.5181318299299" y="1471.2343931671578"/>
      <point x="680.47239338328086" y="1477.5180675502024" type="curve" smooth="yes"/>
      <point x="384.6027424896327" y="1483.2201771833422"/>
      <point x="157.15339464709058" y="1235.2084277372228"/>
      <point x="134.23270575413505" y="949.83251174838517" type="curve" smooth="yes"/>
      <point x="114.88666403372441" y="708.96303341358464"/>
      <point x="224.45797912241528" y="467.06074814031706"/>
      <point x="495.13954381208362" y="465.16166152344681" type="curve" smooth="yes"/>
      <point x="589.95245855991902" y="464.49645945211068"/>
      <point x="673.27086002092335" y="505.12613773173337"/>
      <point x="743.40462959786771" y="566.38307420146771" type="curve"/>
      <point x="652.65441819219802" y="342.22390404170835"/>
      <point x="484.99667288875457" y="245.75930667214638"/>
      <point x="244.36721834892273" y="249.89892287478884" type="curve" smooth="yes"/>
      <point x="229.98828472564173" y="250.37584510868305" type="line"/>
      <point x="204.99081500698981" y="-21.243845282877114" type="line"/>
      <point x="236.80310349367562" y="-21.110648441892735" type="line" smooth="yes"/>
      <point x="714.8175215724541" y="-16.630954412134649"/>
      <point x="1022.7198284606545" y="300.083027432731"/>
    </contour>
    <contour>
      <point x="449.41809833048819" y="949.22507359024053" type="curve" smooth="yes"/>
      <point x="461.90247169044358" y="1059.4268382679422"/>
      <point x="529.72541904509455" y="1220.0504395796568"/>
      <point x="662.5197645231757" y="1217.8763697092661" type="curve" smooth="yes"/>
      <point x="802.63653145481271" y="1215.5824193138187"/>
      <point x="802.55714138008136" y="1044.7359511767172"/>
      <point x="790.94414516587256" y="943.92868593796413" type="curve" smooth="yes"/>
      <point x="770.75656847110133" y="807.38586919884813" type="line"/>
      <point x="725.16610708509654" y="748.27082378516741"/>
      <point x="665.16837068480868" y="705.5863641474723"/>
      <point x="587.31160913618464" y="707.25045533378557" type="curve" smooth="yes"/>
      <point x="458.96746366212722" y="709.99365139087945"/>
      <point x="437.81591665984763" y="846.81057048694333"/>
    </contour>
  </outline>
</glyph>
<glyph name="less" format="1">
  <advance width="1012.68"/>
  <unicode hex="003C"/>
  <outline>
    <contour>
      <point x="817.20427846995608" y="125.20646415881859" type="line"/>
      <point x="868.4604118330127" y="418.35751490657066" type="line"/>
      <point x="362.10211596193557" y="603.2033371992826" type="line"/>
      <point x="932.64700313074536" y="791.68520005199343" type="line"/>
      <point x="988.90139327688553" y="1111.9997863564167" type="line"/>
      <point x="72.938912616531084" y="751.39223269327556" type="line"/>
      <point x="26.666616605959987" y="485.90023071368807" type="line"/>
    </contour>
  </outline>
</glyph>
<glyph name="equal" format="1">
  <advance width="1155.27"/>
  <unicode hex="003D"/>
  <outline>
    <contour>
      <point x="1083.4882746254516" y="981.90675410371784" type="line"/>
      <point x="192.65578436352132" y="981.92459997910942" type="line"/>
      <point x="147.05260255935536" y="722.09250668004267" type="line"/>
      <point x="1037.8850928212671" y="722.07466080462143" type="line"/>
    </contour>
    <contour>
      <point x="1007.4308086780461" y="542.90694454735444" type="line"/>
      <point x="116.59831841616641" y="542.92479042276591" type="line"/>
      <point x="70.995136611985586" y="283.09269712366341" type="line"/>
      <point x="961.82762687386094" y="283.07485124824979" type="line"/>
    </contour>
  </outline>
</glyph>
<glyph name="at" format="1">
  <advance width="1778.98"/>
  <unicode hex="0040"/>
  <outline>
    <contour>
      <point x="1067.9360588416748" y="-366.86166643113086" type="curve"/>
      <point x="1039.2713552859129" y="-196.79100545083179" type="line"/>
      <point x="931.00488051073739" y="-236.5577492765857"/>
      <point x="816.12677921848081" y="-263.12011875007261"/>
      <point x="700.22954662614541" y="-262.1525324045233" type="curve" smooth="yes"/>
      <point x="275.35918543745618" y="-258.60543511048519"/>
      <point x="182.98992934872629" y="87.686517791813856"/>
      <point x="253.53591209954607" y="451.73197062732396" type="curve" smooth="yes"/>
      <point x="329.57627010428496" y="844.13059467637072"/>
      <point x="623.27440853243365" y="1245.8474425925488"/>
      <point x="1059.016051834029" y="1238.2317378888658" type="curve" smooth="yes"/>
      <point x="1473.4111883063558" y="1230.9891182344682"/>
      <point x="1564.4383901625499" y="901.84403349280183"/>
      <point x="1501.9809412915263" y="546.0465144563201" type="curve" smooth="yes"/>
      <point x="1479.2591623960598" y="416.60874994248485"/>
      <point x="1407.2536095343935" y="142.45188729574332"/>
      <point x="1228.9931878401528" y="152.16969903658827" type="curve" smooth="yes"/>
      <point x="1148.6939423403458" y="156.54718756310749"/>
      <point x="1151.92121438243" y="227.90335377187722"/>
      <point x="1164.3723784693557" y="290.58603289764415" type="curve" smooth="yes"/>
      <point x="1300.5347641005851" y="881.75162722475204" type="line"/>
      <point x="1204.7788755203383" y="944.24594012342209"/>
      <point x="1117.8972049989825" y="988.92196112573538"/>
      <point x="1000.3004922877114" y="990.93728798148777" type="curve" smooth="yes"/>
      <point x="700.20045215844084" y="996.08028608356756"/>
      <point x="511.84486969797661" y="691.68153340525964"/>
      <point x="463.89455612816653" y="428.41753940507164" type="curve" smooth="yes"/>
      <point x="431.29293932339021" y="249.42325945331569"/>
      <point x="467.2102161356525" y="-12.060118126579194"/>
      <point x="697.53549536083699" y="-17.393357927642118" type="curve" smooth="yes"/>
      <point x="809.28689043913278" y="-19.980989602553407"/>
      <point x="894.33188832209544" y="35.957714114221645"/>
      <point x="966.36097389907127" y="116.28865119556281" type="curve"/>
      <point x="999.46873521699069" y="23.03148241726096"/>
      <point x="1090.3888616606589" y="-19.469677782139208"/>
      <point x="1185.149744407963" y="-21.676403584218605" type="curve" smooth="yes"/>
      <point x="1500.5439558938019" y="-29.021085526115005"/>
      <point x="1651.7427363874772" y="286.88908618044229"/>
      <point x="1694.7690575133804" y="555.56182037565429" type="curve" smooth="yes"/>
      <point x="1768.5296041530721" y="1016.1507627449032"/>
      <point x="1551.9423878933844" y="1403.7323750226981"/>
      <point x="1054.1625291800754" y="1409.9491115276933" type="curve" smooth="yes"/>
      <point x="513.93765422606441" y="1416.6959407580164"/>
      <point x="127.55584417058293" y="955.60400766157886"/>
      <point x="42.881738314928796" y="452.53382628703764" type="curve" smooth="yes"/>
      <point x="-40.350034820787783" y="-41.967093260772742"/>
      <point x="164.68118959516232" y="-448.31887834917438"/>
      <point x="703.12139319726475" y="-452.90816349901456" type="curve" smooth="yes"/>
      <point x="823.66665323993561" y="-453.93560641300297"/>
      <point x="965.79925810181976" y="-435.77526559124686"/>
    </contour>
    <contour>
      <point x="705.88454640520183" y="427.79878454529432" type="curve" smooth="yes"/>
      <point x="738.30141646092125" y="591.71445131984797"/>
      <point x="819.50841923431221" y="808.63527680236507"/>
      <point x="1021.1419891275923" y="802.37897696398545" type="curve" smooth="yes"/>
      <point x="1040.7091398893006" y="801.77184610669406"/>
      <point x="1059.293800255017" y="798.44743252987917"/>
      <point x="1078.218677972148" y="793.92646598618785" type="curve"/>
      <point x="957.82034705377396" y="334.91409663835134" type="line"/>
      <point x="932.92557413419161" y="265.54311484795915"/>
      <point x="860.20641526163831" y="164.15330236167569"/>
      <point x="775.4756352335321" y="169.5300399423561" type="curve" smooth="yes"/>
      <point x="658.32813519229182" y="176.96383632361872"/>
      <point x="691.32789274290712" y="354.19317157402293"/>
    </contour>
  </outline>
</glyph>
<glyph name="F" format="1">
  <advance width="1087.37"/>
  <unicode hex="0046"/>
  <outline>
    <contour>
      <point x="266.71034237344355" y="291" type="move" name="cross"/>
    </contour>
    <contour>
      <point x="796.62544827856004" y="1612" type="move" name="top"/>
    </contour>
    <contour>
      <point x="413.12858252534534" y="10" type="move" name="bottom"/>
    </contour>
    <contour>
      <point x="1260.1520635163638" y="1600" type="move" name="top_dd"/>
    </contour>
    <contour>
      <point x="913.37846203902154" y="-407" type="move" name="bottom_dd"/>
    </contour>
    <contour>
      <point x="1262.22544827856" y="1612" type="move" name="top0315"/>
    </contour>
    <contour>
      <point x="8.4718445409211967" y="0.0" type="line"/>
      <point x="335.72942359930772" y="0.0" type="line"/>
      <point x="436.59119115778901" y="579.92014492246619" type="line"/>
      <point x="988.05022427812082" y="580.06955397888203" type="line"/>
      <point x="1035.4112923837829" y="849.91095232778446" type="line"/>
      <point x="482.94495884943979" y="850.06162916790436" type="line"/>
      <point x="541.4583969776545" y="1184.9155947471338" type="line"/>
      <point x="1153.0079698353477" y="1185.0697130207755" type="line"/>
      <point x="1200.5442732014608" y="1455.9078326407064" type="line"/>
      <point x="261.09831301065111" y="1455.9398302694131" type="line"/>
    </contour>
  </outline>
</glyph>
<glyph name="H" format="1">
  <advance width="1398.74"/>
  <unicode hex="0048"/>
  <outline>
    <contour>
      <point x="877.00206351636382" y="1600" type="move" name="top"/>
    </contour>
    <contour>
      <point x="1178.6707618901817" y="0" type="move" name="right"/>
    </contour>
    <contour>
      <point x="50.037536052425551" y="1451" type="move" name="tonos"/>
    </contour>
    <contour>
      <point x="605.1885825253454" y="10" type="move" name="bottom"/>
    </contour>
    <contour>
      <point x="1571.5220635163637" y="1600" type="move" name="top_dd"/>
    </contour>
    <contour>
      <point x="1224.7484620390217" y="-407" type="move" name="bottom_dd"/>
    </contour>
    <contour>
      <point x="1571.5220635163637" y="1600" type="move" name="top0315"/>
    </contour>
    <contour>
      <point x="855.27850126826149" y="0.0" type="line"/>
      <point x="1181.5708644253261" y="0.0" type="line"/>
      <point x="1434.2142886062586" y="1455.92869665129" type="line"/>
      <point x="1107.9254534260594" y="1455.9451978799279" type="line"/>
      <point x="1007.4133695619912" y="878.07720240351637" type="line"/>
      <point x="487.85077453557835" y="878.05825832740697" type="line"/>
      <point x="588.37589559134562" y="1455.9268711949028" type="line"/>
      <point x="261.11369667011542" y="1455.9471333079164" type="line"/>
      <point x="8.4702737438986162" y="0.0" type="line"/>
      <point x="335.72843238965004" y="0.0" type="line"/>
      <point x="441.43960677764346" y="607.92093270602072" type="line"/>
      <point x="961.00169435624935" y="607.93985508489345" type="line"/>
    </contour>
  </outline>
</glyph>
<glyph name="I" format="1">
  <advance width="593.64"/>
  <unicode hex="0049"/>
  <outline>
    <contour>
      <point x="468.63206351636381" y="1600" type="move" name="top"/>
    </contour>
    <contour>
      <point x="193.15076189018174" y="0" type="move" name="bottom"/>
    </contour>
    <contour>
      <point x="51.074228433523743" y="1457" type="move" name="tonos"/>
    </contour>
    <contour>
      <point x="347.38076189018176" y="0" type="move" name="right"/>
    </contour>
    <contour>
      <point x="290.15076189018174" y="0" type="move" name="ogonek"/>
    </contour>
    <contour>
      <point x="766.42206351636378" y="1600" type="move" name="top_dd"/>
    </contour>
    <contour>
      <point x="419.64846203902164" y="-407" type="move" name="bottom_dd"/>
    </contour>
    <contour>
      <point x="766.42206351636378" y="1600" type="move" name="top0315"/>
    </contour>
    <contour>
      <point x="608.74217397811879" y="1455.9281892521035" type="line"/>
      <point x="282.45392597560135" y="1455.9466016286688" type="line"/>
      <point x="29.813477011866198" y="0.0" type="line"/>
      <point x="356.10172501434852" y="0.0" type="line"/>
    </contour>
  </outline>
</glyph>
<glyph name="J" format="1">
  <advance width="1114.53"/>
  <unicode hex="004A"/>
  <outline>
    <contour>
      <point x="1005.0420635163637" y="1600" type="move" name="top"/>
    </contour>
    <contour>
      <point x="391.24294125501808" y="-10" type="move" name="bottom"/>
    </contour>
    <contour>
      <point x="1287.3120635163637" y="1600" type="move" name="top_dd"/>
    </contour>
    <contour>
      <point x="940.53846203902162" y="-407" type="move" name="bottom_dd"/>
    </contour>
    <contour>
      <point x="1287.3120635163637" y="1600" type="move" name="top0315"/>
    </contour>
    <contour>
      <point x="655.20589186485347" y="456.54474113667862" type="line" smooth="yes"/>
      <point x="637.70627451295206" y="350.73345069725474"/>
      <point x="576.63115524841783" y="246.12110417779516"/>
      <point x="456.42914831877977" y="248.80175164673389" type="curve" smooth="yes"/>
      <point x="338.26300861010287" y="251.43699685948434"/>
      <point x="325.51008788611227" y="339.3088180926967"/>
      <point x="331.10337585763546" y="440.17948373720384" type="curve"/>
      <point x="2.5173632121495473" y="441.21194850472506" type="line"/>
      <point x="-4.5423798963349089" y="159.46495169524633"/>
      <point x="150.54287686595978" y="-15.842529940964944"/>
      <point x="436.62492670717279" y="-20.50772215571056" type="curve" smooth="yes"/>
      <point x="726.04830138519969" y="-25.227401964572245"/>
      <point x="944.1565391548603" y="174.29000652326033"/>
      <point x="982.24479419491831" y="457.07864879596684" type="curve" smooth="yes"/>
      <point x="1151.9618983309106" y="1455.9276521593831" type="line"/>
      <point x="825.67254512520992" y="1455.9449949132033" type="line"/>
    </contour>
  </outline>
</glyph>
<glyph name="K" format="1">
  <advance width="1267.79"/>
  <unicode hex="004B"/>
  <outline>
    <contour>
      <point x="534.04821125654894" y="53" type="move" name="bottom"/>
    </contour>
    <contour>
      <point x="1058.3907618901817" y="0" type="move" name="right"/>
    </contour>
    <contour>
      <point x="348.54878969772733" y="1225" type="move" name="cross"/>
    </contour>
    <contour>
      <point x="748.96206351636374" y="1600" type="move" name="top"/>
    </contour>
    <contour>
      <point x="1440.5720635163639" y="1600" type="move" name="top_dd"/>
    </contour>
    <contour>
      <point x="1093.7984620390216" y="-407" type="move" name="bottom_dd"/>
    </contour>
    <contour>
      <point x="1440.5720635163639" y="1600" type="move" name="top0315"/>
    </contour>
    <contour>
      <point x="807.49883234652066" y="0.0" type="line"/>
      <point x="1179.9749621939175" y="0.0" type="line"/>
      <point x="832.95206127589006" y="792.30333360470252" type="line"/>
      <point x="1444.2048161644868" y="1455.5296729402755" type="line"/>
      <point x="1017.7339540618625" y="1455.6069434289113" type="line"/>
      <point x="622.55445452633842" y="1005.4894440644401" type="line"/>
      <point x="479.82389977115577" y="834.36895583698561" type="line"/>
      <point x="588.36237380308148" y="1455.9224220481183" type="line"/>
      <point x="261.11800447500718" y="1455.9486538136741" type="line"/>
      <point x="8.4714581228426908" y="0.0" type="line"/>
      <point x="335.71084167457423" y="0.0" type="line"/>
      <point x="400.64101722331679" y="375.01992176544536" type="line"/>
      <point x="585.38758210384015" y="547.50878700148519" type="line"/>
    </contour>
  </outline>
</glyph>
<glyph name="L" format="1">
  <advance width="1076.7"/>
  <unicode hex="004C"/>
  <outline>
    <contour>
      <point x="457.96206351636374" y="1600" type="move" name="top"/>
    </contour>
    <contour>
      <point x="475.20858252534538" y="10" type="move" name="bottom"/>
    </contour>
    <contour>
      <point x="801.68144637000739" y="1456" type="move" name="caron"/>
    </contour>
    <contour>
      <point x="623.87995175205822" y="848" type="move" name="dot"/>
    </contour>
    <contour>
      <point x="1249.4820635163637" y="1600" type="move" name="top_dd"/>
    </contour>
    <contour>
      <point x="902.7084620390217" y="-407" type="move" name="bottom_dd"/>
    </contour>
    <contour>
      <point x="1249.4820635163637" y="1600" type="move" name="top0315"/>
    </contour>
    <contour>
      <point x="983.42448169457475" y="269.91006853163026" type="line"/>
      <point x="382.51641744124345" y="270.05378359161006" type="line"/>
      <point x="588.3746162196752" y="1455.9272589447364" type="line"/>
      <point x="261.11413199089316" y="1455.9457759372572" type="line"/>
      <point x="8.4867015379178383" y="0.0" type="line"/>
      <point x="936.06736566362974" y="0.0" type="line"/>
    </contour>
  </outline>
</glyph>
<glyph name="M" format="1">
  <advance width="1741.1499999999999"/>
  <unicode hex="004D"/>
  <outline>
    <contour>
      <point x="1038.9920635163637" y="1600" type="move" name="top"/>
    </contour>
    <contour>
      <point x="1519.1407618901817" y="0" type="move" name="right"/>
    </contour>
    <contour>
      <point x="767.1785825253454" y="10" type="move" name="bottom"/>
    </contour>
    <contour>
      <point x="1913.9320635163635" y="1600" type="move" name="top_dd"/>
    </contour>
    <contour>
      <point x="1567.1584620390215" y="-407" type="move" name="bottom_dd"/>
    </contour>
    <contour>
      <point x="1913.9320635163635" y="1600" type="move" name="top0315"/>
    </contour>
    <contour>
      <point x="835.83025981715514" y="446.41082896508073" type="line"/>
      <point x="682.70250624154107" y="1456.0346387304926" type="line"/>
      <point x="261.10544758272681" y="1455.9433665866575" type="line"/>
      <point x="8.4755449834492396" y="0.0" type="line"/>
      <point x="335.70642514320753" y="0.0" type="line"/>
      <point x="391.5743258934159" y="320.99046170408047" type="line"/>
      <point x="488.17859289558714" y="1070.8782042839093" type="line"/>
      <point x="662.14909612260203" y="0.0" type="line"/>
      <point x="881.45069292168455" y="0.0" type="line"/>
      <point x="1407.6745600459342" y="1034.1269198782873" type="line"/>
      <point x="1257.0965270454958" y="358.69779561277556" type="line"/>
      <point x="1194.774619945309" y="0.0" type="line"/>
      <point x="1523.0079442163044" y="0.0" type="line"/>
      <point x="1775.6434480222938" y="1455.9289088888124" type="line"/>
      <point x="1340.2818409498163" y="1455.7597817065648" type="line"/>
    </contour>
  </outline>
</glyph>
<glyph name="N" format="1">
  <advance width="1397.77"/>
  <unicode hex="004E"/>
  <outline>
    <contour>
      <point x="877.00206351636382" y="1600" type="move" name="top"/>
    </contour>
    <contour>
      <point x="600.55076189018178" y="0" type="move" name="bottom"/>
    </contour>
    <contour>
      <point x="1177.7007618901816" y="0" type="move" name="right"/>
    </contour>
    <contour>
      <point x="1570.5520635163639" y="1600" type="move" name="top_dd"/>
    </contour>
    <contour>
      <point x="1223.7784620390216" y="-407" type="move" name="bottom_dd"/>
    </contour>
    <contour>
      <point x="1570.5520635163639" y="1600" type="move" name="top0315"/>
    </contour>
    <contour>
      <point x="1433.242834844807" y="1455.9274547211351" type="line"/>
      <point x="1106.9510685106427" y="1455.9445882687467" type="line"/>
      <point x="946.96187118185503" y="536.09555615101101" type="line"/>
      <point x="577.74185075425578" y="1455.9706429052187" type="line"/>
      <point x="261.10713002010431" y="1455.9577943277068" type="line"/>
      <point x="8.4733077044189571" y="0.0" type="line"/>
      <point x="335.73506649155223" y="0.0" type="line"/>
      <point x="495.7230017376869" y="919.85208395449638" type="line"/>
      <point x="864.93994894207242" y="0.0" type="line"/>
      <point x="1180.6040756033271" y="0.0" type="line"/>
    </contour>
  </outline>
</glyph>
<glyph name="T" format="1">
  <advance width="1245.48"/>
  <unicode hex="0054"/>
  <outline>
    <contour>
      <point x="787.76206351636381" y="1600" type="move" name="top"/>
    </contour>
    <contour>
      <point x="513.03858252534542" y="10" type="move" name="bottom"/>
    </contour>
    <contour>
      <point x="637.41076189018167" y="0" type="move" name="right"/>
    </contour>
    <contour>
      <point x="624.79536159250176" y="814" type="move" name="cross"/>
    </contour>
    <contour>
      <point x="1418.2620635163639" y="1600" type="move" name="top_dd"/>
    </contour>
    <contour>
      <point x="1071.4884620390217" y="-407" type="move" name="bottom_dd"/>
    </contour>
    <contour>
      <point x="1418.2620635163639" y="1600" type="move" name="top0315"/>
    </contour>
    <contour>
      <point x="137.04612176480322" y="1185.0924292667225" type="line"/>
      <point x="556.56028669789259" y="1184.9454416383294" type="line"/>
      <point x="350.87856897357437" y="0.0" type="line"/>
      <point x="678.14229723849735" y="0.0" type="line"/>
      <point x="883.81219962016451" y="1184.9241759995023" type="line"/>
      <point x="1310.1521625053347" y="1185.074816652384" type="line"/>
      <point x="1357.6819393114845" y="1455.9059302899745" type="line"/>
      <point x="184.57931554843128" y="1455.9229331322069" type="line"/>
    </contour>
  </outline>
</glyph>
<glyph name="W" format="1">
  <advance width="1730.48"/>
  <unicode hex="0057"/>
  <outline>
    <contour>
      <point x="1024.9203292216191" y="1600" type="move" name="top"/>
    </contour>
    <contour>
      <point x="772.34780575924481" y="10" type="move" name="bottom"/>
    </contour>
    <contour>
      <point x="1886.280329221619" y="1600" type="move" name="top_dd"/>
    </contour>
    <contour>
      <point x="1573.5890684738299" y="-407" type="move" name="bottom_dd"/>
    </contour>
    <contour>
      <point x="1886.280329221619" y="1600" type="move" name="top0315"/>
    </contour>
    <contour>
      <point x="1841.2614775975155" y="1455.7981575600325" type="line"/>
      <point x="1510.0576298703586" y="1455.8688778556873" type="line"/>
      <point x="1187.7193798072635" y="486.4907226472609" type="line"/>
      <point x="1132.2574901776588" y="1456.0485069584915" type="line"/>
      <point x="854.55443332866594" y="1455.8259483166416" type="line"/>
      <point x="498.48683021850024" y="489.96188513394532" type="line"/>
      <point x="480.11157313005549" y="1456.006380146433" type="line"/>
      <point x="161.79703543685366" y="1456.0133428489114" type="line"/>
      <point x="238.94771163652274" y="0.0" type="line"/>
      <point x="574.93898479391135" y="0.0" type="line"/>
      <point x="913.2406321446424" y="889.56903749076491" type="line"/>
      <point x="974.45130929518007" y="0.0" type="line"/>
      <point x="1310.0607787838521" y="0.0" type="line"/>
    </contour>
  </outline>
</glyph>
<glyph name="X" format="1">
  <advance width="1266.82"/>
  <unicode hex="0058"/>
  <outline>
    <contour>
      <point x="543.8600087222394" y="19" type="move" name="bottom"/>
    </contour>
    <contour>
      <point x="1008.4398024670287" y="0" type="move" name="right"/>
    </contour>
    <contour>
      <point x="652.62364674946991" y="742" type="move" name="cross"/>
    </contour>
    <contour>
      <point x="776.52993317227833" y="1612" type="move" name="top"/>
    </contour>
    <contour>
      <point x="1422.6203292216189" y="1600" type="move" name="top_dd"/>
    </contour>
    <contour>
      <point x="1109.9290684738298" y="-407" type="move" name="bottom_dd"/>
    </contour>
    <contour>
      <point x="1424.4899331722784" y="1612" type="move" name="top0315"/>
    </contour>
    <contour>
      <point x="518.66525417995024" y="1456.035104342187" type="line"/>
      <point x="158.28363139342645" y="1454.6973566847439" type="line"/>
      <point x="443.11130161163032" y="749.93323474501926" type="line"/>
      <point x="-93.981255070734491" y="0.0" type="line"/>
      <point x="300.69384432248074" y="0.0" type="line"/>
      <point x="625.24099973427678" y="490.86266794986085" type="line"/>
      <point x="795.35368033529824" y="0.0" type="line"/>
      <point x="1159.3930723139383" y="0.0" type="line"/>
      <point x="865.9941921942293" y="718.00121616510467" type="line"/>
      <point x="1390.4147450952489" y="1455.6064986833157" type="line"/>
      <point x="999.64428321753724" y="1455.6912981996381" type="line"/>
      <point x="683.4414720761099" y="974.10080442520825" type="line"/>
    </contour>
  </outline>
</glyph>
<glyph name="Y" format="1">
  <advance width="1241.6"/>
  <unicode hex="0059"/>
  <outline>
    <contour>
      <point x="794.55206351636377" y="1600" type="move" name="top"/>
    </contour>
    <contour>
      <point x="523.31151887545082" y="47" type="move" name="bottom"/>
    </contour>
    <contour>
      <point x="625.37112825406541" y="604" type="move" name="cross"/>
    </contour>
    <contour>
      <point x="77.715882242974644" y="1454" type="move" name="tonos"/>
    </contour>
    <contour>
      <point x="1414.3820635163638" y="1600" type="move" name="top_dd"/>
    </contour>
    <contour>
      <point x="1067.6084620390216" y="-407" type="move" name="bottom_dd"/>
    </contour>
    <contour>
      <point x="1414.3820635163638" y="1600" type="move" name="top0315"/>
    </contour>
    <contour>
      <point x="492.06659610186955" y="1456.0960307915773" type="line"/>
      <point x="149.19735059332459" y="1454.8342637399955" type="line"/>
      <point x="445.280022314863" y="541.69965820551226" type="line"/>
      <point x="350.8617547971985" y="0.0" type="line"/>
      <point x="682.97120569546018" y="0.0" type="line"/>
      <point x="770.47371896460231" y="504.87328524095483" type="line"/>
      <point x="1402.4130707343179" y="1455.6234914827401" type="line"/>
      <point x="1030.9874927507217" y="1455.7084413204968" type="line"/>
      <point x="651.77289732250586" y="826.41741100502338" type="line"/>
    </contour>
  </outline>
</glyph>
<glyph name="Z" format="1">
  <advance width="1209.59"/>
  <unicode hex="005A"/>
  <outline>
    <contour>
      <point x="787.76206351636381" y="1600" type="move" name="top"/>
    </contour>
    <contour>
      <point x="513.03858252534542" y="10" type="move" name="bottom"/>
    </contour>
    <contour>
      <point x="1382.3720635163636" y="1600" type="move" name="top_dd"/>
    </contour>
    <contour>
      <point x="1035.5984620390216" y="-407" type="move" name="bottom_dd"/>
    </contour>
    <contour>
      <point x="1382.3720635163636" y="1600" type="move" name="top0315"/>
    </contour>
    <contour>
      <point x="164.20987231063475" y="1185.0901472388971" type="line"/>
      <point x="839.99431094363024" y="1182.700565172282" type="line"/>
      <point x="-3.0376469587390744" y="201.44411847177719" type="line"/>
      <point x="-38.037759754000774" y="0.0" type="line"/>
      <point x="1056.3443576113314" y="0.0" type="line"/>
      <point x="1103.7001248606605" y="269.90990547458802" type="line"/>
      <point x="425.85972875517473" y="272.29559160655151" type="line"/>
      <point x="1265.1818184366462" y="1259.4644794336882" type="line"/>
      <point x="1299.3362109542036" y="1455.8567903418177" type="line"/>
      <point x="211.74202869684768" y="1455.9220257665925" type="line"/>
    </contour>
  </outline>
</glyph>
<glyph name="backslash" format="1">
  <advance width="844.87"/>
  <unicode hex="005C"/>
  <outline>
    <contour>
      <point x="455.58353884832093" y="-125.06609041332051" type="line"/>
      <point x="772.89966533628012" y="-124.18511590613977" type="line"/>
      <point x="453.24188962655433" y="1456.0424995902245" type="line"/>
      <point x="136.85823623142983" y="1455.2003949881023" type="line"/>
    </contour>
  </outline>
</glyph>
<glyph name="asciicircum" format="1">
  <advance width="882.6999999999999"/>
  <unicode hex="005E"/>
  <outline>
    <contour>
      <point x="51.518249964241292" y="729.31540062756471" type="line"/>
      <point x="306.92926496533022" y="729.23320350686072" type="line"/>
      <point x="550.91677467345903" y="1178.1845242172808" type="line"/>
      <point x="637.72290935771559" y="729.17654474154301" type="line"/>
      <point x="863.91708773645223" y="728.81352180810939" type="line"/>
      <point x="699.8931255117958" y="1456.1059962674119" type="line"/>
      <point x="468.03664956649618" y="1455.7248292101276" type="line"/>
    </contour>
  </outline>
</glyph>
<glyph name="a" format="1">
  <advance width="1058.27"/>
  <unicode hex="0061"/>
  <outline>
    <contour>
      <point x="643.01962382629097" y="1290" type="move" name="top"/>
    </contour>
    <contour>
      <point x="353.12196728754174" y="22" type="move" name="bottom"/>
    </contour>
    <contour>
      <point x="851.78076189018168" y="0" type="move" name="ogonek"/>
    </contour>
    <contour>
      <point x="789.48962382629099" y="1290" type="move" name="rhalfring"/>
    </contour>
    <contour>
      <point x="1231.0520635163639" y="1600" type="move" name="top_dd"/>
    </contour>
    <contour>
      <point x="884.27846203902163" y="-407" type="move" name="bottom_dd"/>
    </contour>
    <contour>
      <point x="839.65023142988355" y="654" type="move" name="rhotichook"/>
    </contour>
    <contour>
      <point x="1177.4896238262909" y="1290" type="move" name="top0315"/>
    </contour>
    <contour>
      <point x="606.73531824973952" y="0.0" type="curve"/>
      <point x="911.32382080764114" y="0.0" type="line"/>
      <point x="912.45236817061834" y="19.33999800746826" type="line"/>
      <point x="876.74986623335565" y="96.312419055107341"/>
      <point x="896.81876365846392" y="192.02834871106634"/>
      <point x="909.25572171106273" y="272.3161031650352" type="curve" smooth="yes"/>
      <point x="979.96975507838647" y="716.10647844318032" type="line"/>
      <point x="1002.8849525888879" y="959.34365953593976"/>
      <point x="823.93743842091305" y="1097.8899545851459"/>
      <point x="594.48596287915541" y="1102.4937809236119" type="curve" smooth="yes"/>
      <point x="373.59154612626492" y="1106.9259142601522"/>
      <point x="117.25912491112487" y="998.04183206064158"/>
      <point x="108.41026040831524" y="747.83465818288084" type="curve"/>
      <point x="424.63304812987133" y="749.07322229250599" type="line"/>
      <point x="439.59697051034169" y="825.12117556195619"/>
      <point x="488.75704758684776" y="870.59317641266489"/>
      <point x="569.15607913888937" y="868.09073437383108" type="curve" smooth="yes"/>
      <point x="657.95140312969318" y="865.32695541633666"/>
      <point x="677.55499927637766" y="798.27814306731671"/>
      <point x="663.35507606502495" y="720.84064868564099" type="curve" smooth="yes"/>
      <point x="649.13534430818288" y="659.75986770308111" type="line"/>
      <point x="532.78128098027594" y="661.41075202452691" type="line" smooth="yes"/>
      <point x="291.06479870584201" y="662.54307355657932"/>
      <point x="10.339307562494309" y="583.65734684130052"/>
      <point x="1.2559319563415272" y="296.97386985119232" type="curve" smooth="yes"/>
      <point x="-4.6266139588781909" y="111.31285684774286"/>
      <point x="145.30390068466988" y="-17.820241905080145"/>
      <point x="324.92398343970382" y="-20.469325342051871" type="curve" smooth="yes"/>
      <point x="433.27107957427017" y="-22.067256338473367"/>
      <point x="520.6672136983392" y="19.925665133648948"/>
      <point x="594.84639918074993" y="96.437732922857279" type="curve"/>
      <point x="595.1234217249114" y="62.695859354991093"/>
      <point x="597.94184124352603" y="32.58516264621845"/>
    </contour>
    <contour>
      <point x="406.25384481595302" y="217.86837631292371" type="curve" smooth="yes"/>
      <point x="348.71791730368443" y="219.71583970900838"/>
      <point x="311.69397355918215" y="255.23606474646533"/>
      <point x="320.26154942419271" y="314.05057126794361" type="curve" smooth="yes"/>
      <point x="336.57745595551376" y="426.05564787417575"/>
      <point x="437.96022656819832" y="479.04080492744959"/>
      <point x="541.97051940581298" y="481.80681466311518" type="curve" smooth="yes"/>
      <point x="628.67147043235821" y="481.17840925645311" type="line"/>
      <point x="595.15051729397942" y="307.19782510006786" type="line"/>
      <point x="546.79342727306255" y="252.78707956962219"/>
      <point x="481.28453870284261" y="215.45916060141363"/>
    </contour>
  </outline>
</glyph>
<glyph name="d" format="1">
  <advance width="1118.41"/>
  <unicode hex="0064"/>
  <outline>
    <contour>
      <point x="1296.6240114513164" y="1536" type="move" name="caron"/>
    </contour>
    <contour>
      <point x="927.08413684255288" y="1306" type="move" name="cross"/>
    </contour>
    <contour>
      <point x="457.96076189018174" y="0" type="move" name="bottom"/>
    </contour>
    <contour>
      <point x="637.41206351636379" y="1600" type="move" name="top"/>
    </contour>
    <contour>
      <point x="1291.1920635163638" y="1600" type="move" name="top_dd"/>
    </contour>
    <contour>
      <point x="944.41846203902173" y="-407" type="move" name="bottom_dd"/>
    </contour>
    <contour>
      <point x="1291.1920635163638" y="1600" type="move" name="top0315"/>
    </contour>
    <contour>
      <point x="637.22030840740661" y="0.0" type="line"/>
      <point x="916.87389159067777" y="0.0" type="line"/>
      <point x="1183.2711283312995" y="1535.9284324229366" type="line"/>
      <point x="867.72804886819893" y="1535.9322139425647" type="line"/>
      <point x="761.03175705583863" y="983.3826503126719" type="line"/>
      <point x="702.40137789107223" y="1058.1409535595012"/>
      <point x="622.7307281402625" y="1099.2468572394898"/>
      <point x="527.21791233893157" y="1101.9423578215115" type="curve" smooth="yes"/>
      <point x="216.50567125254997" y="1110.7110766542976"/>
      <point x="77.77497682874359" y="813.84671528665183"/>
      <point x="45.272490300324861" y="547.33980297847518" type="curve" smooth="yes"/>
      <point x="42.710686676440915" y="524.97481117835332" type="line" smooth="yes"/>
      <point x="17.762953851893911" y="285.55528827055059"/>
      <point x="88.847153030443337" y="-14.787111175978021"/>
      <point x="380.07307086198284" y="-20.524932998500134" type="curve" smooth="yes"/>
      <point x="494.48105106055647" y="-22.779033905253154"/>
      <point x="581.66098446566457" y="34.0224651012187"/>
      <point x="652.90337894366405" y="118.90648818415168" type="curve"/>
    </contour>
    <contour>
      <point x="357.83548391246893" y="526.09291044644363" type="curve" smooth="yes"/>
      <point x="359.97494193670707" y="546.56915607492249" type="line" smooth="yes"/>
      <point x="376.34874043736608" y="676.89295164526766"/>
      <point x="432.9339755539192" y="849.02403439783586"/>
      <point x="593.31212395266107" y="843.9504549301779" type="curve" smooth="yes"/>
      <point x="662.5411786076312" y="841.76038655883372"/>
      <point x="708.97097484209394" y="809.77359828685985"/>
      <point x="731.92140580053967" y="745.25863960085269" type="curve"/>
      <point x="657.74131339551627" y="337.40613383412995" type="line"/>
      <point x="611.02940303922219" y="277.76457349607557"/>
      <point x="552.42286673888225" y="236.80041236074655"/>
      <point x="473.43181866595864" y="239.86104869761107" type="curve" smooth="yes"/>
      <point x="330.51093787525497" y="245.39875014247457"/>
      <point x="347.29027461285017" y="426.27094158822638"/>
    </contour>
  </outline>
</glyph>
<glyph name="e" format="1">
  <advance width="1079.61"/>
  <unicode hex="0065"/>
  <outline>
    <contour>
      <point x="628.54802749213866" y="1291" type="move" name="top"/>
    </contour>
    <contour>
      <point x="459.4198024670286" y="0" type="move" name="bottom"/>
    </contour>
    <contour>
      <point x="758.78281398978527" y="35" type="move" name="ogonek"/>
    </contour>
    <contour>
      <point x="1235.4103292216189" y="1600" type="move" name="top_dd"/>
    </contour>
    <contour>
      <point x="922.71906847382968" y="-407" type="move" name="bottom_dd"/>
    </contour>
    <contour>
      <point x="900.81321777796734" y="654" type="move" name="rhotichook"/>
    </contour>
    <contour>
      <point x="1187.2680274921388" y="1291" type="move" name="top0315"/>
    </contour>
    <contour>
      <point x="946.37700212152356" y="167.47929015743125" type="curve"/>
      <point x="810.75846686649288" y="351.30496966012305" type="line"/>
      <point x="740.5289972818714" y="280.11967358548259"/>
      <point x="650.58174823901481" y="237.92348330916127"/>
      <point x="549.24370041575264" y="241.2576043118184" type="curve" smooth="yes"/>
      <point x="431.16490270887408" y="245.14251237803276"/>
      <point x="364.14787353091469" y="319.60686858625201"/>
      <point x="363.80305925913672" y="435.45165673970007" type="curve"/>
      <point x="1011.6226703414442" y="434.9736952441371" type="line"/>
      <point x="1030.2011428502228" y="572.19298551365694" type="line" smooth="yes"/>
      <point x="1060.3155697651762" y="853.62661488957178"/>
      <point x="922.75800747726566" y="1096.3280812296971"/>
      <point x="619.89330761756753" y="1102.2344074287034" type="curve" smooth="yes"/>
      <point x="292.61388791961673" y="1108.6168581132931"/>
      <point x="83.720462152872429" y="849.35009737263908"/>
      <point x="53.662935469185882" y="541.41824829494237" type="curve" smooth="yes"/>
      <point x="50.175279799497631" y="502.32477185576471" type="line" smooth="yes"/>
      <point x="27.38571650986621" y="207.0547545680609"/>
      <point x="222.97993762044018" y="-15.674319102863201"/>
      <point x="521.8993635701737" y="-20.012802050332034" type="curve" smooth="yes"/>
      <point x="675.85308657614655" y="-22.247269080497791"/>
      <point x="856.63182439738625" y="33.479615664359073"/>
    </contour>
    <contour>
      <point x="603.26685831069517" y="843.49517151075713" type="curve" smooth="yes"/>
      <point x="706.35766645488707" y="841.16128166510964"/>
      <point x="750.6345022533128" y="772.18680575938174"/>
      <point x="734.37829180436529" y="674.48277826378649" type="curve" smooth="yes"/>
      <point x="728.2051566905003" y="645.08479641467625" type="line"/>
      <point x="381.50504840197294" y="644.61810798149361" type="line"/>
      <point x="420.74384734078831" y="745.9585285268339"/>
      <point x="480.44203520095311" y="846.27582298308175"/>
    </contour>
  </outline>
</glyph>
<glyph name="g" format="1">
  <advance width="1140.72"/>
  <unicode hex="0067"/>
  <outline>
    <contour>
      <point x="656.59962382629101" y="1290" type="move" name="top"/>
    </contour>
    <contour>
      <point x="356.47717949836715" y="-447" type="move" name="bottom"/>
    </contour>
    <contour>
      <point x="1313.5020635163637" y="1600" type="move" name="top_dd"/>
    </contour>
    <contour>
      <point x="966.72846203902168" y="-407" type="move" name="bottom_dd"/>
    </contour>
    <contour>
      <point x="1259.9396238262912" y="1290" type="move" name="top0315"/>
    </contour>
    <contour>
      <point x="949.73976765957218" y="42.12194106676462" type="curve" smooth="yes"/>
      <point x="1126.8395863472081" y="1081.8487883009543" type="line"/>
      <point x="837.11393252666437" y="1083.2691114705303" type="line"/>
      <point x="800.71998254650111" y="982.34251981707041" type="line"/>
      <point x="741.03194747639384" y="1065.3659127242306"/>
      <point x="650.71181264360587" y="1100.0020826929954"/>
      <point x="550.27069241845516" y="1102.4073202760403" type="curve" smooth="yes"/>
      <point x="239.63743426145459" y="1109.8459747373615"/>
      <point x="80.446047005803763" y="820.50837989221304"/>
      <point x="48.659334838790258" y="547.3416435444758" type="curve" smooth="yes"/>
      <point x="46.285375370159031" y="525.16067395528046" type="line" smooth="yes"/>
      <point x="22.498990056329461" y="281.25756088372458"/>
      <point x="110.05712426024053" y="-16.289178049977945"/>
      <point x="401.94004658457396" y="-19.991677108709315" type="curve" smooth="yes"/>
      <point x="503.25739206571865" y="-21.276875205569077"/>
      <point x="584.51249942096001" y="21.117795378372364"/>
      <point x="654.34440657432015" y="91.73744051014954" type="curve"/>
      <point x="641.64362927721811" y="40.09430594853653" type="line" smooth="yes"/>
      <point x="605.19141050384974" y="-97.219295609214115"/>
      <point x="503.89251741009502" y="-181.69750680951719"/>
      <point x="359.06372757653753" y="-178.48121339703684" type="curve" smooth="yes"/>
      <point x="266.09178141421398" y="-176.41653372712446"/>
      <point x="187.434147991918" y="-135.35417907469036"/>
      <point x="128.64815704552154" y="-64.813327794631974" type="curve"/>
      <point x="-21.874914901815927" y="-259.28542341957132" type="line"/>
      <point x="74.859698856232129" y="-366.65476856413306"/>
      <point x="218.17931581058798" y="-422.6398147776776"/>
      <point x="361.75328454993831" y="-425.7451575225042" type="curve" smooth="yes"/>
      <point x="664.0691240113249" y="-432.28390759649506"/>
      <point x="907.347782942496" y="-265.08483101086546"/>
    </contour>
    <contour>
      <point x="360.53375753927753" y="526.04817624484178" type="curve" smooth="yes"/>
      <point x="362.95965361499219" y="546.51218788593633" type="line" smooth="yes"/>
      <point x="381.96719389108125" y="682.51032383560118"/>
      <point x="456.42797989761073" y="848.49480168918262"/>
      <point x="617.73923868390386" y="844.0719421692861" type="curve" smooth="yes"/>
      <point x="679.53041982976299" y="842.37774105875678"/>
      <point x="731.08208036936833" y="820.72601534105434"/>
      <point x="758.62742335564383" y="763.97707699856505" type="curve"/>
      <point x="675.50100543535063" y="319.4103519362601" type="line"/>
      <point x="625.36035540248588" y="267.90994089907559"/>
      <point x="566.6306931088925" y="237.59292810591802"/>
      <point x="492.9852839552558" y="240.62788987520304" type="curve" smooth="yes"/>
      <point x="348.32667377612086" y="246.58933888522461"/>
      <point x="348.44707981991985" y="419.35017763705667"/>
    </contour>
  </outline>
</glyph>
<glyph name="h" format="1">
  <advance width="1118.41"/>
  <unicode hex="0068"/>
  <outline>
    <contour>
      <point x="704.8907954233855" y="1693" type="move" name="top"/>
    </contour>
    <contour>
      <point x="408.4130085884874" y="1302" type="move" name="cross"/>
    </contour>
    <contour>
      <point x="461.62858252534534" y="10" type="move" name="bottom"/>
    </contour>
    <contour>
      <point x="920.65076189018168" y="0" type="move" name="right"/>
    </contour>
    <contour>
      <point x="1291.1920635163638" y="1600" type="move" name="top_dd"/>
    </contour>
    <contour>
      <point x="944.41846203902173" y="-407" type="move" name="bottom_dd"/>
    </contour>
    <contour>
      <point x="1307.2607954233856" y="1693" type="move" name="top0315"/>
    </contour>
    <contour>
      <point x="607.06039117802163" y="841.99965456105122" type="curve" smooth="yes"/>
      <point x="713.04652451006598" y="839.76569476730481"/>
      <point x="731.97548496613456" y="770.18395316812473"/>
      <point x="720.17193682108586" y="675.43501698561499" type="curve" smooth="yes"/>
      <point x="606.01981800438773" y="0.0" type="line"/>
      <point x="921.58941713923741" y="0.0" type="line"/>
      <point x="1033.7513733811659" y="672.19178870927101" type="line"/>
      <point x="1056.8441315319178" y="891.36762034062076"/>
      <point x="984.04783886495034" y="1098.4995443786233"/>
      <point x="735.65232492704172" y="1102.5977063711834" type="curve" smooth="yes"/>
      <point x="619.74158651554364" y="1104.510063704683"/>
      <point x="527.09643683272202" y="1049.4609704223778"/>
      <point x="453.44419511543572" y="963.65811881207833" type="curve"/>
      <point x="566.42835769517956" y="1535.9180336028699" type="line"/>
      <point x="251.70576294068485" y="1535.9457019458994" type="line"/>
      <point x="-14.813838603984166" y="0.0" type="line"/>
      <point x="299.8257797621477" y="0.0" type="line"/>
      <point x="436.74731638755418" y="769.90893069955189" type="line"/>
      <point x="484.70701946334657" y="818.19504136649869"/>
      <point x="537.76179041560329" y="843.46032005566951"/>
    </contour>
  </outline>
</glyph>
<glyph name="i" format="1">
  <advance width="540.29"/>
  <unicode hex="0069"/>
  <outline>
    <contour>
      <point x="167.71858252534537" y="10" type="move" name="bottom"/>
    </contour>
    <contour>
      <point x="272.69076189018176" y="0" type="move" name="ogonek"/>
    </contour>
    <contour>
      <point x="441.47206351636373" y="1600" type="move" name="top"/>
    </contour>
    <contour>
      <point x="713.07206351636376" y="1600" type="move" name="top_dd"/>
    </contour>
    <contour>
      <point x="366.29846203902167" y="-407" type="move" name="bottom_dd"/>
    </contour>
    <contour>
      <point x="350.77023142988367" y="654" type="move" name="rhotichook"/>
    </contour>
    <contour>
      <point x="713.07206351636376" y="1600" type="move" name="top0315"/>
    </contour>
    <contour>
      <point x="226.75681601998087" y="1355.1626336263096" type="curve" smooth="yes"/>
      <point x="229.70750557405853" y="1257.9140018742162"/>
      <point x="308.98841913722657" y="1194.4710978980163"/>
      <point x="403.29688407518614" y="1195.7503651758927" type="curve" smooth="yes"/>
      <point x="501.04685113817391" y="1197.0763154430235"/>
      <point x="577.91789222026443" y="1266.5905420726322"/>
      <point x="574.8762389053054" y="1366.8372719461925" type="curve" smooth="yes"/>
      <point x="571.92555284917376" y="1464.0859052983146"/>
      <point x="492.64463269958117" y="1527.5288060642131"/>
      <point x="398.3361701541973" y="1526.249539928509" type="curve" smooth="yes"/>
      <point x="300.58620557922285" y="1524.9235908453409"/>
      <point x="223.71515908045453" y="1455.409362469547"/>
    </contour>
    <contour>
      <point x="511.94346808385853" y="1081.9295244729301" type="line"/>
      <point x="196.32978018648993" y="1081.9454838815407" type="line"/>
      <point x="8.4666932047548897" y="0.0" type="line"/>
      <point x="324.08038110212084" y="0.0" type="line"/>
    </contour>
  </outline>
</glyph>
<glyph name="j" format="1">
  <advance width="530.59"/>
  <unicode hex="006A"/>
  <outline>
    <contour>
      <point x="389.09206351636379" y="1600" type="move" name="top"/>
    </contour>
    <contour>
      <point x="1.3237947361707398" y="-459" type="move" name="bottom"/>
    </contour>
    <contour>
      <point x="703.37206351636382" y="1600" type="move" name="top_dd"/>
    </contour>
    <contour>
      <point x="356.59846203902174" y="-407" type="move" name="bottom_dd"/>
    </contour>
    <contour>
      <point x="703.37206351636382" y="1600" type="move" name="top0315"/>
    </contour>
    <contour>
      <point x="227.37715795024945" y="1355.1677782882775" type="curve" smooth="yes"/>
      <point x="230.32483550485074" y="1258.2641271653083"/>
      <point x="309.21737319335858" y="1194.9042813692745"/>
      <point x="403.24955906381814" y="1196.1847370036257" type="curve" smooth="yes"/>
      <point x="500.70726809298299" y="1197.511838692076"/>
      <point x="577.17424047622865" y="1266.9133442827001"/>
      <point x="574.1358430345972" y="1366.7994904249347" type="curve" smooth="yes"/>
      <point x="571.18816893292956" y="1463.7031416934005"/>
      <point x="492.2956250262564" y="1527.0629873453147"/>
      <point x="398.26344183626111" y="1525.7825317464033" type="curve" smooth="yes"/>
      <point x="300.80573512548608" y="1524.4554300884238"/>
      <point x="224.33875695077697" y="1455.0539242356047"/>
    </contour>
    <contour>
      <point x="201.18878168905695" y="1081.9437365243043" type="line"/>
      <point x="8.7565998007037109" y="-34.655808636238767" type="line" smooth="yes"/>
      <point x="-8.6975443741123861" y="-124.04218576012801"/>
      <point x="-67.852052188369541" y="-178.56110282922111"/>
      <point x="-160.9080612754901" y="-177.3669354176518" type="curve" smooth="yes"/>
      <point x="-190.86723183670296" y="-176.98247593445655"/>
      <point x="-220.64160614528797" y="-170.8216038164546"/>
      <point x="-249.8704459645075" y="-164.87248894737843" type="curve"/>
      <point x="-275.52269548828025" y="-421.09474143336428" type="line"/>
      <point x="-221.64674282833749" y="-431.86314197264682"/>
      <point x="-167.95144509962705" y="-439.47829782296719"/>
      <point x="-112.89482905555346" y="-439.90992465211895" type="curve" smooth="yes"/>
      <point x="143.2441581862083" y="-441.91797503423481"/>
      <point x="296.27458283348324" y="-281.24891045281436"/>
      <point x="327.37250848932189" y="-34.463758853782579" type="curve" smooth="yes"/>
      <point x="516.80554934768634" y="1081.9267488017967" type="line"/>
    </contour>
  </outline>
</glyph>
<glyph name="k" format="1">
  <advance width="1078.6399999999999"/>
  <unicode hex="006B"/>
  <outline>
    <contour>
      <point x="460.4070058591891" y="31" type="move" name="bottom"/>
    </contour>
    <contour>
      <point x="375.71188033442195" y="1298" type="move" name="cross"/>
    </contour>
    <contour>
      <point x="841.11206351636372" y="1600" type="move" name="top"/>
    </contour>
    <contour>
      <point x="841.11206351636372" y="1600" type="move" name="marktop"/>
    </contour>
    <contour>
      <point x="1251.4220635163638" y="1600" type="move" name="top_dd"/>
    </contour>
    <contour>
      <point x="904.64846203902152" y="-407" type="move" name="bottom_dd"/>
    </contour>
    <contour>
      <point x="1125.3220635163639" y="1600" type="move" name="top0315"/>
    </contour>
    <contour>
      <point x="653.31921520381877" y="0.0" type="line"/>
      <point x="998.57448142543444" y="0.0" type="line"/>
      <point x="711.1724026762663" y="617.01539852805024" type="line"/>
      <point x="1176.4169051043282" y="1081.5065640926371" type="line"/>
      <point x="774.58390791244631" y="1081.6862990285938" type="line"/>
      <point x="469.18901660820552" y="764.89339972503217" type="line"/>
      <point x="420.36662322152119" y="707.68698002143901" type="line"/>
      <point x="575.24265360506297" y="1536.9207710946098" type="line"/>
      <point x="260.60801776626658" y="1536.9460571043098" type="line"/>
      <point x="-6.082790732025444" y="0.0" type="line"/>
      <point x="308.52289150232383" y="0.0" type="line"/>
      <point x="360.73043433034474" y="300.94674407902301" type="line"/>
      <point x="485.29456261852033" y="407.71753150107645" type="line"/>
    </contour>
  </outline>
</glyph>
<glyph name="l" format="1">
  <advance width="540.29"/>
  <unicode hex="006C"/>
  <outline>
    <contour>
      <point x="455.74628240712377" y="1677" type="move" name="top"/>
    </contour>
    <contour>
      <point x="167.71858252534537" y="10" type="move" name="bottom"/>
    </contour>
    <contour>
      <point x="694.2540114513165" y="1536" type="move" name="caron"/>
    </contour>
    <contour>
      <point x="550.84798936942911" y="779" type="move" name="dot"/>
    </contour>
    <contour>
      <point x="820.44490827549839" y="1486" type="move" name="marktop"/>
    </contour>
    <contour>
      <point x="713.07206351636376" y="1600" type="move" name="top_dd"/>
    </contour>
    <contour>
      <point x="366.29846203902167" y="-407" type="move" name="bottom_dd"/>
    </contour>
    <contour>
      <point x="726.37628240712377" y="1677" type="move" name="top0315"/>
    </contour>
    <contour>
      <point x="590.59630833321683" y="1535.9284822465736" type="line"/>
      <point x="274.98215933566894" y="1535.946303889719" type="line"/>
      <point x="8.4698577456270669" y="0.0" type="line"/>
      <point x="324.08400674320188" y="0.0" type="line"/>
    </contour>
  </outline>
</glyph>
<glyph name="o" format="1">
  <advance width="1118.41"/>
  <unicode hex="006F"/>
  <outline>
    <contour>
      <point x="666.22222716291708" y="1290" type="move" name="top"/>
    </contour>
    <contour>
      <point x="463.68179917481245" y="-10" type="move" name="bottom"/>
    </contour>
    <contour>
      <point x="1274.2103292216191" y="1600" type="move" name="top_dd"/>
    </contour>
    <contour>
      <point x="961.51906847382986" y="-407" type="move" name="bottom_dd"/>
    </contour>
    <contour>
      <point x="941.55321777796746" y="654" type="move" name="rhotichook"/>
    </contour>
    <contour>
      <point x="1225.9122271629174" y="1290" type="move" name="top0315"/>
    </contour>
    <contour>
      <point x="44.843332319671433" y="523.8796116576101" type="line" smooth="yes"/>
      <point x="19.409335506652738" y="231.08273522525843"/>
      <point x="172.82118276308057" y="-14.402566733370225"/>
      <point x="484.81929731518278" y="-20.263830418449551" type="curve" smooth="yes"/>
      <point x="810.94952465861525" y="-26.390583013986497"/>
      <point x="1020.1352839651038" y="222.95211815950546"/>
      <point x="1052.903564694205" y="531.4392599774917" type="curve" smooth="yes"/>
      <point x="1055.0156316725217" y="553.27269590682806" type="line" smooth="yes"/>
      <point x="1080.5245373975586" y="847.26989371637592"/>
      <point x="929.0525403758985" y="1096.3186373935036"/>
      <point x="614.58773255546021" y="1102.2179384075707" type="curve" smooth="yes"/>
      <point x="285.6144104880961" y="1108.3894164369378"/>
      <point x="79.458850150611937" y="854.55527368786306"/>
      <point x="46.884832587375556" y="545.02756154251563" type="curve" smooth="yes"/>
    </contour>
    <contour>
      <point x="361.39535897582527" y="545.09066346792611" type="line" smooth="yes"/>
      <point x="376.72251690383121" y="679.03123946758978"/>
      <point x="436.18274132802878" y="847.87615006047827"/>
      <point x="599.06970025647377" y="842.68918894851288" type="curve" smooth="yes"/>
      <point x="752.27592867023031" y="837.81050035293208"/>
      <point x="751.27198718421766" y="667.0424400991194"/>
      <point x="740.3234675246282" y="552.63564054286394" type="curve" smooth="yes"/>
      <point x="738.28931556541067" y="532.07856026690229" type="line" smooth="yes"/>
      <point x="722.66907149933013" y="397.1661851419907"/>
      <point x="663.17626681435377" y="233.34653137271897"/>
      <point x="500.30128336090741" y="238.51805115067106" type="curve" smooth="yes"/>
      <point x="347.24925943051591" y="243.37767754650642"/>
      <point x="348.37353080628833" y="408.60076083737204"/>
      <point x="359.31150109854826" y="523.85055573655779" type="curve" smooth="yes"/>
    </contour>
  </outline>
</glyph>
<glyph name="p" format="1">
  <advance width="1118.41"/>
  <unicode hex="0070"/>
  <outline>
    <contour>
      <point x="772.24180319112736" y="1280" type="move" name="top"/>
    </contour>
    <contour>
      <point x="78.208462039021683" y="-407" type="move" name="bottom"/>
    </contour>
    <contour>
      <point x="772.24180319112736" y="1280" type="move" name="marktop"/>
    </contour>
    <contour>
      <point x="1291.1920635163638" y="1600" type="move" name="top_dd"/>
    </contour>
    <contour>
      <point x="944.41846203902173" y="-407" type="move" name="bottom_dd"/>
    </contour>
    <contour>
      <point x="1235.9018031911273" y="1280" type="move" name="top0315"/>
    </contour>
    <contour>
      <point x="572.40849355857426" y="-20.905477906979495" type="curve" smooth="yes"/>
      <point x="877.88597197644162" y="-28.745045040027591"/>
      <point x="1021.3016683479968" y="272.09793418616016"/>
      <point x="1052.3149761586722" y="534.38147297052183" type="curve" smooth="yes"/>
      <point x="1054.723858913721" y="556.36241353029959" type="line" smooth="yes"/>
      <point x="1079.2541782796091" y="800.72190890205138"/>
      <point x="1012.4171421756705" y="1097.4280229798337"/>
      <point x="715.20584867265234" y="1102.1997148552618" type="curve" smooth="yes"/>
      <point x="607.52286935434427" y="1103.9285522472699"/>
      <point x="523.14911907726901" y="1057.060165345506"/>
      <point x="453.61802071512136" y="977.792846702926" type="curve"/>
      <point x="471.40611892255049" y="1083.5539948831035" type="line"/>
      <point x="181.67897605607072" y="1081.8353628354207" type="line"/>
      <point x="-78.161078373220334" y="-415.92422920160595" type="line"/>
      <point x="236.39861690211058" y="-415.9389086371043" type="line"/>
      <point x="335.83956639260214" y="95.110828755267605" type="line"/>
      <point x="395.16958109170798" y="20.797699559438598"/>
      <point x="477.21709612112704" y="-18.462550347918299"/>
    </contour>
    <contour>
      <point x="623.6972858327332" y="841.94840517171804" type="curve" smooth="yes"/>
      <point x="766.1959095481825" y="835.65168995226168"/>
      <point x="749.95930042907469" y="656.34000947740719"/>
      <point x="739.52325375871317" y="556.11342599477905" type="curve" smooth="yes"/>
      <point x="737.42464875280882" y="535.70315918784104" type="line" smooth="yes"/>
      <point x="721.48319193968462" y="406.70333005339046"/>
      <point x="666.6865744676104" y="234.95226553285562"/>
      <point x="507.81029872258523" y="238.91791596072031" type="curve" smooth="yes"/>
      <point x="439.53250543904886" y="240.6221720485396"/>
      <point x="388.38921256018619" y="268.15221476277117"/>
      <point x="364.19784917330361" y="332.56968097439068" type="curve"/>
      <point x="441.45069132021524" y="752.81011708628421" type="line"/>
      <point x="487.95786181344272" y="812.48328024884779"/>
      <point x="546.1176320072658" y="845.37648731192485"/>
    </contour>
  </outline>
</glyph>
<glyph name="r" format="1">
  <advance width="743.99"/>
  <unicode hex="0072"/>
  <outline>
    <contour>
      <point x="518.859623826291" y="1290" type="move" name="top"/>
    </contour>
    <contour>
      <point x="154.13858252534538" y="10" type="move" name="bottom"/>
    </contour>
    <contour>
      <point x="916.7720635163638" y="1600" type="move" name="top_dd"/>
    </contour>
    <contour>
      <point x="569.99846203902166" y="-407" type="move" name="bottom_dd"/>
    </contour>
    <contour>
      <point x="863.20962382629102" y="1290" type="move" name="top0315"/>
    </contour>
    <contour>
      <point x="660.43531757274445" y="787.07503774786778" type="curve" smooth="yes"/>
      <point x="693.67302588295081" y="786.42597067550537"/>
      <point x="727.04412698262604" y="781.58327829368591"/>
      <point x="759.84965725569532" y="776.54277274547474" type="curve"/>
      <point x="796.72053108339071" y="1093.8708983182817" type="line"/>
      <point x="763.57826159164063" y="1100.8854678224536"/>
      <point x="730.95011210052712" y="1106.0944848344195"/>
      <point x="696.9240039842058" y="1105.7393692386909" type="curve" smooth="yes"/>
      <point x="582.61968096378257" y="1104.5464250552129"/>
      <point x="507.30883113378673" y="1035.6522772145688"/>
      <point x="448.68783180799562" y="944.25460426222298" type="curve"/>
      <point x="474.74506813249252" y="1083.2750363026175" type="line"/>
      <point x="181.71829171019266" y="1081.8420441718552" type="line"/>
      <point x="-6.0807666369152571" y="0.0" type="line"/>
      <point x="308.54911469508721" y="0.0" type="line"/>
      <point x="430.50420020799027" y="684.84920484804309" type="line"/>
      <point x="487.82124593835437" y="759.90613779037471"/>
      <point x="566.84101088310217" y="788.90275047901844"/>
    </contour>
  </outline>
</glyph>
<glyph name="s" format="1">
  <advance width="1019.47"/>
  <unicode hex="0073"/>
  <outline>
    <contour>
      <point x="607.05222716291712" y="1290" type="move" name="top"/>
    </contour>
    <contour>
      <point x="404.51179917481244" y="-10" type="move" name="bottom"/>
    </contour>
    <contour>
      <point x="1175.270329221619" y="1600" type="move" name="top_dd"/>
    </contour>
    <contour>
      <point x="862.57906847382981" y="-407" type="move" name="bottom_dd"/>
    </contour>
    <contour>
      <point x="1126.9722271629173" y="1290" type="move" name="top0315"/>
    </contour>
    <contour>
      <point x="607.87967287274341" y="309.96085060591884" type="curve" smooth="yes"/>
      <point x="591.24221603508113" y="232.3128608927239"/>
      <point x="509.75147670721009" y="204.54921510995362"/>
      <point x="438.7196777441635" y="204.98461895958746" type="curve" smooth="yes"/>
      <point x="343.581579700585" y="205.56778726927035"/>
      <point x="289.90927638118666" y="253.00669588461267"/>
      <point x="287.51276928898938" y="347.53265642189689" type="curve"/>
      <point x="-5.116954486833194" y="348.90094255088462" type="line"/>
      <point x="2.4852352892163783" y="113.23805662472702"/>
      <point x="206.23889961365566" y="-16.209584516650768"/>
      <point x="426.92145989623032" y="-19.995403838259332" type="curve" smooth="yes"/>
      <point x="636.95759765078492" y="-23.598583298970063"/>
      <point x="903.41109997001979" y="75.239353279432152"/>
      <point x="910.83893614021838" y="321.10423165094318" type="curve" smooth="yes"/>
      <point x="917.50343438241202" y="541.70226480334793"/>
      <point x="727.7728070250588" y="617.11445461273479"/>
      <point x="544.06356855170293" y="658.57082084338845" type="curve" smooth="yes"/>
      <point x="488.82360921630652" y="671.03643228353792"/>
      <point x="380.01769098732808" y="690.50730181566587"/>
      <point x="396.05289782953577" y="770.37953034722352" type="curve" smooth="yes"/>
      <point x="410.35452630374618" y="841.61671170111833"/>
      <point x="483.50506214420352" y="877.65270130013653"/>
      <point x="550.823116301509" y="877.76105101266796" type="curve" smooth="yes"/>
      <point x="639.0636814568287" y="877.90307591204851"/>
      <point x="673.07367076158675" y="833.02744287891551"/>
      <point x="671.77366300324763" y="749.6168112554758" type="curve"/>
      <point x="984.00729444317346" y="748.23756003587368" type="line"/>
      <point x="979.15616342779424" y="988.17687526880934"/>
      <point x="779.42215585361487" y="1099.2696105559592"/>
      <point x="557.8373347484802" y="1102.3954444014412" type="curve" smooth="yes"/>
      <point x="347.53556248179405" y="1105.3621114964051"/>
      <point x="106.14110159477406" y="990.22553443991671"/>
      <point x="99.179797275530277" y="752.70139213848483" type="curve" smooth="yes"/>
      <point x="93.457031822275923" y="557.43698570837364"/>
      <point x="270.53437381965136" y="469.42745276514523"/>
      <point x="434.56432243636266" y="426.79039845531116" type="curve" smooth="yes"/>
      <point x="488.87323899728131" y="412.67363353254126"/>
      <point x="625.95880804486353" y="394.33723790872062"/>
    </contour>
  </outline>
</glyph>
<glyph name="u" format="1">
  <advance width="1118.41"/>
  <unicode hex="0075"/>
  <outline>
    <contour>
      <point x="676.96962382629101" y="1290" type="move" name="top"/>
    </contour>
    <contour>
      <point x="883.79076189018167" y="0" type="move" name="ogonek"/>
    </contour>
    <contour>
      <point x="340.59076189018174" y="0" type="move" name="bottomu"/>
    </contour>
    <contour>
      <point x="1291.1920635163638" y="1600" type="move" name="top_dd"/>
    </contour>
    <contour>
      <point x="944.41846203902173" y="-407" type="move" name="bottom_dd"/>
    </contour>
    <contour>
      <point x="911.43023142988363" y="654" type="move" name="rhotichook"/>
    </contour>
    <contour>
      <point x="1237.6296238262912" y="1290" type="move" name="top0315"/>
    </contour>
    <contour>
      <point x="454.08076189018175" y="0" type="move" name="bottom"/>
    </contour>
    <contour>
      <point x="630.42932814278822" y="0.0" type="line"/>
      <point x="922.67030076374726" y="0.0" type="line"/>
      <point x="1110.4297522152374" y="1081.9252517040054" type="line"/>
      <point x="794.81685894891564" y="1081.9435652870125" type="line"/>
      <point x="660.72975741408698" y="326.35489253912084" type="line"/>
      <point x="610.20348122974372" y="268.95156684004468"/>
      <point x="548.14684074402044" y="237.15096952702478"/>
      <point x="469.96317981524544" y="240.31429544877577" type="curve" smooth="yes"/>
      <point x="385.09784210054204" y="243.74796329525375"/>
      <point x="359.45080053154663" y="299.76635631722735"/>
      <point x="368.74631641850033" y="378.13764425187992" type="curve"/>
      <point x="488.25491872821624" y="1081.8843953548587" type="line"/>
      <point x="174.03472329815099" y="1081.9536124572196" type="line"/>
      <point x="57.230360722465448" y="381.82890410881049" type="line"/>
      <point x="35.662558521333423" y="166.16256544487658"/>
      <point x="125.04382284156037" y="-16.58636160599405"/>
      <point x="360.21464013142497" y="-20.762523614266271" type="curve" smooth="yes"/>
      <point x="479.61698157706189" y="-22.882869700530041"/>
      <point x="576.66678166758868" y="26.864971551502336"/>
      <point x="652.91573675877601" y="116.50164041802221" type="curve"/>
    </contour>
  </outline>
</glyph>
<glyph name="v" format="1">
  <advance width="1019.47"/>
  <unicode hex="0076"/>
  <outline>
    <contour>
      <point x="616.16422387070077" y="1280" type="move" name="top"/>
    </contour>
    <contour>
      <point x="417.32780575924482" y="10" type="move" name="bottom"/>
    </contour>
    <contour>
      <point x="1175.270329221619" y="1600" type="move" name="top_dd"/>
    </contour>
    <contour>
      <point x="862.57906847382981" y="-407" type="move" name="bottom_dd"/>
    </contour>
    <contour>
      <point x="1125.4142238707011" y="1280" type="move" name="top0315"/>
    </contour>
    <contour>
      <point x="1093.1762555629043" y="1081.7435637130466" type="line"/>
      <point x="752.93558264172555" y="1081.824687567603" type="line"/>
      <point x="471.25780414119777" y="393.80189628284319" type="line"/>
      <point x="406.78986346480463" y="1082.0163714695575" type="line"/>
      <point x="85.870269831505212" y="1082.021928745196" type="line"/>
      <point x="263.10855899487524" y="0.0" type="line"/>
      <point x="577.46252374768812" y="0.0" type="line"/>
    </contour>
  </outline>
</glyph>
<glyph name="w" format="1">
  <advance width="1448.21"/>
  <unicode hex="0077"/>
  <outline>
    <contour>
      <point x="841.86962382629099" y="1290" type="move" name="top"/>
    </contour>
    <contour>
      <point x="623.61858252534535" y="10" type="move" name="bottom"/>
    </contour>
    <contour>
      <point x="841.86962382629099" y="1290" type="move" name="marktop"/>
    </contour>
    <contour>
      <point x="1620.9920635163639" y="1600" type="move" name="top_dd"/>
    </contour>
    <contour>
      <point x="1274.2184620390217" y="-407" type="move" name="bottom_dd"/>
    </contour>
    <contour>
      <point x="1567.4296238262909" y="1290" type="move" name="top0315"/>
    </contour>
    <contour>
      <point x="1510.6518174369974" y="1081.7491411005005" type="line"/>
      <point x="1200.5711158178599" y="1081.8544997404088" type="line"/>
      <point x="972.53936512550786" y="439.24618780298732" type="line"/>
      <point x="911.95592318599961" y="1082.0805416436865" type="line"/>
      <point x="689.70178985975599" y="1081.7834793778941" type="line"/>
      <point x="405.62101511608188" y="438.5765054794204" type="line"/>
      <point x="404.48196399877162" y="1081.9995168874418" type="line"/>
      <point x="110.69852973559445" y="1082.0213402727441" type="line"/>
      <point x="177.26086722068328" y="0.0" type="line"/>
      <point x="443.13122791831597" y="0.0" type="line"/>
      <point x="735.03476025212331" y="632.9051164629501" type="line"/>
      <point x="804.89243778600405" y="0.0" type="line"/>
      <point x="1069.9910054520756" y="0.0" type="line"/>
    </contour>
  </outline>
</glyph>
<glyph name="y" format="1">
  <advance width="1019.47"/>
  <unicode hex="0079"/>
  <outline>
    <contour>
      <point x="629.43962382629093" y="1290" type="move" name="top"/>
    </contour>
    <contour>
      <point x="682.6248120466762" y="-92" type="move" name="bottom"/>
    </contour>
    <contour>
      <point x="629.43962382629093" y="1290" type="move" name="marktop"/>
    </contour>
    <contour>
      <point x="1192.2520635163637" y="1600" type="move" name="top_dd"/>
    </contour>
    <contour>
      <point x="845.47846203902168" y="-407" type="move" name="bottom_dd"/>
    </contour>
    <contour>
      <point x="802.79023142988353" y="654" type="move" name="rhotichook"/>
    </contour>
    <contour>
      <point x="1138.6896238262912" y="1290" type="move" name="top0315"/>
    </contour>
    <contour>
      <point x="481.10596771597511" y="-161.9203409736968" type="curve" smooth="yes"/>
      <point x="1115.0350877576459" y="1081.699046018593" type="line"/>
      <point x="765.8109908201086" y="1081.7824152744083" type="line"/>
      <point x="478.37544161560447" y="458.14971208211568" type="line"/>
      <point x="412.12515833944599" y="1082.0106819782668" type="line"/>
      <point x="87.352987443007137" y="1082.0432342755369" type="line"/>
      <point x="262.72118532963566" y="11.998800534581637" type="line"/>
      <point x="212.39159334874432" y="-81.787626808899745" type="line" smooth="yes"/>
      <point x="170.1767545179782" y="-157.34609148825371"/>
      <point x="103.77801944044225" y="-177.37618374329475"/>
      <point x="20.33496406588786" y="-177.27948875436314" type="curve" smooth="yes"/>
      <point x="-17.283001545464543" y="-176.27938305099704" type="line"/>
      <point x="-41.571611657451356" y="-418.20640931635916" type="line"/>
      <point x="6.6141754741550614" y="-430.24857237300614"/>
      <point x="52.873969589662352" y="-440.34177340979437"/>
      <point x="102.82864774727564" y="-440.20809235717144" type="curve" smooth="yes"/>
      <point x="294.97666608760642" y="-439.69389528297341"/>
      <point x="404.79051774926734" y="-325.17958037226356"/>
    </contour>
  </outline>
</glyph>
<glyph name="z" format="1">
  <advance width="1019.47"/>
  <unicode hex="007A"/>
  <outline>
    <contour>
      <point x="628.46962382629101" y="1290" type="move" name="top"/>
    </contour>
    <contour>
      <point x="408.27858252534537" y="10" type="move" name="bottom"/>
    </contour>
    <contour>
      <point x="1192.2520635163637" y="1600" type="move" name="top_dd"/>
    </contour>
    <contour>
      <point x="845.47846203902168" y="-407" type="move" name="bottom_dd"/>
    </contour>
    <contour>
      <point x="1138.6896238262912" y="1290" type="move" name="top0315"/>
    </contour>
    <contour>
      <point x="122.55776630879036" y="822.11328522135284" type="line"/>
      <point x="569.36995045095091" y="819.66249512525803" type="line"/>
      <point x="-2.6056633772021485" y="203.94073257864216" type="line"/>
      <point x="-38.045580386294134" y="0.0" type="line"/>
      <point x="848.76284382485778" y="0.0" type="line"/>
      <point x="894.45593020345427" y="259.89255233892629" type="line"/>
      <point x="415.98971027296773" y="262.28898106898913" type="line"/>
      <point x="990.55593103206252" y="883.95409220811098" type="line"/>
      <point x="1025.0429597525374" y="1081.8527584457884" type="line"/>
      <point x="168.29179209091382" y="1081.920491651686" type="line"/>
    </contour>
  </outline>
</glyph>
<glyph name="braceleft" format="1">
  <advance width="648.93"/>
  <unicode hex="007B"/>
  <outline>
    <contour>
      <point x="156.34413544046993" y="310.40883485424018" type="curve" smooth="yes"/>
      <point x="128.03383949579126" y="105.8747130848629" type="line" smooth="yes"/>
      <point x="104.28128377338052" y="-116.97845725642254"/>
      <point x="206.55414414975519" y="-286.61118952390638"/>
      <point x="420.03989509559551" y="-358.81607928590563" type="curve"/>
      <point x="488.96812646493015" y="-181.87495975587137" type="line"/>
      <point x="377.94373213874451" y="-127.99683750888292"/>
      <point x="388.29116353007873" y="-2.0889522345062801"/>
      <point x="402.50530801103366" y="104.93271857576846" type="curve" smooth="yes"/>
      <point x="429.52220532117462" y="308.99451926125971" type="line" smooth="yes"/>
      <point x="440.36258038053813" y="428.98771429335909"/>
      <point x="401.95008555527261" y="541.52282380349266"/>
      <point x="302.16608260341667" y="613.04997385888839" type="curve"/>
      <point x="436.68341804504018" y="680.1652043781404"/>
      <point x="514.50543303659504" y="778.04713785899912"/>
      <point x="533.31576812458911" y="929.05340726558416" type="curve" smooth="yes"/>
      <point x="560.555832638624" y="1131.8454701059861" type="line" smooth="yes"/>
      <point x="578.76731962158703" y="1253.0518586489147"/>
      <point x="622.09755021371643" y="1370.6524473278182"/>
      <point x="743.59885358940153" y="1419.8407873694753" type="curve"/>
      <point x="696.23045763554819" y="1600.1630871244524" type="line"/>
      <point x="455.85318615169012" y="1529.6519501715659"/>
      <point x="315.63216222038449" y="1381.9254731381288"/>
      <point x="283.50240266232942" y="1131.7833770896623" type="curve" smooth="yes"/>
      <point x="255.45554898532839" y="929.35895982283375" type="line" smooth="yes"/>
      <point x="237.14697786170774" y="815.39449361437153"/>
      <point x="174.93823731989767" y="735.32842690915675"/>
      <point x="54.253788062398073" y="730.8650393917469" type="curve"/>
      <point x="32.779984787336886" y="502.87549117449078" type="line"/>
      <point x="148.33693044006358" y="493.18591442852107"/>
      <point x="169.6749459346874" y="417.33899762167408"/>
    </contour>
  </outline>
</glyph>
<glyph name="braceright" format="1">
  <advance width="648.93"/>
  <unicode hex="007D"/>
  <outline>
    <contour>
      <point x="499.91601038695001" y="927.61751856907063" type="curve" smooth="yes"/>
      <point x="528.24425755333027" y="1132.1195226588309" type="line" smooth="yes"/>
      <point x="552.12347086620184" y="1355.2210222746714"/>
      <point x="449.45645308713802" y="1524.1281581257676"/>
      <point x="235.60906404830894" y="1595.7501310210357" type="curve"/>
      <point x="165.99896528897875" y="1421.5661945289794" type="line"/>
      <point x="277.8362120883184" y="1366.1251536431955"/>
      <point x="268.28312941313999" y="1242.2211043149332"/>
      <point x="253.74401545302692" y="1133.0553777041546" type="curve" smooth="yes"/>
      <point x="226.766159913671" y="929.00750724746649" type="line" smooth="yes"/>
      <point x="215.96703045098849" y="808.57371867872132"/>
      <point x="254.9301246810987" y="696.14461190675479"/>
      <point x="355.51619002422933" y="625.01826231952168" type="curve"/>
      <point x="220.13988479795333" y="558.22042170606505"/>
      <point x="141.7462827415946" y="460.67700117859408"/>
      <point x="122.88800212497357" y="308.97116116440668" type="curve" smooth="yes"/>
      <point x="95.596944698777051" y="106.17140735534441" type="line" smooth="yes"/>
      <point x="77.361928443332275" y="-14.648525172458605"/>
      <point x="34.429804079036771" y="-133.0109184484044"/>
      <point x="-87.159043712390243" y="-181.64554478442724" type="curve"/>
      <point x="-32.946872243156847" y="-364.46158899722286" type="line"/>
      <point x="204.44766999414725" y="-290.98428465983449"/>
      <point x="340.65256568500371" y="-141.2087477438215"/>
      <point x="372.626871295858" y="106.27289511618721" type="curve" smooth="yes"/>
      <point x="400.82626233211198" y="308.63475876474143" type="line" smooth="yes"/>
      <point x="419.19266435076884" y="422.22728114987319"/>
      <point x="481.67430269439541" y="501.86349383305935"/>
      <point x="601.85647175659881" y="506.21087103367483" type="curve"/>
      <point x="623.30885442050555" y="734.13784587923669" type="line"/>
      <point x="507.27806369821366" y="743.87081297029943"/>
      <point x="486.55393776755471" y="820.50001965932688"/>
    </contour>
  </outline>
</glyph>
<glyph name="asciitilde" format="1">
  <advance width="1266.82"/>
  <unicode hex="007E"/>
  <outline>
    <contour>
      <point x="967.19361691132906" y="799.84106914076972" type="line"/>
      <point x="954.64917902917136" y="723.44784683319961"/>
      <point x="913.96808059166449" y="625.6682647329842"/>
      <point x="821.30545012239122" y="626.59205120585227" type="curve" smooth="yes"/>
      <point x="766.02188680371364" y="627.14319256356146"/>
      <point x="724.52063881907361" y="668.62906998537028"/>
      <point x="689.7008299690691" y="706.41812788598406" type="curve" smooth="yes"/>
      <point x="620.09293500869364" y="781.96181580020209"/>
      <point x="536.76103526681095" y="835.0541067844182"/>
      <point x="431.28712489153338" y="837.2585897707645" type="curve" smooth="yes"/>
      <point x="189.99016592039848" y="842.30187525071244"/>
      <point x="85.683451371396217" y="617.42502613418856"/>
      <point x="73.028833073569402" y="408.11101830879807" type="curve"/>
      <point x="296.99985758467596" y="405.14340278181703" type="line"/>
      <point x="309.35873373925909" y="481.33586694102144"/>
      <point x="349.4917957241268" y="578.00660011532011"/>
      <point x="441.68612996471802" y="577.36460370946315" type="curve" smooth="yes"/>
      <point x="498.25947828915713" y="576.97065448697845"/>
      <point x="540.24463658605907" y="536.04538239929855"/>
      <point x="576.27481651950359" y="497.52286241264642" type="curve" smooth="yes"/>
      <point x="646.63820849083197" y="422.29217584513134"/>
      <point x="725.41148531146632" y="367.67663360516019"/>
      <point x="831.76683083560658" y="365.65984381821704" type="curve" smooth="yes"/>
      <point x="1073.1096446286947" y="361.08332046989563"/>
      <point x="1179.073543188621" y="591.42501980486452"/>
      <point x="1191.0225585624491" y="800.14299275785004" type="curve"/>
    </contour>
  </outline>
</glyph>
<glyph name="exclamdown" format="1">
  <advance width="585.88"/>
  <unicode hex="00A1"/>
  <outline>
    <contour>
      <point x="526.87989902109769" y="939.10191979430317" type="curve" smooth="yes"/>
      <point x="524.05264707874312" y="1035.9787681696343"/>
      <point x="446.23241932706026" y="1104.6570380088383"/>
      <point x="350.73699720447519" y="1103.2769495596183" type="curve" smooth="yes"/>
      <point x="251.73946210243827" y="1101.8462489913734"/>
      <point x="175.91146393854854" y="1026.8767930972449"/>
      <point x="178.82924680785447" y="926.89774732461967" type="curve" smooth="yes"/>
      <point x="181.65649534625226" y="830.0208981236035"/>
      <point x="259.4767296749809" y="761.34262924949962"/>
      <point x="354.97214959212971" y="762.72271760342392" type="curve" smooth="yes"/>
      <point x="453.96968211141393" y="764.15341806859431"/>
      <point x="529.79768540227997" y="839.12287491088455"/>
    </contour>
    <contour>
      <point x="-42.463512397805495" y="-371.90885548902827" type="line"/>
      <point x="291.91708760984045" y="-371.94513247922771" type="line"/>
      <point x="425.6972126532479" y="622.97796574365225" type="line"/>
      <point x="167.89815928955835" y="622.86192825418595" type="line"/>
    </contour>
  </outline>
</glyph>
<glyph name="cent" format="1">
  <advance width="1164.0"/>
  <unicode hex="00A2"/>
  <outline>
    <contour>
      <point x="981.40676858227494" y="387.34121896322785" type="curve"/>
      <point x="686.47400233514077" y="385.59099740586134" type="line"/>
      <point x="669.85703991684773" y="294.97273827759886"/>
      <point x="607.44344901609441" y="235.59193159019134"/>
      <point x="511.70559320671509" y="238.620684474782" type="curve" smooth="yes"/>
      <point x="362.13830730401855" y="243.35237963119064"/>
      <point x="387.97202536477778" y="423.68557079224877"/>
      <point x="398.73889694321417" y="527.26611198712658" type="curve" smooth="yes"/>
      <point x="401.01838993394796" y="549.85823498443403" type="line" smooth="yes"/>
      <point x="415.93609815787624" y="679.04169012432442"/>
      <point x="460.28346056328172" y="849.68295660131787"/>
      <point x="622.56829434287022" y="843.41250687092827" type="curve" smooth="yes"/>
      <point x="725.79237731333785" y="839.42407857385786"/>
      <point x="753.93841962661486" y="757.53298983087279"/>
      <point x="751.36558106030509" y="667.31871190538811" type="curve"/>
      <point x="1045.1786612799342" y="666.67858613221063" type="line"/>
      <point x="1048.7940857566309" y="864.08780851038478"/>
      <point x="967.67487477691964" y="1040.4436999720167"/>
      <point x="763.53243178887919" y="1090.0043670941195" type="curve"/>
      <point x="812.09836676976624" y="1317.7565454843061" type="line"/>
      <point x="615.82336460942872" y="1318.1691201377125" type="line"/>
      <point x="568.1884892197387" y="1094.3697235390266" type="line"/>
      <point x="277.88303750201391" y="1053.9709260214111"/>
      <point x="119.70498708278245" y="830.6083331763017"/>
      <point x="86.632889263307632" y="550.40669133904942" type="curve" smooth="yes"/>
      <point x="84.01147712091894" y="526.41924821265172" type="line" smooth="yes"/>
      <point x="60.497631268285417" y="291.21601301479473"/>
      <point x="137.50660690356068" y="44.322574182583473"/>
      <point x="393.87773980823766" y="-9.5666299036650191" type="curve"/>
      <point x="344.0679187653194" y="-244.81654755855212" type="line"/>
      <point x="540.26151735374583" y="-245.10577314072083" type="line"/>
      <point x="589.74047105654199" y="-10.323130722155573" type="line"/>
      <point x="802.99606446993039" y="25.244451461109918"/>
      <point x="970.3304672269777" y="161.19592157561064"/>
    </contour>
  </outline>
</glyph>
<glyph name="sterling" format="1">
  <advance width="1189.22"/>
  <unicode hex="00A3"/>
  <outline>
    <contour>
      <point x="-3.3095760577461135" y="0.0" type="line"/>
      <point x="1033.0652071116763" y="0.0" type="line"/>
      <point x="1080.4263203037431" y="269.9186152449804" type="line"/>
      <point x="474.00735666417427" y="265.59608639247307" type="line"/>
      <point x="527.86617409429346" y="319.40582549922954"/>
      <point x="557.89543655651858" y="373.80404466487596"/>
      <point x="568.20998955677828" y="450.03464712000857" type="curve" smooth="yes"/>
      <point x="580.41087948107258" y="560.92408815035537" type="line"/>
      <point x="868.43151440602162" y="561.08709610537016" type="line"/>
      <point x="914.11394229917005" y="821.90402125239552" type="line"/>
      <point x="614.26605508140233" y="822.06707490794054" type="line"/>
      <point x="640.44583094554343" y="1039.3956245741258" type="line" smooth="yes"/>
      <point x="653.39946384757832" y="1123.3358429645161"/>
      <point x="701.96416653012204" y="1208.4717479180997"/>
      <point x="797.19412613649934" y="1206.356412067468" type="curve" smooth="yes"/>
      <point x="894.73053961376502" y="1204.1898431324048"/>
      <point x="916.47280413360295" y="1133.0112298262468"/>
      <point x="913.45815318639791" y="1047.6841590265867" type="curve"/>
      <point x="1221.8237098100165" y="1046.5387975076133" type="line"/>
      <point x="1225.5495599636522" y="1306.911328920015"/>
      <point x="1073.345726667864" y="1469.5539851591982"/>
      <point x="810.03667238655248" y="1475.0829084192835" type="curve" smooth="yes"/>
      <point x="538.93119324722738" y="1480.775539816412"/>
      <point x="343.96495366063311" y="1306.812601073595"/>
      <point x="314.0111215457398" y="1038.8488106468685" type="curve" smooth="yes"/>
      <point x="287.75243802273286" y="822.12343657013116" type="line"/>
      <point x="136.72732599755039" y="821.87945929229488" type="line"/>
      <point x="91.220914444077849" y="561.03533697119224" type="line"/>
      <point x="250.26824865000117" y="561.0845626996803" type="line"/>
      <point x="231.60662607505714" y="426.52774710094371" type="line" smooth="yes"/>
      <point x="219.9789246656849" y="353.3804907177821"/>
      <point x="201.53889455262646" y="294.41841051090876"/>
      <point x="128.32610944778116" y="266.60761395081198" type="curve"/>
      <point x="44.395978810162021" y="269.31037430252792" type="line"/>
    </contour>
  </outline>
</glyph>
<glyph name="currency" format="1">
  <advance width="1361.8799999999999"/>
  <unicode hex="00A4"/>
  <outline>
    <contour>
      <point x="1214.5379252477383" y="102.77461384853403" type="line"/>
      <point x="1102.7050688811762" y="255.02576558641394" type="line"/>
      <point x="1191.4285935933592" y="358.47091484391626"/>
      <point x="1244.7653704031268" y="478.71468839113351"/>
      <point x="1260.5785013405205" y="614.514966192825" type="curve" smooth="yes"/>
      <point x="1274.6810517621147" y="735.62509122417441"/>
      <point x="1255.6156239564318" y="852.18613424737327"/>
      <point x="1219.2418936757324" y="967.54910553156492" type="curve"/>
      <point x="1387.4522162559219" y="1104.6307587561766" type="line"/>
      <point x="1263.1744446935188" y="1265.4790971654008" type="line"/>
      <point x="1092.3608191935307" y="1116.9952914074972" type="line"/>
      <point x="1002.9588194213998" y="1193.7184100572597"/>
      <point x="888.6282516895053" y="1232.0137298765694"/>
      <point x="771.30660533092021" y="1233.4939915886073" type="curve" smooth="yes"/>
      <point x="641.9830498221346" y="1235.1256828717246"/>
      <point x="524.23370593266327" y="1191.1361967044213"/>
      <point x="417.44999647966324" y="1120.7292508834805" type="curve"/>
      <point x="309.22005858625579" y="1264.5781441780798" type="line"/>
      <point x="162.48162762086616" y="1135.3441807321117" type="line"/>
      <point x="277.87319379698351" y="976.93987260047754" type="line"/>
      <point x="180.91446367760318" y="871.3147503267611"/>
      <point x="122.36725816016815" y="744.97298196213251"/>
      <point x="105.83392004186699" y="602.06622696231977" type="curve" smooth="yes"/>
      <point x="92.216278176633466" y="484.36144189196625"/>
      <point x="109.74582704395627" y="370.3524749718332"/>
      <point x="143.59531247794905" y="257.6947524973798" type="curve"/>
      <point x="-10.432546390494494" y="133.32488867373922" type="line"/>
      <point x="112.81226163009565" y="-26.577796298978495" type="line"/>
      <point x="266.51285277455975" y="106.17496338658951" type="line"/>
      <point x="356.50176958375516" y="23.677224665670167"/>
      <point x="475.85402373888189" y="-18.363300994264506"/>
      <point x="597.35605231361808" y="-20.048989210234026" type="curve" smooth="yes"/>
      <point x="733.70665662971282" y="-21.940682786317705"/>
      <point x="857.02108856595964" y="28.179744601254242"/>
      <point x="966.80554454202593" y="105.94824297150369" type="curve"/>
      <point x="1066.7283648543205" y="-27.537753972624394" type="line"/>
    </contour>
    <contour>
      <point x="287.78529194762734" y="598.77544793624293" type="curve" smooth="yes"/>
      <point x="322.145638529395" y="833.9791054077798"/>
      <point x="524.26176736868717" y="1050.6652350562179"/>
      <point x="772.90989934722415" y="1043.174943218009" type="curve" smooth="yes"/>
      <point x="1000.9003346226611" y="1036.3069451238964"/>
      <point x="1110.3778726544451" y="824.31010692196833"/>
      <point x="1080.0478480503348" y="616.85156482775574" type="curve" smooth="yes"/>
      <point x="1045.7971507670757" y="382.57546987423564"/>
      <point x="843.98738946223648" y="163.98584212792349"/>
      <point x="595.80110992417121" y="171.40896034990601" type="curve" smooth="yes"/>
      <point x="366.91836946969704" y="178.25472009346313"/>
      <point x="257.35473797070114" y="390.47203116989613"/>
    </contour>
  </outline>
</glyph>
<glyph name="yen" format="1">
  <advance width="1071.85"/>
  <unicode hex="00A5"/>
  <outline>
    <contour>
      <point x="905.96061850367573" y="263.07777844792167" type="line"/>
      <point x="939.30365407297518" y="451.90522132835986" type="line"/>
      <point x="670.03841526950407" y="452.06648193748339" type="line"/>
      <point x="687.87243298764997" y="551.92278950782304" type="line"/>
      <point x="955.08039400201392" y="552.25639743718261" type="line"/>
      <point x="991.24085094131806" y="741.66043212631519" type="line"/>
      <point x="790.59146869056883" y="743.99085019424888" type="line"/>
      <point x="1219.9540260482056" y="1455.6476991849186" type="line"/>
      <point x="870.20283141661446" y="1455.751522910637" type="line"/>
      <point x="586.61342069707223" y="928.70516703058001" type="line"/>
      <point x="486.46431648489897" y="1456.0962916832593" type="line"/>
      <point x="161.01589627510447" y="1455.0232491738982" type="line"/>
      <point x="342.44709174852528" y="741.99839801939936" type="line"/>
      <point x="99.715022571538029" y="741.92315844969278" type="line"/>
      <point x="66.162096574498648" y="552.09624976806629" type="line"/>
      <point x="361.62644841487025" y="551.93133691144385" type="line"/>
      <point x="343.75798886080736" y="452.08025366835381" type="line"/>
      <point x="49.454849858635654" y="451.91989150585192" type="line"/>
      <point x="16.095266595956318" y="263.09605045361792" type="line"/>
      <point x="311.54415764286659" y="262.92085710367047" type="line"/>
      <point x="265.41997177825044" y="0.0" type="line"/>
      <point x="591.71002115878321" y="0.0" type="line"/>
      <point x="637.82230229454865" y="262.90155960182136" type="line"/>
    </contour>
  </outline>
</glyph>
<glyph name="copyright" format="1">
  <advance width="1559.76"/>
  <unicode hex="00A9"/>
  <outline>
    <contour>
      <point x="103.12507374063058" y="722.44578302826858" type="curve" smooth="yes"/>
      <point x="64.888277992741848" y="349.66501140384577"/>
      <point x="297.01899965602445" y="-13.919284920969481"/>
      <point x="695.36626286551007" y="-20.327942865791059" type="curve" smooth="yes"/>
      <point x="1110.1773549935879" y="-27.00147283998524"/>
      <point x="1441.1005179935739" y="339.39998255192739"/>
      <point x="1481.6904844651162" y="735.45227134665492" type="curve" smooth="yes"/>
      <point x="1519.8825152237766" y="1108.1069569890053"/>
      <point x="1286.7522886074062" y="1469.8261018034177"/>
      <point x="889.20249235971505" y="1476.2058333200725" type="curve" smooth="yes"/>
      <point x="474.39973179211199" y="1482.8624340019651"/>
      <point x="143.79765840672212" y="1118.9737137616498"/>
    </contour>
    <contour>
      <point x="223.79230680896296" y="721.81776866871803" type="curve" smooth="yes"/>
      <point x="270.82405069219521" y="1052.9425851714127"/>
      <point x="555.68860993365934" y="1358.4380177882445"/>
      <point x="904.69821339473685" y="1351.2601487173404" type="curve" smooth="yes"/>
      <point x="1234.9592529271047" y="1344.4678700021548"/>
      <point x="1403.0023807331206" y="1038.4504556415923"/>
      <point x="1360.0447736673568" y="736.06764356826261" type="curve" smooth="yes"/>
      <point x="1313.0990269104814" y="405.61192480593962"/>
      <point x="1028.9529345874257" y="97.41315657897556"/>
      <point x="679.88000236481969" y="104.61430706731174" type="curve" smooth="yes"/>
      <point x="348.94261060219497" y="111.44133299890242"/>
      <point x="180.79306350737966" y="419.08358591459597"/>
    </contour>
    <contour>
      <point x="925.55620648026797" y="595.84888329553974" type="line"/>
      <point x="906.834642547415" y="483.07726299520397"/>
      <point x="846.088907742537" y="411.28212275499675"/>
      <point x="724.80809445963075" y="416.81697057456233" type="curve" smooth="yes"/>
      <point x="590.43978950111045" y="422.94908743284543"/>
      <point x="573.57297127115794" y="559.97159873397391"/>
      <point x="584.83223894458797" y="668.02817915647267" type="curve" smooth="yes"/>
      <point x="599.63059433690307" y="789.23206466500619" type="line" smooth="yes"/>
      <point x="617.08284582025112" y="915.11042050904121"/>
      <point x="687.92926177477773" y="1044.6289960809902"/>
      <point x="831.56294290541712" y="1041.6985945379797" type="curve" smooth="yes"/>
      <point x="948.4529881621487" y="1039.3138142671787"/>
      <point x="983.3839494808891" y="968.43710564687365"/>
      <point x="976.89003653653265" y="860.68464156010782" type="curve"/>
      <point x="1128.8822595743973" y="859.2156289361036" type="line"/>
      <point x="1130.4681741279687" y="1052.4417618973023"/>
      <point x="1018.3645567913592" y="1172.1834980254159"/>
      <point x="822.9350047774733" y="1175.669407838031" type="curve" smooth="yes"/>
      <point x="596.29908447961668" y="1179.7119508941662"/>
      <point x="466.10006091262801" y="996.95017203913267"/>
      <point x="444.75606206049792" y="787.99465986684697" type="curve" smooth="yes"/>
      <point x="433.46147316727377" y="668.92156612758242" type="line" smooth="yes"/>
      <point x="418.59300668325648" y="470.18200092992618"/>
      <point x="518.25123942119876" y="287.36625752864262"/>
      <point x="734.20000116583446" y="281.6699236951406" type="curve" smooth="yes"/>
      <point x="937.86417284802292" y="276.29763490564847"/>
      <point x="1066.2755918151151" y="395.70174413608424"/>
      <point x="1077.235437750795" y="596.83877220389309" type="curve"/>
    </contour>
  </outline>
</glyph>
<glyph name="ordfeminine" format="1">
  <advance width="878.8199999999999"/>
  <unicode hex="00AA"/>
  <outline>
    <contour>
      <point x="618.16174163688095" y="701.64457162564076" type="curve"/>
      <point x="782.03324775338672" y="701.7971105109151" type="line"/>
      <point x="769.39676132446982" y="764.39117619854608"/>
      <point x="771.46561132055228" y="823.04028328613538"/>
      <point x="781.72706845271296" y="885.95692731574752" type="curve" smooth="yes"/>
      <point x="829.67386547381102" y="1199.9005091317531" type="line"/>
      <point x="842.2918071593806" y="1365.5069561130863"/>
      <point x="737.10337604220376" y="1474.0819162229286"/>
      <point x="572.74734588714898" y="1477.2685470629629" type="curve" smooth="yes"/>
      <point x="420.7380038541495" y="1480.2157930924434"/>
      <point x="270.93096777789015" y="1407.0549195957053"/>
      <point x="261.71904334051294" y="1242.0852242758449" type="curve"/>
      <point x="435.47726417700801" y="1228.5692938782609" type="line"/>
      <point x="454.36706942763789" y="1298.6609758706718"/>
      <point x="510.73125841686857" y="1330.8569804759049"/>
      <point x="583.01460217835438" y="1328.1515840838811" type="curve" smooth="yes"/>
      <point x="657.47383155495538" y="1325.3647493855165"/>
      <point x="670.02474872787866" y="1268.4006885925844"/>
      <point x="658.36249179255651" y="1204.3004899616042" type="curve"/>
      <point x="644.85747567757494" y="1148.9437317978495" type="line"/>
      <point x="538.04424381942113" y="1150.7985095730101" type="line" smooth="yes"/>
      <point x="378.53026804882791" y="1151.1833993503058"/>
      <point x="186.13653356770706" y="1104.6616100928534"/>
      <point x="185.36575331098561" y="911.51265623528889" type="curve" smooth="yes"/>
      <point x="184.81929709906925" y="774.57681136873259"/>
      <point x="280.16579282556131" y="690.57341608991294"/>
      <point x="414.5652139372279" y="690.9901362261279" type="curve" smooth="yes"/>
      <point x="493.20870897853467" y="691.23397900234647"/>
      <point x="558.52598387799878" y="721.3874033477548"/>
      <point x="615.17516961399781" y="774.16999521546938" type="curve"/>
      <point x="614.70681153949977" y="749.52246619115317"/>
      <point x="615.68531901949973" y="726.17314534634841"/>
    </contour>
    <contour>
      <point x="444.82127827742295" y="833.30583163059725" type="curve" smooth="yes"/>
      <point x="391.88839171106383" y="834.08707886921366"/>
      <point x="348.27137559018206" y="855.6643111387325"/>
      <point x="359.71847621068753" y="914.87202811646739" type="curve" smooth="yes"/>
      <point x="376.99921980540233" y="1004.253034699731"/>
      <point x="479.57112365668706" y="1030.9981548568658"/>
      <point x="556.9381714950423" y="1033.4466843179509" type="curve" smooth="yes"/>
      <point x="634.60832409557383" y="1033.2616656382229" type="line"/>
      <point x="606.30415452681484" y="896.23989469347646" type="line"/>
      <point x="559.23090972673117" y="863.9211695779577"/>
      <point x="503.97000378566918" y="832.43284356082575"/>
    </contour>
  </outline>
</glyph>
<glyph name="logicalnot" format="1">
  <advance width="1092.22"/>
  <unicode hex="00AC"/>
  <outline>
    <contour>
      <point x="157.22154438881734" y="804.91821662919335" type="line"/>
      <point x="126.86736785933279" y="634.09809296538867" type="line"/>
      <point x="743.48630434840959" y="633.92564954645093" type="line"/>
      <point x="697.78822605277185" y="374.07863628100557" type="line"/>
      <point x="894.17527060952693" y="374.05871305923546" type="line"/>
      <point x="969.32530329579413" y="804.91234560271016" type="line"/>
    </contour>
  </outline>
</glyph>
<glyph name="registered" format="1">
  <advance width="1559.76"/>
  <unicode hex="00AE"/>
  <outline>
    <contour>
      <point x="103.01591904283428" y="722.46945085724667" type="curve" smooth="yes"/>
      <point x="64.750117468200202" y="349.6498780971354"/>
      <point x="296.95677815997226" y="-13.783986425750989"/>
      <point x="695.28348032517295" y="-20.195280075904407" type="curve" smooth="yes"/>
      <point x="1110.094765206162" y="-26.871902412075286"/>
      <point x="1441.10127746798" y="339.38090650655386"/>
      <point x="1481.7226596364515" y="735.47946829233513" type="curve" smooth="yes"/>
      <point x="1519.94382184906" y="1108.1735169440283"/>
      <point x="1286.736583360386" y="1469.7422261422707"/>
      <point x="889.20715388638314" y="1476.1243085265014" type="curve" smooth="yes"/>
      <point x="474.40469396269037" y="1482.7836984386329"/>
      <point x="143.71980461441547" y="1119.0430127327363"/>
    </contour>
    <contour>
      <point x="223.68027453035842" y="721.84313727658719" type="curve" smooth="yes"/>
      <point x="270.74646465834849" y="1053.0142429171296"/>
      <point x="555.684052411724" y="1358.3542845646482"/>
      <point x="904.70384239820623" y="1351.1763375728249" type="curve" smooth="yes"/>
      <point x="1234.9693952130028" y="1344.3840905445929"/>
      <point x="1403.0700480982127" y="1038.5255657952125"/>
      <point x="1360.080061822023" y="736.09347021671169" type="curve" smooth="yes"/>
      <point x="1313.0998970521061" y="405.59069706605862"/>
      <point x="1028.879815337632" y="97.54743245146976"/>
      <point x="679.79629649897993" y="104.74902478035638" type="curve" smooth="yes"/>
      <point x="348.85435272413173" y="111.57635645022347"/>
      <point x="180.64867456863118" y="419.06055602126202"/>
    </contour>
    <contour>
      <point x="811.00383832236048" y="651.18480711085817" type="line" smooth="yes"/>
      <point x="898.61056227320614" y="645.94209264951655"/>
      <point x="919.65021512805424" y="598.8196310297858"/>
      <point x="910.76335606057762" y="516.03322893775442" type="curve" smooth="yes"/>
      <point x="903.67359682584652" y="460.87572023011256" type="line" smooth="yes"/>
      <point x="898.06675275550992" y="411.90569904343687"/>
      <point x="894.22558198095999" y="363.40770067238981"/>
      <point x="902.34110752750905" y="314.61170661032412" type="curve"/>
      <point x="1050.3656219680774" y="313.41555081016907" type="line"/>
      <point x="1051.3674822992282" y="333.56161155114569" type="line"/>
      <point x="1046.6417660951179" y="376.94726384024983"/>
      <point x="1043.8474442057056" y="414.5097483894524"/>
      <point x="1048.7181231400821" y="458.91889856373405" type="curve" smooth="yes"/>
      <point x="1055.0042236645058" y="515.22101579713831" type="line" smooth="yes"/>
      <point x="1061.7837293489122" y="592.76100362257284"/>
      <point x="1052.2084969060718" y="674.04430875764001"/>
      <point x="989.00768150652641" y="726.49615659567394" type="curve"/>
      <point x="1060.9937603255964" y="769.56452702135948"/>
      <point x="1116.221949818691" y="819.81880070180273"/>
      <point x="1119.7227056867296" y="908.84735357626835" type="curve" smooth="yes"/>
      <point x="1126.5993454428158" y="1083.7288103818742"/>
      <point x="985.5094472301131" y="1160.5796099409936"/>
      <point x="828.66948509253746" y="1164.8469965938261" type="curve" smooth="yes"/>
      <point x="573.57110960081422" y="1165.9866811421912" type="line"/>
      <point x="440.40390620195922" y="316.05526582010242" type="line"/>
      <point x="589.14517950829634" y="316.05621016319202" type="line"/>
      <point x="642.08704691504317" y="653.18942703520861" type="line"/>
    </contour>
    <contour>
      <point x="701.51586998966093" y="1033.1355498723556" type="line"/>
      <point x="843.82418466443085" y="1032.3320679290825" type="line" smooth="yes"/>
      <point x="929.21626318948324" y="1029.8007222939002"/>
      <point x="996.30545484516824" y="1008.7177811766892"/>
      <point x="975.67887319241765" y="909.32897247551648" type="curve" smooth="yes"/>
      <point x="956.55925601095464" y="817.20144468252988"/>
      <point x="853.6622809593307" y="788.04131110709307"/>
      <point x="771.72830911088431" y="786.3432916880646" type="curve" smooth="yes"/>
      <point x="662.76666308644155" y="786.9583367638096" type="line"/>
    </contour>
  </outline>
</glyph>
<glyph name="degree" format="1">
  <advance width="783.76"/>
  <unicode hex="00B0"/>
  <outline>
    <contour>
      <point x="225.74190215634042" y="1186.2736194639049" type="curve" smooth="yes"/>
      <point x="223.72829814076977" y="1043.6413469078125"/>
      <point x="332.51022028223809" y="919.26377498830675"/>
      <point x="477.93124154870418" y="917.0163152781671" type="curve" smooth="yes"/>
      <point x="634.51154639741151" y="914.59639054181116"/>
      <point x="757.91155026424451" y="1051.0062063555574"/>
      <point x="760.25683831111041" y="1203.621874282923" type="curve" smooth="yes"/>
      <point x="762.41780283504329" y="1344.2429995336502"/>
      <point x="658.98975295755736" y="1474.6531619650223"/>
      <point x="513.04336695800805" y="1477.0156220370611" type="curve" smooth="yes"/>
      <point x="355.23471675422905" y="1479.570098686657"/>
      <point x="227.91736236880337" y="1340.37086577428"/>
    </contour>
    <contour>
      <point x="374.30357857050149" y="1187.5630461299202" type="curve" smooth="yes"/>
      <point x="385.02789286407528" y="1258.0292812424168"/>
      <point x="450.2198415357953" y="1324.3057436054296"/>
      <point x="523.96581311905948" y="1323.496029944467" type="curve" smooth="yes"/>
      <point x="589.31417928935139" y="1322.7785200429269"/>
      <point x="621.67662904553379" y="1262.0568768490316"/>
      <point x="612.16213767089005" y="1202.4198100025653" type="curve" smooth="yes"/>
      <point x="601.04673513610987" y="1132.7481924783037"/>
      <point x="540.81482869287606" y="1070.58343364762"/>
      <point x="467.83842376382495" y="1070.5133933777649" type="curve" smooth="yes"/>
      <point x="403.58518218859251" y="1070.4517253032227"/>
      <point x="365.06348918907071" y="1126.8492053202988"/>
    </contour>
  </outline>
</glyph>
<glyph name="plusminus" format="1">
  <advance width="1068.94"/>
  <unicode hex="00B1"/>
  <outline>
    <contour>
      <point x="989.13615071769016" y="703.06567958860751" type="line"/>
      <point x="1031.940779973869" y="973.91959647158103" type="line"/>
      <point x="723.99083689085126" y="974.06625730400856" type="line"/>
      <point x="774.27772992529606" y="1292.9337057979546" type="line"/>
      <point x="499.40091583561366" y="1292.9457337904512" type="line"/>
      <point x="449.1141915367516" y="974.08208375444997" type="line"/>
      <point x="141.11623930869848" y="973.93337441320477" type="line"/>
      <point x="98.311046878467991" y="703.07967834832789" type="line"/>
      <point x="407.22010245141149" y="702.93393750454186" type="line"/>
      <point x="352.42644503015447" y="355.06474793784713" type="line"/>
      <point x="627.30258482384613" y="355.052503150907" type="line"/>
      <point x="682.09801561326219" y="702.91812141303501" type="line"/>
    </contour>
    <contour>
      <point x="898.93913563286196" y="264.92288148312906" type="line"/>
      <point x="48.853119487858734" y="264.93638060474422" type="line"/>
      <point x="7.1142147557375353" y="1.0770050824648509" type="line"/>
      <point x="857.20023090074073" y="1.0635059608696185" type="line"/>
    </contour>
  </outline>
</glyph>
<glyph name="mu" format="1">
  <advance width="1258.09"/>
  <unicode hex="00B5"/>
  <outline>
    <contour>
      <point x="508.46865046746711" y="-21.679566345982447" type="curve" smooth="yes"/>
      <point x="591.75588419917142" y="-22.595942734325376"/>
      <point x="663.11066428257857" y="6.8627043686184237"/>
      <point x="726.78017747986769" y="58.981622004258156" type="curve"/>
      <point x="718.63637759888081" y="0.0" type="line"/>
      <point x="999.19045540646653" y="0.0" type="line"/>
      <point x="1187.0599558795634" y="1081.9278489708529" type="line"/>
      <point x="872.4231228683492" y="1081.94272021334" type="line"/>
      <point x="739.6878162211799" y="334.37923600090784" type="line"/>
      <point x="685.49540389342121" y="273.03970979395774"/>
      <point x="619.86369282158716" y="240.56395220025018"/>
      <point x="536.69525263393905" y="242.8993394872351" type="curve" smooth="yes"/>
      <point x="409.84873426063416" y="246.46121639317363"/>
      <point x="412.15790543308793" y="358.8374293751292"/>
      <point x="424.7976587119897" y="460.57362131496518" type="curve" smooth="yes"/>
      <point x="528.25961498777383" y="1081.9083644972063" type="line"/>
      <point x="213.79221063550784" y="1081.9466600123956" type="line"/>
      <point x="-46.152773094072394" y="-415.92474127709147" type="line"/>
      <point x="268.3085888499815" y="-415.93175988245008" type="line"/>
      <point x="354.82664658461431" y="20.363523513577348" type="line"/>
      <point x="402.73486071349419" y="-7.009660276205139"/>
      <point x="453.04400917539647" y="-21.069751007703342"/>
    </contour>
  </outline>
</glyph>
<glyph name="paragraph" format="1">
  <advance width="971.9399999999999"/>
  <unicode hex="00B6"/>
  <outline>
    <contour>
      <point x="751.82165328189387" y="0.0" type="line"/>
      <point x="1004.4814458584312" y="1455.8740062083609" type="line"/>
      <point x="683.31931313193195" y="1457.1008508534114" type="line" smooth="yes"/>
      <point x="394.35645143250969" y="1457.1364221147658"/>
      <point x="170.03907943280407" y="1274.5512699642481"/>
      <point x="144.93712910383152" y="980.49458735080339" type="curve" smooth="yes"/>
      <point x="121.78506963030109" y="709.27989226801719"/>
      <point x="291.62834592210538" y="527.23626265640496"/>
      <point x="561.6360511860936" y="520.80464574955158" type="curve" smooth="yes"/>
      <point x="620.84146996887523" y="520.12076773904801" type="line"/>
      <point x="530.28770946809061" y="0.0" type="line"/>
    </contour>
  </outline>
</glyph>
<glyph name="cedilla" format="1">
  <advance width="546.11"/>
  <unicode hex="00B8"/>
  <outline>
    <contour>
      <point x="129.1307618901817" y="0" type="move" name="_bottom"/>
    </contour>
    <contour>
      <point x="47.57762791045802" y="-472" type="move" name="mkmkbottom_acc"/>
    </contour>
    <contour>
      <point x="4.6729939452153246" y="9.1662818080753556" type="line"/>
      <point x="-37.34639206834126" y="-135.65470154132524" type="line"/>
      <point x="4.4306009116787095" y="-139.94351723767213"/>
      <point x="92.547402139334253" y="-136.55142502453955"/>
      <point x="78.963698634878696" y="-201.50233700584741" type="curve" smooth="yes"/>
      <point x="66.843769391527601" y="-259.45416562507256"/>
      <point x="20.533908718287968" y="-280.21989095266628"/>
      <point x="-32.89226872408355" y="-285.86088382381871" type="curve"/>
      <point x="-43.318733498012939" y="-474.77127462410255" type="line"/>
      <point x="121.45636807082175" y="-470.05457945666956"/>
      <point x="347.63578016354148" y="-426.02993320779359"/>
      <point x="345.98854890182849" y="-217.30293834718717" type="curve" smooth="yes"/>
      <point x="345.34186109462883" y="-135.35864446011675"/>
      <point x="302.62496369453538" y="-72.078603624651109"/>
      <point x="220.56018693793129" y="-55.829671867926017" type="curve"/>
      <point x="241.01564145663059" y="12.28586624780236" type="line"/>
    </contour>
  </outline>
</glyph>
<glyph name="questiondown" format="1">
  <advance width="1004.92"/>
  <unicode hex="00BF"/>
  <outline>
    <contour>
      <point x="775.25261510927146" y="940.05522535517503" type="curve" smooth="yes"/>
      <point x="772.424944913216" y="1036.9238000200767"/>
      <point x="694.59252170151353" y="1105.5638770604053"/>
      <point x="599.11602691501696" y="1104.1850373873117" type="curve" smooth="yes"/>
      <point x="500.15352791158057" y="1102.7558540047467"/>
      <point x="424.28040769703642" y="1027.8200442139064"/>
      <point x="427.19836626411018" y="927.85830708065873" type="curve" smooth="yes"/>
      <point x="430.02603308791436" y="830.9897322725609"/>
      <point x="507.85846228525423" y="762.3496553663357"/>
      <point x="603.33495449783891" y="763.72849500631196" type="curve" smooth="yes"/>
      <point x="702.29745128579816" y="765.15767836108409"/>
      <point x="778.17057715250166" y="840.09348849905507"/>
    </contour>
    <contour>
      <point x="398.20354653436897" y="630.43268909903793" type="line"/>
      <point x="346.99553278192275" y="586.779103995931"/>
      <point x="344.43993290612809" y="464.57565764095358"/>
      <point x="268.68215557511371" y="404.89907255195214" type="curve" smooth="yes"/>
      <point x="134.19502240218884" y="298.95968086279981"/>
      <point x="-20.407638471006607" y="188.66698278762726"/>
      <point x="-32.508873070748876" y="2.4634334682710306" type="curve" smooth="yes"/>
      <point x="-49.045821573777992" y="-251.99312472794946"/>
      <point x="133.40104314170492" y="-380.57841230426061"/>
      <point x="371.35739357708331" y="-385.45163049135721" type="curve" smooth="yes"/>
      <point x="642.33421314475629" y="-391.00109014218253"/>
      <point x="847.22038918529029" y="-238.88550369842247"/>
      <point x="865.87784178357242" y="38.989208330215689" type="curve"/>
      <point x="550.94792282094511" y="37.06800427889403" type="line"/>
      <point x="532.82277758495388" y="-52.921850371071152"/>
      <point x="482.51501979899103" y="-131.5801409740985"/>
      <point x="380.49205986618631" y="-129.0465224904699" type="curve" smooth="yes"/>
      <point x="302.88153020836813" y="-127.11915758560178"/>
      <point x="278.62742545595819" y="-70.896976167418913"/>
      <point x="289.61591524149469" y="-0.096337281660828028" type="curve" smooth="yes"/>
      <point x="307.29751818755062" y="113.82912559248439"/>
      <point x="409.63880883404767" y="189.71209330777248"/>
      <point x="493.26127452949879" y="257.36069715481642" type="curve" smooth="yes"/>
      <point x="617.04288342247867" y="357.49710133652707"/>
      <point x="654.09815430875949" y="477.40465192808989"/>
      <point x="661.41014458446023" y="632.71821092192306" type="curve"/>
    </contour>
  </outline>
</glyph>
<glyph name="AE" format="1">
  <advance width="1868.22"/>
  <unicode hex="00C6"/>
  <outline>
    <contour>
      <point x="1080.8354482785601" y="1612" type="move" name="top"/>
    </contour>
    <contour>
      <point x="2041.0020635163637" y="1600" type="move" name="top_dd"/>
    </contour>
    <contour>
      <point x="2043.0754482785601" y="1612" type="move" name="top0315"/>
    </contour>
    <contour>
      <point x="1743.8247680282477" y="263.90420361696835" type="line"/>
      <point x="1173.9972111428274" y="264.04504860156175" type="line"/>
      <point x="1220.6031300717873" y="611.93680535302735" type="line"/>
      <point x="1665.8049435768994" y="612.0696180037146" type="line"/>
      <point x="1712.1050147687847" y="875.9102995274385" type="line"/>
      <point x="1255.3152793986503" y="876.05095562251267" type="line"/>
      <point x="1297.432544270039" y="1191.9324736690814" type="line"/>
      <point x="1844.8655069934446" y="1192.0748839758248" type="line"/>
      <point x="1891.1762944184029" y="1455.9008221989968" type="line"/>
      <point x="878.74844826527078" y="1455.6842222727587" type="line"/>
      <point x="-102.42964588914435" y="0.0" type="line"/>
      <point x="280.22810290255654" y="0.0" type="line"/>
      <point x="489.22242150735883" y="328.59140826933702" type="line"/>
      <point x="869.84063200788819" y="328.95471767198666" type="line"/>
      <point x="826.2775460138613" y="0.0" type="line"/>
      <point x="1697.5261826081" y="0.0" type="line"/>
    </contour>
    <contour>
      <point x="654.05420004620748" y="601.14982839438221" type="line"/>
      <point x="971.25750376335259" y="1087.6969809322225" type="line"/>
      <point x="906.58007639614618" y="598.9608538249621" type="line"/>
    </contour>
  </outline>
</glyph>
<glyph name="Eth" format="1">
  <advance width="1326.29"/>
  <unicode hex="00D0"/>
  <outline>
    <contour>
      <point x="653.9020635163638" y="1600" type="move" name="parent_top"/>
    </contour>
    <contour>
      <point x="379.1785825253454" y="10" type="move" name="bottom"/>
    </contour>
    <contour>
      <point x="1489.0720635163639" y="1600" type="move" name="top_dd"/>
    </contour>
    <contour>
      <point x="1142.2984620390216" y="-407" type="move" name="bottom_dd"/>
    </contour>
    <contour>
      <point x="1489.0720635163639" y="1600" type="move" name="top0315"/>
    </contour>
    <contour>
      <point x="653.9020635163638" y="1600" type="move" name="top"/>
    </contour>
    <component base="D" xOffset="29.099999999999994"/>
    <component base="crossbar" xOffset="-134.6845130162618" yOffset="-16"/>
  </outline>
</glyph>
<glyph name="Oslash" format="1">
  <advance width="1367.7"/>
  <unicode hex="00D8"/>
  <outline>
    <contour>
      <point x="880.08793621657469" y="1674" type="move" name="top"/>
    </contour>
    <contour>
      <point x="1540.4820635163637" y="1600" type="move" name="top_dd"/>
    </contour>
    <contour>
      <point x="1553.2679362165748" y="1674" type="move" name="top0315"/>
    </contour>
    <contour>
      <point x="610.60518568600548" y="-21.085113922974294" type="curve" smooth="yes"/>
      <point x="1023.3576531629631" y="-26.099967369724315"/>
      <point x="1275.70385669854" y="319.8439371656072"/>
      <point x="1326.0774137492933" y="699.29174292062294" type="curve" smooth="yes"/>
      <point x="1333.7199604970481" y="759.42739856578896" type="line" smooth="yes"/>
      <point x="1356.9087660101832" y="950.39687185805087"/>
      <point x="1332.305808964747" y="1131.226846983101"/>
      <point x="1236.7623106046408" y="1299.1625389572609" type="curve"/>
      <point x="1410.7424205463149" y="1517.0088270209667" type="line"/>
      <point x="1192.9581355555194" y="1517.7521475445676" type="line"/>
      <point x="1106.0560786483868" y="1404.9082756902612" type="line"/>
      <point x="1019.5093278013342" y="1452.8243934966899"/>
      <point x="923.62279385767954" y="1475.2664086691805"/>
      <point x="824.85030121132797" y="1476.6241590637962" type="curve" smooth="yes"/>
      <point x="411.56447829014473" y="1482.3052851964483"/>
      <point x="158.65917229996487" y="1135.4389488048068"/>
      <point x="108.39483069261969" y="755.56362772786861" type="curve" smooth="yes"/>
      <point x="100.76133189462915" y="695.30865828975357" type="line" smooth="yes"/>
      <point x="77.535318710138498" y="503.06373973638415"/>
      <point x="102.46625130457222" y="320.70371785258635"/>
      <point x="200.88746228944444" y="152.74878713739727" type="curve"/>
      <point x="5.9753817928843773" y="-94.079525280949426" type="line"/>
      <point x="223.15809288511446" y="-94.854024398177728" type="line"/>
      <point x="334.6255300983143" y="48.004053648958909" type="line"/>
      <point x="419.54773174628195" y="1.2863137836967908"/>
      <point x="513.91899242668808" y="-19.910397530644804"/>
    </contour>
    <contour>
      <point x="429.94542811318411" y="697.70639000054121" type="curve" smooth="yes"/>
      <point x="439.51176835504475" y="759.21262433690617" type="line" smooth="yes"/>
      <point x="471.59968963169325" y="961.60508107779492"/>
      <point x="566.11812460569149" y="1212.1033794251582"/>
      <point x="812.03479984283808" y="1204.0677536995852" type="curve" smooth="yes"/>
      <point x="857.09015285120654" y="1202.5955153759348"/>
      <point x="903.44325024096906" y="1191.8359654349929"/>
      <point x="938.11056007297361" y="1161.7520551490045" type="curve"/>
      <point x="410.26221529966256" y="449.7924285874679" type="line"/>
      <point x="407.99419728099696" y="533.04656155505609"/>
      <point x="416.99001310732854" y="615.55618810902729"/>
    </contour>
    <contour>
      <point x="1005.1527076585908" y="759.30948971758789" type="curve" smooth="yes"/>
      <point x="995.51809118916117" y="697.78341756244129" type="line" smooth="yes"/>
      <point x="963.60536576602829" y="498.08836284560971"/>
      <point x="867.09998552944444" y="243.76155790697433"/>
      <point x="623.68350961239889" y="251.06671899631374" type="curve" smooth="yes"/>
      <point x="579.72972771163188" y="252.38581400030279"/>
      <point x="533.73678401141433" y="262.39151129989375"/>
      <point x="499.33605343112606" y="291.07944980535819" type="curve"/>
      <point x="1025.4810023788182" y="999.45677049980952" type="line"/>
      <point x="1026.6092804322609" y="918.79739091851695"/>
      <point x="1017.7845645932704" y="838.88754701023913"/>
    </contour>
  </outline>
</glyph>
<glyph name="Yacute" format="1">
  <advance width="1251.6"/>
  <unicode hex="00DD"/>
  <outline>
    <contour>
      <point x="794.55206351636377" y="1600" type="move" name="parent_top"/>
    </contour>
    <contour>
      <point x="523.31151887545082" y="47" type="move" name="bottom"/>
    </contour>
    <contour>
      <point x="1414.3820635163638" y="1600" type="move" name="top_dd"/>
    </contour>
    <contour>
      <point x="1067.6084620390216" y="-407" type="move" name="bottom_dd"/>
    </contour>
    <contour>
      <point x="1414.3820635163638" y="1600" type="move" name="top0315"/>
    </contour>
    <contour>
      <point x="860.20924765258201" y="1980" type="move" name="top"/>
    </contour>
    <component base="Y"/>
    <component base="acute" xOffset="439.62243969007278" yOffset="310"/>
  </outline>
</glyph>
<glyph name="ae" format="1">
  <advance width="1678.1"/>
  <unicode hex="00E6"/>
  <outline>
    <contour>
      <point x="956.50240588980751" y="1291" type="move" name="top"/>
    </contour>
    <contour>
      <point x="1850.8820635163638" y="1600" type="move" name="top_dd"/>
    </contour>
    <contour>
      <point x="1797.4924058898073" y="1291" type="move" name="top0315"/>
    </contour>
    <contour>
      <point x="1521.3236953415958" y="97.953442512648451" type="curve"/>
      <point x="1457.7980933447757" y="307.99873718136763" type="line"/>
      <point x="1363.5640717920294" y="267.74455219664316"/>
      <point x="1270.1107897803145" y="239.34596390427586"/>
      <point x="1166.3506009576979" y="242.2419876569995" type="curve" smooth="yes"/>
      <point x="1042.6389153214168" y="245.69487246915645"/>
      <point x="973.08423640190006" y="310.72236580920321"/>
      <point x="983.22711638973306" y="435.4794287775623" type="curve"/>
      <point x="1605.5958291030734" y="435.10563671213669" type="line"/>
      <point x="1632.5818762304143" y="612.21282289303178" type="line" smooth="yes"/>
      <point x="1661.69289447557" y="871.88918246193248"/>
      <point x="1530.7440919803976" y="1094.6427637794122"/>
      <point x="1253.3525516616855" y="1100.9353799034045" type="curve" smooth="yes"/>
      <point x="1134.9387650178771" y="1103.6215919713056"/>
      <point x="1026.6008242135367" y="1071.8812180874229"/>
      <point x="928.24648906966581" y="1006.592311862385" type="curve"/>
      <point x="848.75273703592779" y="1079.8429890735617"/>
      <point x="735.39443492897965" y="1101.6637017517714"/>
      <point x="630.3634669656534" y="1103.1912401928216" type="curve" smooth="yes"/>
      <point x="412.1413965155856" y="1106.3649955886058"/>
      <point x="140.40945128560938" y="1011.8711775281876"/>
      <point x="131.71749954023693" y="757.63294144654333" type="curve"/>
      <point x="445.83956775786635" y="740.19175930996971" type="line"/>
      <point x="463.94505290590007" y="815.58404970139804"/>
      <point x="539.52160186778895" y="844.91366195090961"/>
      <point x="612.23951437529536" y="842.31065130440743" type="curve" smooth="yes"/>
      <point x="695.71764702630458" y="839.32246778059869"/>
      <point x="721.66904973499368" y="779.64785976870496"/>
      <point x="708.76155288235782" y="703.88679913956139" type="curve" smooth="yes"/>
      <point x="698.19362859850469" y="655.07291203081456" type="line"/>
      <point x="547.80341702141163" y="655.70916476027594" type="line" smooth="yes"/>
      <point x="320.6965277169856" y="655.80681003082771"/>
      <point x="23.179408300481896" y="594.90064335364571"/>
      <point x="11.515217272010275" y="316.58766221285686" type="curve" smooth="yes"/>
      <point x="2.1622126386358254" y="93.420655106737996"/>
      <point x="173.74591395953684" y="-16.167149303113696"/>
      <point x="380.30801545957161" y="-19.502612218918973" type="curve" smooth="yes"/>
      <point x="525.49728639750322" y="-21.847056942658355"/>
      <point x="658.27207156345594" y="23.724484128422958"/>
      <point x="768.80979931212119" y="117.30125000913121" type="curve"/>
      <point x="853.91158730309689" y="16.411933610312175"/>
      <point x="991.32973494805856" y="-18.195548372006019"/>
      <point x="1118.625293748305" y="-19.670816103338893" type="curve" smooth="yes"/>
      <point x="1250.3478502350695" y="-21.19738968457855"/>
      <point x="1419.1642955263878" y="6.7829191243562406"/>
    </contour>
    <contour>
      <point x="1233.7478201009571" y="843.57211346119368" type="curve" smooth="yes"/>
      <point x="1330.0965433444981" y="839.56393474302797"/>
      <point x="1345.6523752197959" y="755.80131725373508"/>
      <point x="1330.9154517274922" y="675.00154614451628" type="curve" smooth="yes"/>
      <point x="1324.1480899488636" y="644.89938006483942" type="line"/>
      <point x="1004.2966875549178" y="644.56429678439508" type="line"/>
      <point x="1044.1132317930424" y="749.80775553180433"/>
      <point x="1106.9373815078827" y="848.84752224813985"/>
    </contour>
    <contour>
      <point x="444.76954245159413" y="211.01604710435549" type="curve" smooth="yes"/>
      <point x="379.44543551315968" y="211.7362211550645"/>
      <point x="312.6145466139987" y="234.97475739572093"/>
      <point x="327.7953376719509" y="312.25926220829155" type="curve" smooth="yes"/>
      <point x="347.67542700439765" y="413.46761517373091"/>
      <point x="464.21976611025718" y="449.44381976878242"/>
      <point x="553.35271028053535" y="451.6001498427641" type="curve" smooth="yes"/>
      <point x="671.83671271819401" y="451.17910134406344" type="line"/>
      <point x="635.97244234710911" y="276.17835502782521" type="line"/>
      <point x="578.38260513353487" y="241.5457248714969"/>
      <point x="513.68160811353471" y="210.25631713947044"/>
    </contour>
  </outline>
</glyph>
<glyph name="ccedilla" format="1">
  <advance width="1044.02"/>
  <unicode hex="00E7"/>
  <outline>
    <contour>
      <point x="639.13962382629097" y="1290" type="move" name="parent_top"/>
    </contour>
    <contour>
      <point x="1206.8020635163639" y="1600" type="move" name="top_dd"/>
    </contour>
    <contour>
      <point x="860.02846203902163" y="-407" type="move" name="bottom_dd"/>
    </contour>
    <contour>
      <point x="1153.2396238262909" y="1290" type="move" name="top0315"/>
    </contour>
    <contour>
      <point x="639.13962382629097" y="1290" type="move" name="top"/>
    </contour>
    <contour>
      <point x="360.88762791045804" y="-472" type="move" name="bottom"/>
    </contour>
    <component base="c"/>
    <component base="cedilla" xOffset="313.31"/>
  </outline>
</glyph>
<glyph name="idieresis" format="1">
  <advance width="569.6899999999999"/>
  <unicode hex="00EF"/>
  <outline>
    <contour>
      <point x="395.92120049244738" y="1269" type="move" name="parent_top"/>
    </contour>
    <contour>
      <point x="167.71858252534537" y="10" type="move" name="bottom"/>
    </contour>
    <contour>
      <point x="675.28120049244728" y="1269" type="move" name="top0315"/>
    </contour>
    <contour>
      <point x="451.2114608176837" y="1589" type="move" name="top"/>
    </contour>
    <component base="dotlessi"/>
    <component base="dieresis" xOffset="-206.35842333384363" yOffset="-21"/>
  </outline>
</glyph>
<glyph name="eth" format="1">
  <advance width="1134.8999999999999"/>
  <unicode hex="00F0"/>
  <outline>
    <contour>
      <point x="1086.5295992362139" y="593.32686908098663" type="curve" smooth="yes"/>
      <point x="1094.6522789630592" y="656.11315199742876" type="line" smooth="yes"/>
      <point x="1123.92377564035" y="892.98649955710152"/>
      <point x="1072.1498099262121" y="1098.1597969032323"/>
      <point x="955.65281100391849" y="1303.1070899654626" type="curve"/>
      <point x="1090.1697341581275" y="1372.7858507433723" type="line"/>
      <point x="1030.6264954556716" y="1507.3644573794531" type="line"/>
      <point x="845.23687052920707" y="1402.5146720890484" type="line"/>
      <point x="738.13547139590878" y="1491.970748691607"/>
      <point x="606.97852604023853" y="1547.5523436219553"/>
      <point x="471.92687150789686" y="1579.032847696363" type="curve"/>
      <point x="353.76871551829709" y="1335.2586979284142" type="line"/>
      <point x="430.45935973267461" y="1314.7090440736313"/>
      <point x="509.29030118634893" y="1288.4165669507729"/>
      <point x="572.36739434875858" y="1238.3813996777578" type="curve"/>
      <point x="428.51486453881012" y="1160.8244730416068" type="line"/>
      <point x="489.03510318877591" y="1026.5156186368044" type="line"/>
      <point x="690.08113122329064" y="1141.2248243530573" type="line"/>
      <point x="742.28189330337477" y="1065.9423863103586"/>
      <point x="773.3113786561936" y="986.01473008261803"/>
      <point x="777.41751911894198" y="894.04693522346031" type="curve"/>
      <point x="706.97502223520098" y="936.41542897532565"/>
      <point x="630.81925971358692" y="960.74927479568851"/>
      <point x="548.18753914248373" y="962.43088438130292" type="curve" smooth="yes"/>
      <point x="250.67835329816012" y="968.48539099530558"/>
      <point x="70.22161798837368" y="741.22694955313023"/>
      <point x="47.667536285926914" y="460.03198855151288" type="curve" smooth="yes"/>
      <point x="25.953681333196695" y="189.31262709928558"/>
      <point x="211.10877275679269" y="-14.767334191247288"/>
      <point x="482.45772724947119" y="-20.741078062784272" type="curve" smooth="yes"/>
      <point x="828.47951664753919" y="-28.358743469675467"/>
      <point x="1044.0791122478352" y="279.52329218272126"/>
    </contour>
    <contour>
      <point x="362.18072692595467" y="459.06487402330993" type="curve" smooth="yes"/>
      <point x="378.07899069413565" y="596.79469017632186"/>
      <point x="455.83636124458451" y="724.45193026130585"/>
      <point x="608.2366935514774" y="722.46358772427675" type="curve" smooth="yes"/>
      <point x="671.01292579711992" y="721.64455635473178"/>
      <point x="743.0933498253986" y="706.42551516886624"/>
      <point x="783.68576048312036" y="654.65183414774162" type="curve"/>
      <point x="765.29093297120801" y="552.85751359950086" type="line" smooth="yes"/>
      <point x="741.80679112311373" y="416.67843584311538"/>
      <point x="672.44436362468059" y="231.98651663966231"/>
      <point x="503.98070642318271" y="238.29397206167167" type="curve" smooth="yes"/>
      <point x="383.23778397536159" y="242.81471329164415"/>
      <point x="350.22384409434017" y="355.48002361610105"/>
    </contour>
  </outline>
</glyph>
<glyph name="divide" format="1">
  <advance width="1131.99"/>
  <unicode hex="00F7"/>
  <outline>
    <contour>
      <point x="473.02519013100971" y="1080.162792064534" type="curve" smooth="yes"/>
      <point x="475.97675902207612" y="982.91148428638542"/>
      <point x="555.25070844817969" y="919.47495729145055"/>
      <point x="649.56094292508328" y="920.75385925766807" type="curve" smooth="yes"/>
      <point x="747.31369861549479" y="922.07944382597134"/>
      <point x="824.1818549386395" y="991.58506227577959"/>
      <point x="821.13921986685796" y="1091.8370321613299" type="curve" smooth="yes"/>
      <point x="818.18765447565147" y="1189.0883415473099"/>
      <point x="738.9136985154355" y="1252.5248654160703"/>
      <point x="644.6034663517496" y="1251.2459645682429" type="curve" smooth="yes"/>
      <point x="546.85071313005596" y="1249.9203811601171"/>
      <point x="469.98255143269068" y="1180.4147609084735"/>
    </contour>
    <contour>
      <point x="1104.6012017511036" y="806.90332723273741" type="line"/>
      <point x="94.466253979112665" y="806.92136885146328" type="line"/>
      <point x="51.584614891985936" y="563.0962511784553" type="line"/>
      <point x="1061.7195626639607" y="563.07820955974103" type="line"/>
    </contour>
    <contour>
      <point x="332.86445186738717" y="271.16285752131466" type="curve" smooth="yes"/>
      <point x="335.81602075845336" y="173.91154974316549"/>
      <point x="415.08997018450953" y="110.47502274823215"/>
      <point x="509.40020466145938" y="111.75392471444985" type="curve" smooth="yes"/>
      <point x="607.15296035194945" y="113.07950928275375"/>
      <point x="684.02111667508473" y="182.58512773030321"/>
      <point x="680.97848160323394" y="282.83709761811122" type="curve" smooth="yes"/>
      <point x="678.02691621202689" y="380.08840700408831"/>
      <point x="598.75296025183161" y="443.52493087285109"/>
      <point x="504.44272808812764" y="442.2460300250234" type="curve" smooth="yes"/>
      <point x="406.68997486655951" y="440.92044661689914"/>
      <point x="329.82181316913625" y="371.41482636301805"/>
    </contour>
  </outline>
</glyph>
<glyph name="oslash" format="1">
  <advance width="1118.41"/>
  <unicode hex="00F8"/>
  <outline>
    <contour>
      <point x="641.01293144519286" y="1284" type="move" name="top"/>
    </contour>
    <contour>
      <point x="1291.1920635163638" y="1600" type="move" name="top_dd"/>
    </contour>
    <contour>
      <point x="1236.5929314451928" y="1284" type="move" name="top0315"/>
    </contour>
    <contour>
      <point x="474.48340036704303" y="-21.631244078677604" type="curve" smooth="yes"/>
      <point x="802.59435675621091" y="-26.210042139554854"/>
      <point x="1015.1941511083876" y="220.36820509902907"/>
      <point x="1051.840576761437" y="531.62510283931113" type="curve" smooth="yes"/>
      <point x="1054.213614709673" y="553.58220314387552" type="line" smooth="yes"/>
      <point x="1070.3235775129622" y="715.74312869531082"/>
      <point x="1042.2671861207598" y="877.36034166298157"/>
      <point x="932.73150038998665" y="1002.62094284812" type="curve"/>
      <point x="1083.954655126425" y="1218.0573500606051" type="line"/>
      <point x="897.48876171481186" y="1218.938123600135" type="line"/>
      <point x="797.92931467834603" y="1074.8702974536791" type="line"/>
      <point x="741.02227402190636" y="1093.1306006688842"/>
      <point x="682.81542889983552" y="1102.9460314392713"/>
      <point x="622.96350661115389" y="1103.7428412677689" type="curve" smooth="yes"/>
      <point x="294.88306469734999" y="1108.1105826979247"/>
      <point x="82.439607846784824" y="860.47672146148238"/>
      <point x="45.783632750912389" y="549.52682167777095" type="curve" smooth="yes"/>
      <point x="43.423120047125749" y="527.71153365443297" type="line" smooth="yes"/>
      <point x="27.011807251598714" y="362.99581114953304"/>
      <point x="56.549054228458814" y="199.60320081877194"/>
      <point x="170.44584615212449" y="74.541500333438279" type="curve"/>
      <point x="16.913037354985462" y="-144.0686844392381" type="line"/>
      <point x="203.54732973909279" y="-144.79638033585957" type="line"/>
      <point x="304.70840950156867" y="5.0530310822172577" type="line"/>
      <point x="360.33301811615303" y="-11.342842868611759"/>
      <point x="416.36597983318893" y="-20.820213763286453"/>
    </contour>
    <contour>
      <point x="353.7876125561304" y="528.80954127762141" type="curve" smooth="yes"/>
      <point x="357.21331643875635" y="549.24464285407078" type="line" smooth="yes"/>
      <point x="381.74982827429795" y="687.08010114817739"/>
      <point x="447.08747615402916" y="848.58959567876991"/>
      <point x="612.65225578715581" y="845.98994641289323" type="curve" smooth="yes"/>
      <point x="629.42879635625854" y="845.72652612827073"/>
      <point x="645.60949249741793" y="843.14134753553196"/>
      <point x="661.79381929543263" y="839.12811663653576" type="curve"/>
      <point x="340.9701411485546" y="354.52862593768884" type="line"/>
      <point x="337.15426625052794" y="413.50010349892256"/>
      <point x="344.02702807366228" y="470.67331034150686"/>
    </contour>
    <contour>
      <point x="743.50523819567013" y="551.94992030138417" type="curve" smooth="yes"/>
      <point x="740.04348504371796" y="531.44612468930291" type="line" smooth="yes"/>
      <point x="715.07981086489963" y="391.69313949751836"/>
      <point x="651.69398239697284" y="233.96386317459243"/>
      <point x="484.75577453986182" y="235.69110245943793" type="curve" smooth="yes"/>
      <point x="470.56188707573887" y="235.83796063137717"/>
      <point x="456.5494621474802" y="237.64492259700918"/>
      <point x="442.66220984333847" y="240.33747147741653" type="curve"/>
      <point x="757.57127098868216" y="716.20966904615693" type="line"/>
      <point x="759.31332734003513" y="660.63699443821383"/>
      <point x="752.78349278579481" y="606.6796802672477"/>
    </contour>
  </outline>
</glyph>
<glyph name="ugrave" format="1">
  <advance width="1128.41"/>
  <unicode hex="00F9"/>
  <outline>
    <contour>
      <point x="676.96962382629101" y="1290" type="move" name="parent_top"/>
    </contour>
    <contour>
      <point x="1291.1920635163638" y="1600" type="move" name="top_dd"/>
    </contour>
    <contour>
      <point x="944.41846203902173" y="-407" type="move" name="bottom_dd"/>
    </contour>
    <contour>
      <point x="1237.6296238262912" y="1290" type="move" name="top0315"/>
    </contour>
    <contour>
      <point x="454.08076189018175" y="0" type="move" name="bottom"/>
    </contour>
    <contour>
      <point x="742.62680796250925" y="1670" type="move" name="top"/>
    </contour>
    <component base="u"/>
    <component base="grave" xOffset="129.97999999999999"/>
  </outline>
</glyph>
<glyph name="udieresis" format="1">
  <advance width="1128.41"/>
  <unicode hex="00FC"/>
  <outline>
    <contour>
      <point x="676.96962382629101" y="1290" type="move" name="parent_top"/>
    </contour>
    <contour>
      <point x="1291.1920635163638" y="1600" type="move" name="top_dd"/>
    </contour>
    <contour>
      <point x="944.41846203902173" y="-407" type="move" name="bottom_dd"/>
    </contour>
    <contour>
      <point x="1237.6296238262912" y="1290" type="move" name="top0315"/>
    </contour>
    <contour>
      <point x="454.08076189018175" y="0" type="move" name="bottom"/>
    </contour>
    <contour>
      <point x="732.25988415152744" y="1610" type="move" name="top"/>
    </contour>
    <component base="u"/>
    <component base="dieresis" xOffset="74.689999999999998"/>
  </outline>
</glyph>
<glyph name="thorn" format="1">
  <advance width="1118.41"/>
  <unicode hex="00FE"/>
  <outline>
    <contour>
      <point x="571.51757569319523" y="-20.576367968503291" type="curve" smooth="yes"/>
      <point x="877.15691825925205" y="-28.788882123372211"/>
      <point x="1020.2176421264608" y="271.99608948051178"/>
      <point x="1051.3447666693962" y="534.21003838788442" type="curve" smooth="yes"/>
      <point x="1053.742864579511" y="555.99273376724602" type="line" smooth="yes"/>
      <point x="1078.2629117065171" y="799.56287283957943"/>
      <point x="1011.8486004736124" y="1097.9966670313684"/>
      <point x="714.62074875127746" y="1101.8322057912267" type="curve" smooth="yes"/>
      <point x="614.90264557877833" y="1103.1190052871734"/>
      <point x="534.81857502627645" y="1062.5453966473199"/>
      <point x="467.33520995688161" y="991.41903033683741" type="curve"/>
      <point x="575.1767726692043" y="1535.9235145047685" type="line"/>
      <point x="259.46051546112136" y="1535.93949492979" type="line"/>
      <point x="-79.12716699418489" y="-415.92666651705457" type="line"/>
      <point x="236.39611674830621" y="-415.93938396722695" type="line"/>
      <point x="335.75893912105107" y="94.005474862084199" type="line"/>
      <point x="395.51010076742409" y="20.38133404383575"/>
      <point x="476.57591876855611" y="-18.02529030018318"/>
    </contour>
    <contour>
      <point x="622.752100963251" y="842.02262585601818" type="curve" smooth="yes"/>
      <point x="765.22869472170169" y="835.49852664592834"/>
      <point x="748.9821717511569" y="656.44586554393538"/>
      <point x="738.56618454039676" y="556.11028933674515" type="curve" smooth="yes"/>
      <point x="736.48007232722614" y="535.73279531770652" type="line" smooth="yes"/>
      <point x="720.5683786385448" y="406.67299727339105"/>
      <point x="665.66292299629174" y="235.56249429200312"/>
      <point x="506.99966707821477" y="239.06609810686396" type="curve" smooth="yes"/>
      <point x="439.93366041528645" y="240.54705042586238"/>
      <point x="389.01420229556743" y="267.11926152857251"/>
      <point x="364.45332962852871" y="330.20282736775965" type="curve"/>
      <point x="441.82722536560766" y="754.82434393421306" type="line"/>
      <point x="488.37306435045195" y="813.35413607945441"/>
      <point x="546.10446555116243" y="845.53237271657997"/>
    </contour>
  </outline>
</glyph>
<glyph name="Aogonek" format="1">
  <advance width="1358.3"/>
  <unicode hex="0104"/>
  <outline>
    <contour>
      <point x="848.87206351636382" y="1600" type="move" name="parent_top"/>
    </contour>
    <contour>
      <point x="577.85580046182906" y="9" type="move" name="bottom"/>
    </contour>
    <contour>
      <point x="1521.0820635163636" y="1600" type="move" name="top_dd"/>
    </contour>
    <contour>
      <point x="1174.3084620390216" y="-407" type="move" name="bottom_dd"/>
    </contour>
    <contour>
      <point x="1521.0820635163636" y="1600" type="move" name="top0315"/>
    </contour>
    <contour>
      <point x="848.87206351636382" y="1600" type="move" name="top"/>
    </contour>
    <component base="A"/>
    <component base="ogonek" xOffset="854.56999999999994"/>
  </outline>
</glyph>
<glyph name="ccircumflex" format="1">
  <advance width="1044.02"/>
  <unicode hex="0109"/>
  <outline>
    <contour>
      <point x="639.13962382629097" y="1290" type="move" name="parent_top"/>
    </contour>
    <contour>
      <point x="442.44076189018176" y="0" type="move" name="bottom"/>
    </contour>
    <contour>
      <point x="1206.8020635163639" y="1600" type="move" name="top_dd"/>
    </contour>
    <contour>
      <point x="860.02846203902163" y="-407" type="move" name="bottom_dd"/>
    </contour>
    <contour>
      <point x="1153.2396238262909" y="1290" type="move" name="top0315"/>
    </contour>
    <contour>
      <point x="699.61334605701836" y="1640" type="move" name="top"/>
    </contour>
    <component base="c"/>
    <component base="circumflex" xOffset="23.280000000000001"/>
  </outline>
</glyph>
<glyph name="ccaron" format="1">
  <advance width="1044.02"/>
  <unicode hex="010D"/>
  <outline>
    <contour>
      <point x="639.13962382629097" y="1290" type="move" name="parent_top"/>
    </contour>
    <contour>
      <point x="442.44076189018176" y="0" type="move" name="bottom"/>
    </contour>
    <contour>
      <point x="1206.8020635163639" y="1600" type="move" name="top_dd"/>
    </contour>
    <contour>
      <point x="860.02846203902163" y="-407" type="move" name="bottom_dd"/>
    </contour>
    <contour>
      <point x="1153.2396238262909" y="1290" type="move" name="top0315"/>
    </contour>
    <contour>
      <point x="701.3411666921819" y="1650" type="move" name="top"/>
    </contour>
    <component base="c"/>
    <component base="caron" xOffset="46.560000000000002"/>
  </outline>
</glyph>
<glyph name="dcroat" format="1">
  <advance width="1272.6399999999999"/>
  <unicode hex="0111"/>
  <outline>
    <contour>
      <point x="1296.6240114513164" y="1536" type="move" name="caron"/>
    </contour>
    <contour>
      <point x="457.96076189018174" y="0" type="move" name="bottom"/>
    </contour>
    <contour>
      <point x="637.41206351636379" y="1600" type="move" name="top"/>
    </contour>
    <contour>
      <point x="1291.1920635163638" y="1600" type="move" name="top_dd"/>
    </contour>
    <contour>
      <point x="944.41846203902173" y="-407" type="move" name="bottom_dd"/>
    </contour>
    <contour>
      <point x="457.96076189018174" y="0" type="move" name="markbottom"/>
    </contour>
    <contour>
      <point x="1445.4220635163638" y="1600" type="move" name="top0315"/>
    </contour>
    <contour>
      <point x="937.02361128716734" y="1313" type="move" name="parenthesses.w2"/>
    </contour>
    <contour>
      <point x="637.22141786419115" y="0.0" type="line"/>
      <point x="916.87080771963315" y="0.0" type="line"/>
      <point x="1127.4963466434463" y="1214.9187534703301" type="line"/>
      <point x="1268.9051848861011" y="1215.0829583692596" type="line"/>
      <point x="1302.3058971097669" y="1405.922096981403" type="line"/>
      <point x="1160.348980146596" y="1406.0798335294248" type="line"/>
      <point x="1183.3668851587104" y="1535.9294732563299" type="line"/>
      <point x="867.79031116748104" y="1535.9324331041921" type="line"/>
      <point x="844.64133307887118" y="1406.1075522232347" type="line"/>
      <point x="600.78158403012128" y="1405.911991457358" type="line"/>
      <point x="567.10639579428164" y="1215.0608914445579" type="line"/>
      <point x="812.3070390929239" y="1215.1232162835167" type="line"/>
      <point x="760.95440886423899" y="983.36862111763764" type="line"/>
      <point x="702.25893593459671" y="1058.234761170962"/>
      <point x="622.5274032735739" y="1099.2656260726053"/>
      <point x="526.90205478235475" y="1101.9448005264449" type="curve" smooth="yes"/>
      <point x="216.43599274245128" y="1110.6432550191657"/>
      <point x="77.827971999472851" y="813.51424313013854"/>
      <point x="45.012748854292923" y="547.33874848527023" type="curve" smooth="yes"/>
      <point x="42.418141786084661" y="524.96986080287058" type="line" smooth="yes"/>
      <point x="17.217963032436582" y="285.68348090031247"/>
      <point x="89.170473593035524" y="-14.737124819080259"/>
      <point x="379.93799536118291" y="-20.523941653797909" type="curve" smooth="yes"/>
      <point x="494.33923123028785" y="-22.800739948236455"/>
      <point x="581.64944045781726" y="34.045746231297258"/>
      <point x="652.90095616484928" y="118.91104957936231" type="curve"/>
    </contour>
    <contour>
      <point x="357.83434046157885" y="526.09049794736927" type="curve" smooth="yes"/>
      <point x="359.96810127479239" y="546.56439990855631" type="line" smooth="yes"/>
      <point x="376.32940782399987" y="676.91447613910475"/>
      <point x="433.1666311589596" y="849.12026283268824"/>
      <point x="593.58475696681796" y="843.94865023958221" type="curve" smooth="yes"/>
      <point x="662.72827764670228" y="841.71957855283233"/>
      <point x="709.02087348541147" y="809.67652088448142"/>
      <point x="731.93763296921179" y="745.25711835809" type="curve"/>
      <point x="657.76013502250851" y="337.39430767011464" type="line"/>
      <point x="611.05736596833026" y="277.71779762882744"/>
      <point x="552.47349867123398" y="236.80550619531297"/>
      <point x="473.46592504160765" y="239.84688208168436" type="curve" smooth="yes"/>
      <point x="330.52675614590447" y="245.34928800969456"/>
      <point x="347.31313228634156" y="426.30267440382266"/>
    </contour>
  </outline>
</glyph>
<glyph name="Eogonek" format="1">
  <advance width="1123.56"/>
  <unicode hex="0118"/>
  <outline>
    <contour>
      <point x="794.55206351636377" y="1600" type="move" name="parent_top"/>
    </contour>
    <contour>
      <point x="523.70858252534538" y="10" type="move" name="bottom"/>
    </contour>
    <contour>
      <point x="1286.3420635163639" y="1600" type="move" name="top_dd"/>
    </contour>
    <contour>
      <point x="939.5684620390216" y="-407" type="move" name="bottom_dd"/>
    </contour>
    <contour>
      <point x="1286.3420635163639" y="1600" type="move" name="top0315"/>
    </contour>
    <contour>
      <point x="794.55206351636377" y="1600" type="move" name="top"/>
    </contour>
    <component base="E"/>
    <component base="ogonek" xOffset="504.39999999999998"/>
  </outline>
</glyph>
<glyph name="Gbreve" format="1">
  <advance width="1364.12"/>
  <unicode hex="011E"/>
  <outline>
    <contour>
      <point x="856.63206351636381" y="1600" type="move" name="parent_top"/>
    </contour>
    <contour>
      <point x="600.55076189018178" y="0" type="move" name="bottom"/>
    </contour>
    <contour>
      <point x="1526.9020635163638" y="1600" type="move" name="top_dd"/>
    </contour>
    <contour>
      <point x="1180.1284620390215" y="-407" type="move" name="bottom_dd"/>
    </contour>
    <contour>
      <point x="1526.9020635163638" y="1600" type="move" name="top0315"/>
    </contour>
    <contour>
      <point x="916.06909336599301" y="1944" type="move" name="top"/>
    </contour>
    <component base="G"/>
    <component base="breve" xOffset="291.21243969007276" yOffset="310"/>
  </outline>
</glyph>
<glyph name="gbreve" format="1">
  <advance width="1150.72"/>
  <unicode hex="011F"/>
  <outline>
    <contour>
      <point x="656.59962382629101" y="1290" type="move" name="parent_top"/>
    </contour>
    <contour>
      <point x="356.47717949836715" y="-447" type="move" name="bottom"/>
    </contour>
    <contour>
      <point x="1313.5020635163637" y="1600" type="move" name="top_dd"/>
    </contour>
    <contour>
      <point x="966.72846203902168" y="-407" type="move" name="bottom_dd"/>
    </contour>
    <contour>
      <point x="1259.9396238262912" y="1290" type="move" name="top0315"/>
    </contour>
    <contour>
      <point x="716.03665367592021" y="1634" type="move" name="top"/>
    </contour>
    <component base="g"/>
    <component base="breve" xOffset="91.179999999999993"/>
  </outline>
</glyph>
<glyph name="uni0120" format="1">
  <advance width="1364.12"/>
  <unicode hex="0120"/>
  <outline>
    <contour>
      <point x="856.63206351636381" y="1600" type="move" name="parent_top"/>
    </contour>
    <contour>
      <point x="600.55076189018178" y="0" type="move" name="bottom"/>
    </contour>
    <contour>
      <point x="1526.9020635163638" y="1600" type="move" name="top_dd"/>
    </contour>
    <contour>
      <point x="1180.1284620390215" y="-407" type="move" name="bottom_dd"/>
    </contour>
    <contour>
      <point x="1526.9020635163638" y="1600" type="move" name="top0315"/>
    </contour>
    <contour>
      <point x="921.9436835255492" y="1978" type="move" name="top"/>
    </contour>
    <component base="G"/>
    <component base="dotaccent" xOffset="477.54642715094911" yOffset="333"/>
  </outline>
</glyph>
<glyph name="uni0121" format="1">
  <advance width="1150.72"/>
  <unicode hex="0121"/>
  <outline>
    <contour>
      <point x="656.59962382629101" y="1290" type="move" name="parent_top"/>
    </contour>
    <contour>
      <point x="356.47717949836715" y="-447" type="move" name="bottom"/>
    </contour>
    <contour>
      <point x="1313.5020635163637" y="1600" type="move" name="top_dd"/>
    </contour>
    <contour>
      <point x="966.72846203902168" y="-407" type="move" name="bottom_dd"/>
    </contour>
    <contour>
      <point x="1259.9396238262912" y="1290" type="move" name="top0315"/>
    </contour>
    <contour>
      <point x="721.91124383547651" y="1668" type="move" name="top"/>
    </contour>
    <component base="g"/>
    <component base="dotaccent" xOffset="277.51398746087636" yOffset="23"/>
  </outline>
</glyph>
<glyph name="hcircumflex" format="1">
  <advance width="1128.41"/>
  <unicode hex="0125"/>
  <outline>
    <contour>
      <point x="704.8907954233855" y="1693" type="move" name="parent_top"/>
    </contour>
    <contour>
      <point x="461.62858252534534" y="10" type="move" name="bottom"/>
    </contour>
    <contour>
      <point x="1291.1920635163638" y="1600" type="move" name="top_dd"/>
    </contour>
    <contour>
      <point x="944.41846203902173" y="-407" type="move" name="bottom_dd"/>
    </contour>
    <contour>
      <point x="1307.2607954233856" y="1693" type="move" name="top0315"/>
    </contour>
    <contour>
      <point x="765.36451765411289" y="2043" type="move" name="top"/>
    </contour>
    <component base="h"/>
    <component base="circumflex" xOffset="89.031171597094584" yOffset="403"/>
  </outline>
</glyph>
<glyph name="Hbar" format="1">
  <advance width="1442.3899999999999"/>
  <unicode hex="0126"/>
  <outline>
    <contour>
      <point x="899.31206351636376" y="1600" type="move" name="top"/>
    </contour>
    <contour>
      <point x="624.58858252534537" y="10" type="move" name="bottom"/>
    </contour>
    <contour>
      <point x="1615.1720635163638" y="1600" type="move" name="top0315"/>
    </contour>
    <contour>
      <point x="876.6180541043974" y="0.0" type="line"/>
      <point x="1202.910362054379" y="0.0" type="line"/>
      <point x="1386.761742223388" y="1059.9314925066683" type="line"/>
      <point x="1501.1021912938279" y="1060.0714646057595" type="line"/>
      <point x="1532.9993452049268" y="1242.9361042880325" type="line"/>
      <point x="1418.3042719870648" y="1243.074146380661" type="line"/>
      <point x="1455.647081996535" y="1455.9234915726652" type="line"/>
      <point x="1129.4020317530217" y="1455.9239904301085" type="line"/>
      <point x="1091.8526836642986" y="1243.090818103221" type="line"/>
      <point x="572.28791675034381" y="1243.07483591594" type="line"/>
      <point x="609.85184700350021" y="1455.9079003757386" type="line"/>
      <point x="282.53934571406296" y="1455.9396093490222" type="line"/>
      <point x="245.20969825511725" y="1243.0779165886308" type="line"/>
      <point x="142.60685488215307" y="1242.9489530069516" type="line"/>
      <point x="110.70979409377252" y="1060.0738049696029" type="line"/>
      <point x="213.67177658282952" y="1059.9501574346111" type="line"/>
      <point x="29.808355070898003" y="0.0" type="line"/>
      <point x="357.06745133424226" y="0.0" type="line"/>
      <point x="462.77916228663014" y="607.92267023091676" type="line"/>
      <point x="982.34203882594511" y="607.9418026224472" type="line"/>
    </contour>
    <contour>
      <point x="509.05000240123559" y="878.07786302977729" type="line"/>
      <point x="541.22537904878095" y="1059.9034473864826" type="line"/>
      <point x="1060.7916969302519" y="1059.9197163701842" type="line"/>
      <point x="1028.6163202827158" y="878.09413201346399" type="line"/>
    </contour>
  </outline>
</glyph>
<glyph name="hbar" format="1">
  <advance width="1157.51"/>
  <unicode hex="0127"/>
  <outline>
    <contour>
      <point x="704.8907954233855" y="1693" type="move" name="parent_top"/>
    </contour>
    <contour>
      <point x="461.62858252534534" y="10" type="move" name="bottom"/>
    </contour>
    <contour>
      <point x="1320.2920635163637" y="1600" type="move" name="top_dd"/>
    </contour>
    <contour>
      <point x="973.51846203902164" y="-407" type="move" name="bottom_dd"/>
    </contour>
    <contour>
      <point x="1336.3607954233855" y="1693" type="move" name="top0315"/>
    </contour>
    <contour>
      <point x="704.8907954233855" y="1693" type="move" name="top"/>
    </contour>
    <component base="h" xOffset="29.099999999999994"/>
    <component base="crossbar" xOffset="-65.232044430836297" yOffset="560"/>
  </outline>
</glyph>
<glyph name="Itilde" format="1">
  <advance width="603.64"/>
  <unicode hex="0128"/>
  <outline>
    <contour>
      <point x="468.63206351636381" y="1600" type="move" name="parent_top"/>
    </contour>
    <contour>
      <point x="193.15076189018174" y="0" type="move" name="bottom"/>
    </contour>
    <contour>
      <point x="766.42206351636378" y="1600" type="move" name="top_dd"/>
    </contour>
    <contour>
      <point x="419.64846203902164" y="-407" type="move" name="bottom_dd"/>
    </contour>
    <contour>
      <point x="766.42206351636378" y="1600" type="move" name="top0315"/>
    </contour>
    <contour>
      <point x="534.46202971609841" y="1981" type="move" name="top"/>
    </contour>
    <component base="I"/>
    <component base="tilde" xOffset="-134.51147062750908" yOffset="305"/>
  </outline>
</glyph>
<glyph name="Imacron" format="1">
  <advance width="603.64"/>
  <unicode hex="012A"/>
  <outline>
    <contour>
      <point x="468.63206351636381" y="1600" type="move" name="parent_top"/>
    </contour>
    <contour>
      <point x="193.15076189018174" y="0" type="move" name="bottom"/>
    </contour>
    <contour>
      <point x="766.42206351636378" y="1600" type="move" name="top_dd"/>
    </contour>
    <contour>
      <point x="419.64846203902164" y="-407" type="move" name="bottom_dd"/>
    </contour>
    <contour>
      <point x="766.42206351636378" y="1600" type="move" name="top0315"/>
    </contour>
    <contour>
      <point x="522.88563146050205" y="1914" type="move" name="top"/>
    </contour>
    <component base="I"/>
    <component base="macron" xOffset="-158.93425269102545" yOffset="304"/>
  </outline>
</glyph>
<glyph name="Kcommaaccent" format="1">
  <advance width="1277.79"/>
  <unicode hex="0136"/>
  <outline>
    <contour>
      <point x="748.96206351636374" y="1600" type="move" name="parent_top"/>
    </contour>
    <contour>
      <point x="1440.5720635163639" y="1600" type="move" name="top_dd"/>
    </contour>
    <contour>
      <point x="1093.7984620390216" y="-407" type="move" name="bottom_dd"/>
    </contour>
    <contour>
      <point x="1440.5720635163639" y="1600" type="move" name="top0315"/>
    </contour>
    <contour>
      <point x="748.96206351636374" y="1600" type="move" name="top"/>
    </contour>
    <contour>
      <point x="444.89266648210526" y="-463" type="move" name="bottom"/>
    </contour>
    <component base="K"/>
    <component base="commaaccent" xOffset="356.50808586531264" yOffset="-317"/>
  </outline>
</glyph>
<glyph name="kcommaaccent" format="1">
  <advance width="1088.6399999999999"/>
  <unicode hex="0137"/>
  <outline>
    <contour>
      <point x="841.11206351636372" y="1600" type="move" name="parent_top"/>
    </contour>
    <contour>
      <point x="1251.4220635163638" y="1600" type="move" name="top_dd"/>
    </contour>
    <contour>
      <point x="904.64846203902152" y="-407" type="move" name="bottom_dd"/>
    </contour>
    <contour>
      <point x="1125.3220635163639" y="1600" type="move" name="top0315"/>
    </contour>
    <contour>
      <point x="841.11206351636372" y="1600" type="move" name="top"/>
    </contour>
    <contour>
      <point x="371.25146108474536" y="-485" type="move" name="bottom"/>
    </contour>
    <component base="k"/>
    <component base="commaaccent" xOffset="282.86688046795268" yOffset="-339"/>
  </outline>
</glyph>
<glyph name="kgreenlandic" format="1">
  <advance width="1195.04"/>
  <unicode hex="0138"/>
  <outline>
    <contour>
      <point x="701.21962382629101" y="1290" type="move" name="top"/>
    </contour>
    <contour>
      <point x="480.0585825253454" y="10" type="move" name="bottom"/>
    </contour>
    <contour>
      <point x="1314.2596238262909" y="1290" type="move" name="top0315"/>
    </contour>
    <contour>
      <point x="665.6333001114034" y="0.0" type="line"/>
      <point x="1055.3264177934416" y="0.0" type="line"/>
      <point x="800.05190064132205" y="549.22330838138475" type="line"/>
      <point x="1247.5471086019581" y="1081.5275372598451" type="line"/>
      <point x="825.2003594554244" y="1081.6414261753523" type="line"/>
      <point x="521.32816416935793" y="693.43083795548171" type="line"/>
      <point x="447.6851122741366" y="693.07629112540087" type="line"/>
      <point x="515.87715129440733" y="1081.9187914848262" type="line"/>
      <point x="201.17521939352997" y="1081.9411350217706" type="line"/>
      <point x="13.317060536897841" y="0.0" type="line"/>
      <point x="327.92852838661111" y="0.0" type="line"/>
      <point x="393.89220547852415" y="377.93601392073407" type="line"/>
      <point x="520.21134459292716" y="378.04613359249987" type="line"/>
    </contour>
  </outline>
</glyph>
<glyph name="Lacute" format="1">
  <advance width="1086.7"/>
  <unicode hex="0139"/>
  <outline>
    <contour>
      <point x="457.96206351636374" y="1600" type="move" name="parent_top"/>
    </contour>
    <contour>
      <point x="475.20858252534538" y="10" type="move" name="bottom"/>
    </contour>
    <contour>
      <point x="1249.4820635163637" y="1600" type="move" name="top_dd"/>
    </contour>
    <contour>
      <point x="902.7084620390217" y="-407" type="move" name="bottom_dd"/>
    </contour>
    <contour>
      <point x="1249.4820635163637" y="1600" type="move" name="top0315"/>
    </contour>
    <contour>
      <point x="523.61924765258209" y="1980" type="move" name="top"/>
    </contour>
    <component base="L"/>
    <component base="acute" xOffset="103.03243969007278" yOffset="310"/>
  </outline>
</glyph>
<glyph name="lacute" format="1">
  <advance width="550.29"/>
  <unicode hex="013A"/>
  <outline>
    <contour>
      <point x="455.74628240712377" y="1677" type="move" name="parent_top"/>
    </contour>
    <contour>
      <point x="167.71858252534537" y="10" type="move" name="bottom"/>
    </contour>
    <contour>
      <point x="713.07206351636376" y="1600" type="move" name="top_dd"/>
    </contour>
    <contour>
      <point x="366.29846203902167" y="-407" type="move" name="bottom_dd"/>
    </contour>
    <contour>
      <point x="726.37628240712377" y="1677" type="move" name="top0315"/>
    </contour>
    <contour>
      <point x="521.40346654334201" y="2057" type="move" name="top"/>
    </contour>
    <component base="l"/>
    <component base="acute" xOffset="100.81665858083278" yOffset="387"/>
  </outline>
</glyph>
<glyph name="Lcommaaccent" format="1">
  <advance width="1086.7"/>
  <unicode hex="013B"/>
  <outline>
    <contour>
      <point x="457.96206351636374" y="1600" type="move" name="parent_top"/>
    </contour>
    <contour>
      <point x="1249.4820635163637" y="1600" type="move" name="top_dd"/>
    </contour>
    <contour>
      <point x="902.7084620390217" y="-407" type="move" name="bottom_dd"/>
    </contour>
    <contour>
      <point x="1249.4820635163637" y="1600" type="move" name="top0315"/>
    </contour>
    <contour>
      <point x="457.96206351636374" y="1600" type="move" name="top"/>
    </contour>
    <contour>
      <point x="386.05303775090164" y="-506" type="move" name="bottom"/>
    </contour>
    <component base="L"/>
    <component base="commaaccent" xOffset="297.66845713410908" yOffset="-360"/>
  </outline>
</glyph>
<glyph name="Lcaron" format="1">
  <advance width="1086.7"/>
  <unicode hex="013D"/>
  <outline>
    <contour>
      <point x="457.96206351636374" y="1600" type="move" name="parent_top"/>
    </contour>
    <contour>
      <point x="475.20858252534538" y="10" type="move" name="bottom"/>
    </contour>
    <contour>
      <point x="1249.4820635163637" y="1600" type="move" name="top_dd"/>
    </contour>
    <contour>
      <point x="902.7084620390217" y="-407" type="move" name="bottom_dd"/>
    </contour>
    <contour>
      <point x="1249.4820635163637" y="1600" type="move" name="top0315"/>
    </contour>
    <contour>
      <point x="457.96206351636374" y="1600" type="move" name="top"/>
    </contour>
    <component base="L"/>
    <component base="commaaccent" xOffset="784.50057844117828" yOffset="1172"/>
  </outline>
</glyph>
<glyph name="lcaron" format="1">
  <advance width="695.79"/>
  <unicode hex="013E"/>
  <outline>
    <contour>
      <point x="455.74628240712377" y="1677" type="move" name="parent_top"/>
    </contour>
    <contour>
      <point x="167.71858252534537" y="10" type="move" name="bottom"/>
    </contour>
    <contour>
      <point x="858.57206351636376" y="1600" type="move" name="top_dd"/>
    </contour>
    <contour>
      <point x="511.79846203902162" y="-407" type="move" name="bottom_dd"/>
    </contour>
    <contour>
      <point x="871.87628240712377" y="1677" type="move" name="top0315"/>
    </contour>
    <contour>
      <point x="455.74628240712377" y="1677" type="move" name="top"/>
    </contour>
    <component base="l"/>
    <component base="commaaccent" xOffset="677.0731435224875" yOffset="1252"/>
  </outline>
</glyph>
<glyph name="Lslash" format="1">
  <advance width="1120.35"/>
  <unicode hex="0141"/>
  <outline>
    <contour>
      <point x="487.06206351636376" y="1600" type="move" name="top"/>
    </contour>
    <contour>
      <point x="475.20858252534538" y="10" type="move" name="bottom"/>
    </contour>
    <contour>
      <point x="1293.1320635163638" y="1600" type="move" name="top0315"/>
    </contour>
    <contour>
      <point x="1027.0721402555241" y="269.90577904308714" type="line"/>
      <point x="426.15730146136104" y="270.06150052799228" type="line"/>
      <point x="505.71939203971033" y="727.7447467079063" type="line"/>
      <point x="710.10308373116891" y="783.67369833721114" type="line"/>
      <point x="743.48183976166456" y="972.47115957062113" type="line"/>
      <point x="538.22365376451785" y="917.20966370876829" type="line"/>
      <point x="632.03322501879313" y="1455.9256027801871" type="line"/>
      <point x="304.77038690840715" y="1455.9438877671384" type="line"/>
      <point x="194.88217353170387" y="822.83761936277142" type="line"/>
      <point x="57.54773626285386" y="785.34391243313985" type="line"/>
      <point x="24.347511352434125" y="596.54294929743753" type="line"/>
      <point x="162.24304112032411" y="633.35695863141689" type="line"/>
      <point x="52.134636039242125" y="0.0" type="line"/>
      <point x="979.71326568624318" y="0.0" type="line"/>
    </contour>
  </outline>
</glyph>
<glyph name="Nacute" format="1">
  <advance width="1407.77"/>
  <unicode hex="0143"/>
  <outline>
    <contour>
      <point x="877.00206351636382" y="1600" type="move" name="parent_top"/>
    </contour>
    <contour>
      <point x="600.55076189018178" y="0" type="move" name="bottom"/>
    </contour>
    <contour>
      <point x="1570.5520635163639" y="1600" type="move" name="top_dd"/>
    </contour>
    <contour>
      <point x="1223.7784620390216" y="-407" type="move" name="bottom_dd"/>
    </contour>
    <contour>
      <point x="1570.5520635163639" y="1600" type="move" name="top0315"/>
    </contour>
    <contour>
      <point x="942.65924765258205" y="1980" type="move" name="top"/>
    </contour>
    <component base="N"/>
    <component base="acute" xOffset="522.07243969007277" yOffset="310"/>
  </outline>
</glyph>
<glyph name="nacute" format="1">
  <advance width="1128.41"/>
  <unicode hex="0144"/>
  <outline>
    <contour>
      <point x="678.90962382629095" y="1290" type="move" name="parent_top"/>
    </contour>
    <contour>
      <point x="457.74858252534534" y="10" type="move" name="bottom"/>
    </contour>
    <contour>
      <point x="1291.1920635163638" y="1600" type="move" name="top_dd"/>
    </contour>
    <contour>
      <point x="944.41846203902173" y="-407" type="move" name="bottom_dd"/>
    </contour>
    <contour>
      <point x="1237.6296238262912" y="1290" type="move" name="top0315"/>
    </contour>
    <contour>
      <point x="744.56680796250919" y="1670" type="move" name="top"/>
    </contour>
    <component base="n"/>
    <component base="acute" xOffset="323.98000000000002"/>
  </outline>
</glyph>
<glyph name="napostrophe" format="1">
  <advance width="1128.41"/>
  <unicode hex="0149"/>
  <outline>
    <contour>
      <point x="678.90962382629095" y="1290" type="move" name="parent_top"/>
    </contour>
    <contour>
      <point x="457.74858252534534" y="10" type="move" name="bottom"/>
    </contour>
    <contour>
      <point x="1291.1920635163638" y="1600" type="move" name="top_dd"/>
    </contour>
    <contour>
      <point x="944.41846203902173" y="-407" type="move" name="bottom_dd"/>
    </contour>
    <contour>
      <point x="1237.6296238262912" y="1290" type="move" name="top0315"/>
    </contour>
    <contour>
      <point x="678.90962382629095" y="1290" type="move" name="top"/>
    </contour>
    <component base="n"/>
    <component base="commaaccent" xOffset="54.957579395454729" yOffset="1250"/>
  </outline>
</glyph>
<glyph name="Rcommaaccent" format="1">
  <advance width="1297.19"/>
  <unicode hex="0156"/>
  <outline>
    <contour>
      <point x="748.96206351636374" y="1600" type="move" name="parent_top"/>
    </contour>
    <contour>
      <point x="1459.972063516364" y="1600" type="move" name="top_dd"/>
    </contour>
    <contour>
      <point x="1113.1984620390217" y="-407" type="move" name="bottom_dd"/>
    </contour>
    <contour>
      <point x="1459.972063516364" y="1600" type="move" name="top0315"/>
    </contour>
    <contour>
      <point x="748.96206351636374" y="1600" type="move" name="top"/>
    </contour>
    <contour>
      <point x="403.51303775090167" y="-506" type="move" name="bottom"/>
    </contour>
    <component base="R"/>
    <component base="commaaccent" xOffset="315.128457134109" yOffset="-360"/>
  </outline>
</glyph>
<glyph name="Rcaron" format="1">
  <advance width="1297.19"/>
  <unicode hex="0158"/>
  <outline>
    <contour>
      <point x="748.96206351636374" y="1600" type="move" name="parent_top"/>
    </contour>
    <contour>
      <point x="492.66858252534541" y="10" type="move" name="bottom"/>
    </contour>
    <contour>
      <point x="1459.972063516364" y="1600" type="move" name="top_dd"/>
    </contour>
    <contour>
      <point x="1113.1984620390217" y="-407" type="move" name="bottom_dd"/>
    </contour>
    <contour>
      <point x="1459.972063516364" y="1600" type="move" name="top0315"/>
    </contour>
    <contour>
      <point x="811.16360638225467" y="1960" type="move" name="top"/>
    </contour>
    <component base="R"/>
    <component base="caron" xOffset="156.38243969007277" yOffset="310"/>
  </outline>
</glyph>
<glyph name="rcaron" format="1">
  <advance width="753.99"/>
  <unicode hex="0159"/>
  <outline>
    <contour>
      <point x="518.859623826291" y="1290" type="move" name="parent_top"/>
    </contour>
    <contour>
      <point x="154.13858252534538" y="10" type="move" name="bottom"/>
    </contour>
    <contour>
      <point x="916.7720635163638" y="1600" type="move" name="top_dd"/>
    </contour>
    <contour>
      <point x="569.99846203902166" y="-407" type="move" name="bottom_dd"/>
    </contour>
    <contour>
      <point x="863.20962382629102" y="1290" type="move" name="top0315"/>
    </contour>
    <contour>
      <point x="581.06116669218193" y="1650" type="move" name="top"/>
    </contour>
    <component base="r"/>
    <component base="caron" xOffset="-73.720000000000013"/>
  </outline>
</glyph>
<glyph name="Scaron" format="1">
  <advance width="1246.75"/>
  <unicode hex="0160"/>
  <outline>
    <contour>
      <point x="811.04206351636378" y="1600" type="move" name="parent_top"/>
    </contour>
    <contour>
      <point x="534.59076189018174" y="0" type="move" name="bottom"/>
    </contour>
    <contour>
      <point x="1409.5320635163639" y="1600" type="move" name="top_dd"/>
    </contour>
    <contour>
      <point x="1062.7584620390217" y="-407" type="move" name="bottom_dd"/>
    </contour>
    <contour>
      <point x="1409.5320635163639" y="1600" type="move" name="top0315"/>
    </contour>
    <contour>
      <point x="873.24360638225471" y="1960" type="move" name="top"/>
    </contour>
    <component base="S"/>
    <component base="caron" xOffset="218.46243969007278" yOffset="310"/>
  </outline>
</glyph>
